<svg version="1.1" id="Layer_1" xmlns="http://www.w3.org/2000/svg" x="0" y="0" viewBox="0 0 1000 555.9" xml:space="preserve"><style>.st2{fill:#ff6900}</style><path d="M12.8 0S0 0 0 12.8V543s0 12.8 12.8 12.8h973.8s12.8 0 12.8-12.8V12.8S999.4 0 986.6 0H12.8z" fill="#fdf2e8"/><path class="st2" d="M358.8 45.9c0-.5-.3-.8-.9-.8s-.9.3-.9.8v10.9c0 .5.3.8.9.8s.9-.3.9-.8v-5.4c.5 0 1 .1 1.4.2.4.1.8.4 1 .7.3.3.5.6.7.9s.4.7.6 1.2l.2.6c.4 1.1.7 1.8 1 2.2.3.3.6.4 1.1.3.6-.1.8-.4.5-.9-.3-.5-.7-1.5-1.2-2.9-.6-1.7-1.6-2.7-2.9-3.1.9-.4 1.6-1.1 2.1-2l.2-.3c.6-1 1-1.7 1.3-2.1.2-.2.2-.4.2-.6 0-.3-.2-.4-.6-.5-.5-.1-1 .1-1.3.5-.2.3-.6.8-1 1.6-.2.3-.3.6-.5.8-.4.6-.8 1.1-1.2 1.4-.4.3-1 .5-1.7.6v-4.1zm-12.7-.1c-.1-.2-.2-.3-.2-.4-.1-.1-.1-.1-.3-.2-.1-.1-.3-.1-.5-.1-.3 0-.5.1-.7.2-.2.1-.2.3-.1.6l4.3 9.1c-.1.3-.3.5-.5.7-.2.2-.6.2-1.1.2-.3 0-.5 0-.6.2-.1.1-.2.3-.2.5 0 .5.3.8.8.8.9.1 1.6-.1 2.1-.4.5-.4.9-1 1.3-2l3.8-9.1c.1-.3.1-.5 0-.6-.1-.1-.3-.2-.6-.2s-.5 0-.6.1c-.2.1-.3.1-.3.2s-.1.2-.2.4l-2.6 6.5-.3.9-.4-.9-3.1-6.5zm-10.8 5.3v-4c0-.3.1-.4.4-.4h2.5c.7 0 1.2.2 1.6.6.4.4.6.9.6 1.6 0 .6-.2 1.2-.6 1.6-.4.4-1 .6-1.7.6h-2.8zm0 5.7v-4.3h3c1.2 0 2.1-.3 2.9-1 .7-.7 1.1-1.6 1.1-2.6 0-1.1-.4-2-1.2-2.7-.8-.7-1.8-1-3-1h-3c-.6 0-1.1.1-1.3.4-.2.3-.4.7-.4 1.2v9.9c0 .5.3.8.9.8.7.1 1-.2 1-.7m-19.4-1.1c0 .5.1.9.4 1.2.2.3.7.5 1.3.5h5.7c.5 0 .8-.3.8-.8s-.3-.8-.8-.8h-5.1c-.3 0-.4-.1-.4-.4v-3.7h4.3c.5 0 .7-.3.7-.8s-.2-.8-.7-.8h-4.3v-3.2c0-.2.1-.4.4-.4h5.1c.5 0 .8-.3.8-.8s-.3-.8-.8-.8h-5.7c-.6 0-1.1.2-1.3.5-.2.3-.4.7-.4 1.2v9.1zm5.5-13.3c-.4 0-.7.1-.8.2s-.2.4-.2.7c0 .3.1.6.2.8.1.2.4.3.8.3s.7-.1.8-.3c.1-.2.2-.4.2-.8 0-.3-.1-.6-.2-.7-.1-.1-.4-.2-.8-.2m-3 0c-.4 0-.7.1-.8.2s-.2.4-.2.7c0 .3.1.6.2.8.1.2.4.3.8.3s.7-.1.8-.3c.1-.2.2-.4.2-.8 0-.3-.1-.6-.2-.7-.1-.1-.4-.2-.8-.2m-12.6 9.1h2.8c.7 0 1.3.2 1.7.6.4.4.6.9.6 1.5s-.2 1.2-.6 1.6c-.4.4-.9.6-1.6.6h-2.5c-.3 0-.4-.1-.4-.4v-3.9zm0-5.7c0-.5-.3-.8-.9-.8-.6 0-.9.3-.9.8v9.9c0 .5.1 1 .4 1.2.2.3.7.4 1.3.4h3c1.2 0 2.2-.4 3-1.1.8-.7 1.2-1.6 1.2-2.7s-.4-2-1.1-2.6c-.7-.7-1.7-1-2.9-1h-3v-4.1zm-12.7-.6c-.5 0-.8.3-.8.8s.3.8.8.8h2.8v10c0 .5.3.8.9.8.6 0 .9-.3.9-.8v-10h2.8c.5 0 .8-.3.8-.8s-.3-.8-.8-.8h-7.4zm-13.8 6.3h2.7c.7 0 1.3.2 1.7.6.4.4.6.9.6 1.5s-.2 1.2-.6 1.6c-.4.4-.9.6-1.6.6h-2.4c-.3 0-.4-.1-.4-.4v-3.9zm0-5.7c0-.5-.3-.8-.9-.8-.6 0-.9.3-.9.8v9.9c0 .5.1.9.4 1.2.2.3.7.5 1.3.5h2.9c1.2 0 2.2-.4 3-1.1.8-.7 1.2-1.6 1.2-2.7s-.4-2-1.1-2.6c-.7-.7-1.7-1-2.9-1h-2.9v-4.2zm10.2.1c0-.5-.3-.8-.9-.8-.6 0-.9.3-.9.8v10.9c0 .5.3.8.9.8.6 0 .9-.3.9-.8V45.9zm-21 7.5c.4 0 .7-.2 1-.7l2.3-3.9.3-.5v8.6c0 .5.3.8.9.8.5 0 .8-.3.8-.8v-11c0-.5-.3-.8-.9-.8-.5 0-.9.2-1.1.7l-3.1 5.5-3.2-5.5c-.1-.3-.3-.4-.5-.6-.2-.1-.4-.2-.7-.2-.6 0-.9.3-.9.8v10.9c0 .5.3.8.8.8.6 0 .9-.3.9-.8v-8.6c.1.2.2.4.3.5l2.3 3.9c.1.6.4.9.8.9m-16.7-2.1c0 1.6-.3 2.7-.9 3.5-.6.8-1.5 1.1-2.7 1.1-1.2 0-2.1-.4-2.7-1.1-.6-.8-.9-1.9-.9-3.5s.3-2.8.9-3.5c.6-.8 1.5-1.1 2.7-1.1 1.2 0 2.1.4 2.7 1.1.6.8.9 1.9.9 3.5m.6-4.5c-1-1.2-2.4-1.8-4.2-1.8-1.8 0-3.2.6-4.2 1.8-.9 1.1-1.3 2.6-1.3 4.5 0 2 .5 3.5 1.5 4.6 1 1.1 2.3 1.7 4.1 1.7 1.8 0 3.1-.5 4.1-1.6 1-1.1 1.5-2.7 1.5-4.7-.1-1.9-.6-3.4-1.5-4.5m-19.1 4.3v-4c0-.3.1-.4.4-.4h2.5c.7 0 1.2.2 1.6.6s.6.9.6 1.6c0 .6-.2 1.2-.6 1.6-.4.4-1 .6-1.7.6h-2.8zm0 5.7v-4.3h3c1.2 0 2.1-.3 2.9-1 .7-.7 1.1-1.6 1.1-2.6 0-1.1-.4-2-1.2-2.7-.8-.7-1.8-1-3-1h-3c-.6 0-1.1.1-1.3.4-.2.3-.4.7-.4 1.2v9.9c0 .5.3.8.9.8.7.1 1-.2 1-.7m-5.5-9.9c0-.5-.1-.9-.4-1.2-.2-.3-.7-.5-1.3-.5h-5.7c-.6 0-1.1.1-1.3.4-.2.3-.4.7-.4 1.2v9.9c0 .5.3.8.9.8.6 0 .9-.3.9-.8V47c0-.2.1-.4.4-.4h4.6c.3 0 .4.1.4.4v9.7c0 .5.3.8.9.8.6 0 .9-.3.9-.8v-9.8zm-25.9 4.4v-1.4c0-.4.1-.8.2-1.3s.2-.9.4-1.2c.2-.3.4-.6.7-.8.3-.2.7-.3 1.1-.3.4 0 .7.1 1 .2.3.1.5.3.7.6s.3.5.4.8.2.6.2 1.1c0 .4.1.8.1 1.1v2.5c0 .4-.1.8-.2 1.3s-.2.9-.4 1.2c-.2.3-.4.6-.7.8-.3.2-.7.3-1.1.3-.5 0-1-.1-1.3-.4-.3-.3-.6-.7-.7-1.2l-.3-1.5c-.1-.6-.1-1.1-.1-1.8m6.5 0c0-4.2-1.4-6.3-4.1-6.3-2.7 0-4.1 2.1-4.1 6.3 0 1.9.3 3.5 1 4.6.7 1.1 1.7 1.7 3.1 1.7 1.4 0 2.4-.6 3.1-1.7.6-1.1 1-2.7 1-4.6m-18.1 0v-1.4c0-.4.1-.8.2-1.3s.2-.9.4-1.2c.2-.3.4-.6.7-.8.3-.2.7-.3 1.1-.3.4 0 .7.1 1 .2.3.1.5.3.7.6.2.3.3.5.4.8s.2.6.2 1.1c0 .4.1.8.1 1.1v2.5c0 .4-.1.8-.2 1.3s-.2.9-.4 1.2c-.2.3-.4.6-.7.8-.3.2-.7.3-1.1.3-.5 0-1-.1-1.3-.4-.3-.3-.6-.7-.7-1.2l-.3-1.5c-.1-.6-.1-1.1-.1-1.8m6.5 0c0-4.2-1.4-6.3-4.1-6.3-2.7 0-4.1 2.1-4.1 6.3 0 1.9.3 3.5 1 4.6.7 1.1 1.7 1.7 3.1 1.7s2.4-.6 3.1-1.7c.6-1.1 1-2.7 1-4.6m-17 .1c.7-.2 1.3-.4 1.7-.3.6 0 1.1.2 1.4.6.3.4.5 1 .5 1.9 0 .8-.2 1.4-.5 1.9s-.8.7-1.5.7h-.5c-.2 0-.3-.1-.4-.1-.1 0-.2-.1-.3-.2l-.2-.2c-.1-.1-.1-.1-.2-.3-.1-.1-.1-.2-.1-.3 0 0-.1-.1-.1-.3-.1-.1-.1-.2-.1-.3-.1-.2-.3-.3-.5-.4-.2 0-.4 0-.6.1-.4.2-.5.5-.3 1 .3.8.8 1.4 1.3 1.7.5.4 1.2.5 2.1.5.6 0 1.1-.1 1.5-.3.5-.2.8-.4 1.1-.7.3-.3.5-.6.6-1 .2-.4.3-.7.3-1.1.1-.4.1-.7.1-1.1 0-.7-.1-1.3-.3-1.8-.2-.5-.5-.9-.8-1.2-.3-.3-.7-.5-1.1-.6-.4-.1-.8-.2-1.3-.2h-.7c-.1 0-.2 0-.3.1-.1 0-.3.1-.4.1-.2.1-.3 0-.3-.2v-2.6c0-.2.1-.3.3-.3h4c.5 0 .7-.3.7-.8 0-.2-.1-.4-.2-.5-.1-.1-.3-.2-.5-.2h-4.8c-.6 0-1 .3-1.1 1v4c0 .4 0 .7.2 1 .2.2.5.4.8.4.1.1.3.1.5 0m-11.8-.1v-1.4c0-.4.1-.8.2-1.3s.2-.9.4-1.2.4-.6.7-.8c.3-.2.7-.3 1.1-.3.4 0 .7.1 1 .2.3.1.5.3.7.6s.3.5.4.8.2.6.2 1.1c0 .4.1.8.1 1.1v2.5c0 .4-.1.8-.2 1.3s-.2.9-.4 1.2c-.2.3-.4.6-.7.8-.3.2-.7.3-1.1.3-.5 0-1-.1-1.3-.4-.3-.3-.6-.7-.7-1.2l-.3-1.5c-.1-.6-.1-1.1-.1-1.8m6.5 0c0-4.2-1.4-6.3-4.1-6.3-2.7 0-4.1 2.1-4.1 6.3 0 1.9.3 3.5 1 4.6.7 1.1 1.7 1.7 3.1 1.7s2.4-.6 3.1-1.7c.7-1.1 1-2.7 1-4.6m-18.1 0v-1.4c0-.4.1-.8.2-1.3s.2-.9.4-1.2c.2-.3.4-.6.7-.8.3-.2.7-.3 1.1-.3.4 0 .7.1 1 .2.3.1.5.3.7.6s.3.5.4.8c.1.3.2.6.2 1.1 0 .4.1.8.1 1.1v2.5c0 .4-.1.8-.2 1.3s-.2.9-.4 1.2c-.2.3-.4.6-.7.8-.3.2-.7.3-1.1.3-.5 0-1-.1-1.3-.4-.3-.3-.6-.7-.7-1.2l-.3-1.5c-.1-.6-.1-1.1-.1-1.8m6.5 0c0-4.2-1.4-6.3-4.1-6.3-2.7 0-4.1 2.1-4.1 6.3 0 1.9.3 3.5 1 4.6.7 1.1 1.7 1.7 3.1 1.7s2.4-.6 3.1-1.7c.7-1.1 1-2.7 1-4.6M151 45.9c0-.5-.3-.7-.8-.8-.2 0-.5.1-.8.3l-2.4 1.4c-.4.2-.5.5-.5.9.1.4.3.5.6.5.1 0 .3 0 .5-.1l1-.6c.4-.2.6-.3.7-.4v9.8c0 .5.3.8.8.8s.8-.3.8-.8v-11zm-7.3 6.7c.4 0 .6-.2.6-.6 0-.4-.2-.6-.6-.6h-3.8c-.4 0-.6.2-.6.6 0 .4.2.6.6.6h3.8zM143 48c0 1.1-.4 1.7-1.2 1.7-.8 0-1.2-.6-1.2-1.7s.4-1.7 1.2-1.7c.8 0 1.2.5 1.2 1.7m-3.7 0c0 1.8.8 2.7 2.5 2.7 1.6 0 2.4-.9 2.4-2.7 0-1.8-.8-2.7-2.4-2.7-1.6-.1-2.5.8-2.5 2.7m-10.7-2.1v11c0 .4.3.6.8.6s.8-.2.8-.6v-7.5c0-.4 0-.8-.1-1.3l5.6 8.9c.3.4.7.6 1.1.6.6 0 1-.2 1-.7v-11c0-.4-.3-.6-.8-.6s-.8.2-.8.6V53c0 .4 0 1 .1 1.8-3.3-5.2-5.2-8.2-5.7-9-.3-.4-.6-.6-1.1-.6-.5 0-.9.2-.9.7m-11.4 5.4c0 1.6-.3 2.7-.9 3.5-.6.8-1.5 1.1-2.7 1.1-1.2 0-2.1-.4-2.7-1.1-.6-.8-.9-1.9-.9-3.5s.3-2.8.9-3.5c.6-.8 1.5-1.1 2.7-1.1 1.2 0 2.1.4 2.7 1.1.6.8.9 1.9.9 3.5m.6-4.5c-1-1.2-2.4-1.8-4.2-1.8-1.8 0-3.2.6-4.2 1.8-.9 1.1-1.3 2.6-1.3 4.5 0 2 .5 3.5 1.5 4.6 1 1.1 2.3 1.7 4.1 1.7 1.8 0 3.1-.5 4.1-1.6 1-1.1 1.5-2.7 1.5-4.7-.2-1.9-.6-3.4-1.5-4.5m-12.9.1c0-.5-.1-1-.4-1.2-.2-.3-.7-.4-1.3-.4h-3.8c-.6 0-1.1.1-1.3.4-.2.3-.4.7-.5 1.3-.1 2.4-.3 4.5-.5 6.5-.1.7-.2 1.3-.4 1.8-.1.5-.5.7-.9.6-.2 0-.4.1-.6.3-.2.2-.3.3-.3.5 0 .4.1.6.3.7.2.1.5.2.8.2 1.1 0 1.9-.5 2.4-1.5.3-.5.4-1.3.5-2.4.1-.8.2-2 .3-3.5.1-1.5.2-2.5.2-2.7v-.3c0-.3.2-.4.4-.4h2.8c.1 0 .2 0 .3.1.1.1.1.1.1.3v9.6c0 .3.1.5.3.6.2.1.4.2.7.2.6 0 .9-.3.9-.8v-9.9zm-20.4-1c0-.5-.3-.8-.9-.8-.6 0-.9.3-.9.8v10.9c0 .5.3.8.9.8.4 0 .7-.1.8-.4l5.5-8.1c.2-.3.4-.5.5-.8v8.4c0 .5.3.8.9.8.6 0 .9-.3.9-.8V45.9c0-.5-.3-.8-.9-.8-.4 0-.6.1-.8.4l-5.3 7.9c-.2.3-.5.7-.6 1v-8.5zM72 50.3V47c0-.3.1-.4.4-.4h2.7c.7 0 1.2.1 1.6.4.4.3.6.7.6 1.3 0 1.3-.9 1.9-2.7 1.9H72zm3.3 5.6h-2.9c-.3 0-.4-.1-.4-.4v-3.8h3.1c.8 0 1.4.2 1.9.5.5.4.7.9.7 1.7 0 .6-.2 1.1-.7 1.5-.4.4-1 .5-1.7.5m-5.1-9v8.8c0 .5.1.9.4 1.2.2.3.7.5 1.3.5h3.5c1.2 0 2.2-.3 3-.9.8-.6 1.1-1.4 1.1-2.6 0-.7-.2-1.3-.6-1.9-.4-.5-.9-.9-1.6-1.2 1.3-.5 1.9-1.4 1.9-2.7 0-1-.4-1.7-1.1-2.2s-1.6-.8-2.7-.8h-3.5c-.6 0-1.1.2-1.3.5-.3.4-.4.8-.4 1.3m-9.8 5.7c.5-1.5.9-2.7 1.2-3.5.2-.4.3-1 .5-1.7.2.9.4 1.5.5 1.7l1.2 3.5h-3.4zm2.9-6.7c-.2-.5-.6-.7-1.1-.7-.5 0-.9.2-1.1.7l-4 10.9c-.2.5 0 .8.7.8.3 0 .6-.1.8-.2.2-.1.3-.3.4-.6.1-.3.3-.8.5-1.5s.4-1.1.5-1.5h4.4l1 2.9c.2.5.6.7 1.2.7.7 0 .9-.3.7-.8l-4-10.7zm-14 5.2v-4c0-.3.1-.4.4-.4h2.5c.7 0 1.2.2 1.6.6.4.4.6.9.6 1.6 0 .6-.2 1.2-.6 1.6-.4.4-1 .6-1.7.6h-2.8zm0 5.7v-4.3h3c1.2 0 2.1-.3 2.9-1 .7-.7 1.1-1.6 1.1-2.6 0-1.1-.4-2-1.2-2.7-.8-.7-1.8-1-3-1h-3c-.6 0-1.1.1-1.3.4-.2.3-.4.7-.4 1.2v9.9c0 .5.3.8.9.8s1-.2 1-.7m-5.6-9.9c0-.5-.1-.9-.4-1.2-.2-.3-.7-.5-1.3-.5h-5.7c-.6 0-1.1.1-1.3.4-.2.3-.4.7-.4 1.2v9.9c0 .5.3.8.9.8s.9-.3.9-.8V47c0-.2.1-.4.4-.4h4.6c.3 0 .4.1.4.4v9.7c0 .5.3.8.9.8.6 0 .9-.3.9-.8v-9.8z"/><path d="M886.6 159.6c0-.7-.4-1.1-1.3-1.1-.5 0-.9.1-1.1.4l-5.5 8c-.6 1-.9 1.5-1 1.6v-8.9c0-.7-.4-1.1-1.3-1.1s-1.3.4-1.3 1.1v12c0 .7.4 1.1 1.3 1.1.5 0 .9-.2 1.2-.5l5.6-8.1.3-.5.6-.9v8.8c0 .7.4 1.1 1.3 1.1s1.3-.4 1.3-1.1v-11.9zm-23.2-.8c-.6 0-1 .3-1 1s.3 1 1 1h3v10.8c0 .7.4 1.1 1.3 1.1.8 0 1.3-.4 1.3-1.1v-10.8h3.1c.6 0 .9-.3.9-1 0-.6-.3-1-.9-1h-8.7zm-3.9 9.9c-.6-.1-1.1.2-1.4.8-.5.9-1.3 1.3-2.4 1.3-2.5 0-3.7-1.7-3.7-5.2 0-3.4 1.2-5.2 3.7-5.2 1.2 0 2.1.5 2.5 1.5.2.5.6.8 1.3.8h.1c.4-.1.7-.2.8-.4.2-.2.2-.5.1-.9-.2-.8-.7-1.5-1.6-2.1-.9-.6-2-.9-3.3-.9-4.3 0-6.4 2.4-6.4 7.1 0 4.7 2.1 7.1 6.4 7.1 1.3 0 2.4-.3 3.3-.9.9-.6 1.4-1.2 1.6-1.9.1-.5 0-.8-.2-.9-.1-.1-.4-.2-.8-.2m-14.8-3.1c0 1.6-.3 2.8-.9 3.6-.6.8-1.6 1.2-2.8 1.2s-2.2-.4-2.8-1.2c-.6-.8-.9-2-.9-3.6s.3-2.8.9-3.6c.6-.8 1.6-1.2 2.8-1.2s2.2.4 2.8 1.2c.6.8.9 2 .9 3.6m-3.8-7.1c-4.3 0-6.4 2.4-6.4 7.1 0 4.7 2.1 7.1 6.4 7.1 4.3 0 6.4-2.4 6.4-7.1 0-4.7-2.1-7.1-6.4-7.1m-17.7 1.1c0-.7-.4-1.1-1.3-1.1s-1.3.4-1.3 1.1v12c0 .7.4 1.1 1.3 1.1s1.3-.4 1.3-1.1v-5.4h5.9v5.4c0 .7.4 1.1 1.3 1.1s1.3-.4 1.3-1.1v-12c0-.7-.4-1.1-1.3-1.1s-1.3.4-1.3 1.1v4.7h-5.9v-4.7zm-5.7.1c.2-.4.2-.7 0-.9-.2-.2-.6-.3-1.1-.3-.4 0-.7 0-.9.1-.2.1-.4.3-.6.6-.3.5-.7 1.1-1.3 2-.6.9-1 1.6-1.3 2-.3-.5-.8-1.2-1.4-2.1-.6-.9-1-1.5-1.2-1.9-.2-.3-.4-.5-.6-.6-.2-.1-.5-.1-.9-.1-.5 0-.9.1-1.1.3-.2.2-.2.5.1.9l3.7 5.4c-.9 1.3-2.3 3.4-4.3 6.2-.3.4-.3.7-.1 1 .2.2.5.3 1.1.3.4 0 .7 0 .9-.1.2-.1.4-.3.7-.6.4-.5.9-1.4 1.6-2.5.7-1.1 1.3-1.9 1.6-2.5l3.2 5c.2.3.5.6.7.6s.5.1.9.1c.5 0 .9-.1 1.1-.3.2-.2.2-.5 0-.9l-4.4-6.4 3.6-5.3zm-21.6 6.4v-1.3c0-1.1.3-2.1 1-2.9.7-.8 1.6-1.3 2.8-1.3 2.2 0 3.3 1.7 3.3 5s-1.1 5-3.3 5c-1.2 0-2.1-.5-2.8-1.4-.7-.9-1-2-1-3.1m-.2-6.5c0-.7-.4-1.1-1.2-1.1-.8 0-1.3.4-1.3 1.1v16.6c0 .7.4 1.1 1.3 1.1s1.3-.4 1.3-1.1v-5.1c1 1.2 2.3 1.7 3.9 1.7 1.1 0 2-.2 2.8-.6.8-.4 1.4-.9 1.9-1.6.5-.7.8-1.4 1-2.3.2-.8.3-1.7.3-2.8 0-4.8-1.9-7.2-5.7-7.2-1.8 0-3.2.7-4.3 2v-.7zm-15.1 4.5c.1-1 .5-1.9 1.2-2.6.7-.8 1.6-1.1 2.7-1.1 1 0 1.8.3 2.4.9.6.6.9 1.4 1 2.4 0 .3-.1.4-.4.4h-6.9zm9.8-.1c0-1.6-.5-2.9-1.5-3.9-1.1-1.1-2.6-1.7-4.5-1.7-1.2 0-2.2.2-3.1.6-.9.4-1.6 1-2.1 1.7s-.9 1.5-1.1 2.3c-.2.8-.4 1.7-.4 2.6 0 .9.1 1.7.4 2.5.2.8.6 1.6 1.1 2.3.5.7 1.2 1.3 2.1 1.7.9.4 1.9.6 3.1.6s2.3-.2 3.3-.7 1.7-1.2 2-2.1c.1-.3.1-.5-.1-.8-.2-.3-.5-.4-.9-.5-.6-.1-1.1.2-1.5.7-.3.4-.7.8-1.3 1-.6.2-1.1.3-1.6.3-.8 0-1.5-.2-2-.5s-1-.7-1.2-1.2c-.3-.5-.5-1-.6-1.5-.1-.5-.2-1-.2-1.6h7.3c1 0 1.7-.2 2-.5.6-.2.8-.7.8-1.3m-23.7-2.7c0-.2 0-.3.1-.4.1-.1.2-.1.5-.1h3.4c1.3 0 1.9.6 1.9 1.7 0 .6-.2 1.1-.6 1.4-.4.3-.8.5-1.4.5h-4v-3.1zm0 5h4c1.5 0 2.3.7 2.3 2.2 0 1.4-.8 2.1-2.3 2.1h-3.4c-.2 0-.4 0-.5-.1-.1-.1-.1-.2-.1-.4v-3.8zm-.2-7.5c-.5 0-.8.1-1.2.2-.3.1-.5.2-.7.4-.2.1-.3.3-.4.6-.1.3-.1.5-.1.7v10.1c0 .2.1.4.1.7.1.3.2.5.4.6.2.1.4.2.7.4.3.1.7.2 1.2.2h4.8c1.3 0 2.3-.4 3.2-1.1.9-.7 1.3-1.7 1.3-2.8 0-.7-.2-1.4-.6-2-.4-.6-1-1.1-1.7-1.4 1.2-.6 1.8-1.6 1.8-2.9 0-1.1-.4-1.9-1.2-2.5-.8-.6-1.9-.9-3.4-.9h-4.2zm-7.8 6.8c0 1.6-.3 2.8-.9 3.6-.6.8-1.6 1.2-2.8 1.2s-2.2-.4-2.8-1.2c-.6-.8-.9-2-.9-3.6s.3-2.8.9-3.6c.6-.8 1.6-1.2 2.8-1.2s2.2.4 2.8 1.2.9 2 .9 3.6m-3.8-7.1c-4.3 0-6.4 2.4-6.4 7.1 0 4.7 2.1 7.1 6.4 7.1 4.3 0 6.4-2.4 6.4-7.1.1-4.7-2.1-7.1-6.4-7.1m-11.6.3H737c-.5 0-1 .1-1.3.2-.3.1-.6.4-.7.6-.1.3-.2.5-.2.8v11.2c0 .7.4 1.1 1.3 1.1.8 0 1.3-.4 1.3-1.1v-10.4c0-.2 0-.3.1-.4.1-.1.2-.1.4-.1h4.8c.4 0 .6.2.6.5v10.4c0 .7.4 1.1 1.3 1.1.8 0 1.3-.4 1.3-1.1v-11.3c0-.2-.1-.5-.2-.8-.1-.3-.4-.5-.7-.6-.7 0-1.1-.1-1.7-.1m-23.5-4.4c-.5.6-1.3.9-2.1.9s-1.5-.3-2.2-.9c-.3-.4-.7-.5-1.1-.4-.6.3-.7.7-.5 1.2.3.5.7.9 1.4 1.3s1.5.6 2.4.6c.8 0 1.6-.2 2.3-.5.7-.3 1.2-.8 1.5-1.4.3-.5.2-.9-.3-1.1-.6-.2-1.1-.1-1.4.3m1.2 4.6c-4 5.8-6.2 9-6.5 9.6v-9c0-.7-.4-1.1-1.3-1.1s-1.3.4-1.3 1.1v12c0 .7.4 1.1 1.3 1.1.5 0 .9-.2 1.2-.5l5.6-8.2c.3-.4.5-.8.8-1.3v8.9c0 .7.4 1.1 1.3 1.1s1.3-.4 1.3-1.1v-12c0-.7-.4-1.1-1.3-1.1-.6.1-.9.2-1.1.5m-14.5 6.6c0 1.6-.3 2.8-.9 3.6-.6.8-1.6 1.2-2.8 1.2s-2.2-.4-2.8-1.2c-.6-.8-.9-2-.9-3.6s.3-2.8.9-3.6c.6-.8 1.6-1.2 2.8-1.2s2.2.4 2.8 1.2.9 2 .9 3.6m-3.8-7.1c-4.3 0-6.4 2.4-6.4 7.1 0 4.7 2.1 7.1 6.4 7.1 4.3 0 6.4-2.4 6.4-7.1 0-4.7-2.1-7.1-6.4-7.1m-17.5 2.8c0-.2 0-.3.1-.4.1-.1.2-.1.4-.1h3.4c1.3 0 1.9.6 1.9 1.7 0 .6-.2 1.1-.6 1.4-.4.3-.8.5-1.4.5h-4v-3.1zm0 5h4c1.5 0 2.3.7 2.3 2.2 0 1.4-.8 2.1-2.3 2.1h-3.4c-.2 0-.4 0-.4-.1-.1-.1-.1-.2-.1-.4v-3.8zm-.2-7.5c-.5 0-.8.1-1.2.2-.3.1-.5.2-.7.4-.2.1-.3.3-.4.6-.1.3-.1.5-.1.7v10.1c0 .2.1.4.1.7.1.3.2.5.4.6s.4.2.7.4c.3.1.7.2 1.2.2h4.8c1.3 0 2.3-.4 3.2-1.1.9-.7 1.3-1.7 1.3-2.8 0-.7-.2-1.4-.6-2-.4-.6-1-1.1-1.7-1.4 1.2-.6 1.8-1.6 1.8-2.9 0-1.1-.4-1.9-1.2-2.5-.8-.6-1.9-.9-3.4-.9H685zm-15 5.3c.1-1 .5-1.9 1.2-2.6.7-.8 1.6-1.1 2.7-1.1 1 0 1.8.3 2.4.9.6.6.9 1.4 1 2.4 0 .3-.1.4-.4.4H670zm9.7-.1c0-1.6-.5-2.9-1.5-3.9-1.1-1.1-2.6-1.7-4.5-1.7-1.2 0-2.2.2-3.1.6-.9.4-1.6 1-2.1 1.7s-.9 1.5-1.1 2.3c-.2.8-.4 1.7-.4 2.6 0 .9.1 1.7.4 2.5.2.8.6 1.6 1.1 2.3.5.7 1.2 1.3 2.1 1.7.9.4 1.9.6 3.1.6s2.3-.2 3.3-.7c1-.5 1.7-1.2 2-2.1.1-.3.1-.5-.1-.8-.2-.3-.5-.4-.9-.5-.6-.1-1.1.2-1.5.7-.3.4-.7.8-1.3 1-.6.2-1.1.3-1.6.3-.8 0-1.5-.2-2-.5s-1-.7-1.2-1.2-.5-1-.6-1.5c-.1-.5-.2-1-.2-1.6h7.3c1 0 1.7-.2 2-.5.7-.2.8-.7.8-1.3m-19 6.5h-5v-10.9c0-.7-.4-1.1-1.3-1.1s-1.3.4-1.3 1.1v10.9h-4.4c-.2 0-.4 0-.4-.1-.1-.1-.1-.2-.1-.4v-10.4c0-.7-.4-1.1-1.3-1.1s-1.3.4-1.3 1.1v11.3c0 .2.1.5.2.8.1.3.4.5.7.6.3.1.8.2 1.3.2H663c.2 0 .3.1.3.2v1.8c0 .7.4 1.1 1.1 1.1.8 0 1.2-.4 1.2-1.1v-2.3c0-.6-.1-1-.4-1.2-.3-.3-.7-.4-1.3-.4h-.8v-10.9c0-.7-.4-1.1-1.3-1.1s-1.3.4-1.3 1.1v10.8zm-18.8-10.9c0-.7-.4-1.1-1.3-1.1-.5 0-.9.1-1.1.4l-5.5 8c-.6 1-.9 1.5-1 1.6v-8.9c0-.7-.4-1.1-1.3-1.1s-1.3.4-1.3 1.1v12c0 .7.4 1.1 1.3 1.1.5 0 .9-.2 1.2-.5l5.6-8.1.3-.5.6-.9v8.8c0 .7.4 1.1 1.3 1.1s1.3-.4 1.3-1.1v-11.9zm-17.4-.8h-6.4c-.5 0-1 .1-1.3.2-.3.1-.6.4-.7.6s-.2.5-.2.8v11.2c0 .7.4 1.1 1.3 1.1.8 0 1.3-.4 1.3-1.1v-10.4c0-.2 0-.3.1-.4.1-.1.2-.1.4-.1h4.8c.4 0 .6.2.6.5v10.4c0 .7.4 1.1 1.3 1.1.8 0 1.3-.4 1.3-1.1v-11.3c0-.2-.1-.5-.2-.8-.1-.3-.4-.5-.7-.6-.6 0-1.1-.1-1.6-.1m-21.4 5.3c.1-1 .5-1.9 1.2-2.6.7-.8 1.6-1.1 2.7-1.1 1 0 1.8.3 2.4.9.6.6.9 1.4 1 2.4 0 .3-.1.4-.4.4h-6.9zm9.8-.1c0-1.6-.5-2.9-1.5-3.9-1.1-1.1-2.6-1.7-4.5-1.7-1.2 0-2.2.2-3.1.6-.9.4-1.6 1-2.1 1.7s-.9 1.5-1.1 2.3c-.2.8-.4 1.7-.4 2.6 0 .9.1 1.7.4 2.5.2.8.6 1.6 1.1 2.3.5.7 1.2 1.3 2.1 1.7.9.4 1.9.6 3.1.6 1.2 0 2.3-.2 3.3-.7s1.7-1.2 2-2.1c.1-.3.1-.5-.1-.8-.2-.3-.5-.4-.9-.5-.6-.1-1.1.2-1.5.7-.3.4-.7.8-1.3 1s-1.1.3-1.6.3c-.8 0-1.5-.2-2-.5s-1-.7-1.2-1.2c-.3-.5-.5-1-.6-1.5-.1-.5-.2-1-.2-1.6h7.3c1 0 1.7-.2 2-.5.6-.2.8-.7.8-1.3m-23.9-4.4c0-.7-.4-1.1-1.3-1.1s-1.3.4-1.3 1.1v12c0 .7.4 1.1 1.3 1.1s1.3-.4 1.3-1.1v-5.4h5.9v5.4c0 .7.4 1.1 1.3 1.1s1.3-.4 1.3-1.1v-12c0-.7-.4-1.1-1.3-1.1s-1.3.4-1.3 1.1v4.7H589v-4.7zm-19.8 1.2h2.8c.2 0 .4 0 .5.1.1.1.1.2.1.4v3.8h-3.2c-.8 0-1.4-.2-1.9-.6s-.8-.9-.8-1.5c0-.7.2-1.3.7-1.7.4-.3 1.1-.5 1.8-.5m3.4 6.3v4.6c0 .7.4 1.1 1.3 1.1s1.3-.4 1.3-1.1v-10.4c0-.8-.2-1.5-.5-1.9-.3-.4-.9-.6-1.9-.6H569c-1.5 0-2.7.4-3.7 1.1s-1.4 1.8-1.4 3.1c0 .8.3 1.5.8 2.1.5.6 1.2 1.1 2.1 1.3-.6.4-1.1 1.1-1.6 2.2-.6 1.2-1.1 2.1-1.6 2.8-.2.3-.2.5-.1.8.2.3.4.4.8.5.6.1 1.2-.1 1.6-.5.5-.5 1-1.4 1.5-2.8.6-1.6 1.7-2.4 3.4-2.4h1.8zm-12.3 1.6c-.6-.1-1.1.2-1.4.8-.5.9-1.3 1.3-2.4 1.3-2.5 0-3.7-1.7-3.7-5.2 0-3.4 1.2-5.2 3.7-5.2 1.2 0 2.1.5 2.5 1.5.2.5.6.8 1.3.8h.1c.4-.1.7-.2.8-.4.2-.2.2-.5.1-.9-.2-.8-.7-1.5-1.6-2.1s-2-.9-3.3-.9c-4.3 0-6.4 2.4-6.4 7.1 0 4.7 2.1 7.1 6.4 7.1 1.3 0 2.4-.3 3.3-.9.9-.6 1.4-1.2 1.6-1.9.1-.5 0-.8-.2-.9-.1-.1-.4-.2-.8-.2m-19.6-9.9c-.4 0-.8.1-1.1.2-.3.1-.6.3-.7.4-.2.2-.3.4-.4.7-.1.3-.2.5-.2.7s0 .5-.1.8c0 .3-.1.9-.2 2-.2 2.6-.3 4.2-.5 4.9v.2c-.1.6-.2 1.1-.4 1.4-.2.3-.5.4-1 .4-.6 0-.9.4-.9 1.1 0 .3.1.5.3.7.2.2.5.3.9.3 1.1.1 1.9-.2 2.5-.9.6-.7.9-1.6 1.1-2.9.1-1 .3-3.1.5-6.1l.1-1.3c0-.4.3-.6.7-.6h2.7c.4 0 .6.2.6.5v10.4c0 .7.4 1.1 1.3 1.1s1.3-.4 1.3-1.1v-11.1c0-.2-.1-.4-.1-.7-.1-.3-.2-.5-.3-.6-.2-.1-.4-.3-.7-.4-.3-.1-.7-.2-1.1-.2h-4.3zM530 173.6l5.5-13.9c.2-.4.1-.7-.2-.8-.3-.2-.7-.3-1.1-.3-.8 0-1.2.3-1.5 1l-2.9 7.9c-.1.3-.3.6-.4 1-.1-.4-.2-.8-.3-.9l-3.2-7.9c-.3-.6-.7-1-1.5-1-.5 0-.8.1-1.1.3-.3.2-.3.5-.1.8.5 1.4 1.3 3.4 2.4 6 1.1 2.7 1.9 4.7 2.4 6l-.6 1.8c-.2.5-.4.8-.7 1.1-.3.2-.6.3-1.1.2-.9-.2-1.3 0-1.4.8 0 .4 0 .7.2.9s.4.4.7.4c.3.1.7.1 1.1.1.6 0 1.1-.1 1.5-.3.4-.2.8-.5 1.1-.9.3-.4.5-.7.7-1 0-.3.2-.7.5-1.3zm-17.6-14c0-.7-.4-1.1-1.3-1.1s-1.3.4-1.3 1.1v12c0 .7.4 1.1 1.3 1.1s1.3-.4 1.3-1.1v-5.4h5.9v5.4c0 .7.4 1.1 1.3 1.1s1.3-.4 1.3-1.1v-12c0-.7-.4-1.1-1.3-1.1s-1.3.4-1.3 1.1v4.7h-5.9v-4.7zm-6.9 9.1c-.6-.1-1.1.2-1.4.8-.5.9-1.3 1.3-2.4 1.3-2.5 0-3.7-1.7-3.7-5.2 0-3.4 1.2-5.2 3.7-5.2 1.2 0 2.1.5 2.5 1.5.2.5.6.8 1.3.8h.1c.4-.1.7-.2.8-.4.2-.2.2-.5.1-.9-.2-.8-.7-1.5-1.6-2.1-.9-.6-2-.9-3.3-.9-4.3 0-6.4 2.4-6.4 7.1 0 4.7 2.1 7.1 6.4 7.1 1.3 0 2.4-.3 3.3-.9.9-.6 1.4-1.2 1.6-1.9.1-.5 0-.8-.2-.9-.1-.1-.4-.2-.8-.2m-14.8-3.1c0 1.6-.3 2.8-.9 3.6-.6.8-1.6 1.2-2.8 1.2s-2.2-.4-2.8-1.2c-.6-.8-.9-2-.9-3.6s.3-2.8.9-3.6 1.6-1.2 2.8-1.2 2.2.4 2.8 1.2c.6.8.9 2 .9 3.6m-3.8-7.1c-4.3 0-6.4 2.4-6.4 7.1 0 4.7 2.1 7.1 6.4 7.1 4.3 0 6.4-2.4 6.4-7.1 0-4.7-2.1-7.1-6.4-7.1m-18.2-3.3c0-.8-.5-1.2-1.4-1.2-.9 0-1.4.4-1.4 1.2v16.4c0 .8.5 1.1 1.4 1.1.9 0 1.4-.4 1.4-1.1v-8c.8 0 1.5.1 2.1.3.6.2 1.1.5 1.6 1 .4.5.8.9 1.1 1.4.3.5.6 1.1.8 1.8l.3.9c.6 1.6 1.1 2.7 1.6 3.3.4.4.9.5 1.6.4.9-.2 1.2-.6.8-1.3-.5-.8-1.1-2.3-1.8-4.4-.9-2.5-2.4-4.1-4.4-4.6 1.3-.6 2.4-1.6 3.1-2.9l.3-.4c.9-1.5 1.5-2.6 2-3.2.2-.3.4-.6.4-.9 0-.4-.3-.7-.9-.8-.8-.1-1.4.1-1.9.7-.4.4-.9 1.2-1.5 2.4-.3.5-.5.9-.7 1.3-.6.9-1.2 1.6-1.8 2.1-.7.5-1.5.8-2.6.9v-6.4zm197.4 108.9c0-.7-.4-1.1-1.3-1.1-.8 0-1.3.4-1.3 1.1v12c0 .7.4 1.1 1.3 1.1s1.3-.4 1.3-1.1v-12zm-12.4 0c0-.7-.4-1.1-1.3-1.1s-1.3.4-1.3 1.1v11.2c0 .2.1.5.2.8.1.3.4.5.7.6.3.1.8.2 1.3.2h4.1c1.4 0 2.5-.4 3.4-1.2.9-.8 1.4-1.8 1.4-3.1s-.4-2.3-1.3-3.1c-.8-.8-2-1.2-3.4-1.2h-3.9v-4.2zm0 6.3h3.6c1.5 0 2.3.8 2.3 2.3 0 .7-.2 1.3-.6 1.7s-1 .6-1.7.6h-2.9c-.2 0-.4 0-.5-.1-.1-.1-.1-.2-.1-.4v-4.1zm-14.3-7.1c-.6 0-1 .3-1 1s.3 1 1 1h3v10.8c0 .7.4 1.1 1.3 1.1.8 0 1.3-.4 1.3-1.1v-10.8h3.1c.6 0 .9-.3.9-1 0-.6-.3-1-.9-1h-8.7zm-10.3.8c0-.7-.4-1.1-1.3-1.1s-1.3.4-1.3 1.1v12c0 .7.4 1.1 1.3 1.1s1.3-.4 1.3-1.1v-5.6c1.3 0 2.3.2 2.8.7.6.5 1.1 1.4 1.6 2.6l.3.7c.5 1.2.9 2 1.3 2.4.3.3.7.4 1.4.3.8-.1 1-.5.7-1.1l-.4-.9c-.4-.8-.7-1.6-1.1-2.5-.7-1.9-1.8-3.1-3.1-3.5.9-.5 1.6-1.2 2.3-2.1.1-.1.2-.3.3-.4.1-.2.2-.3.3-.6s.2-.4.3-.5c.2-.3.4-.7.8-1.3.5-.8.2-1.2-.8-1.3-.6-.1-1.1.1-1.5.5-.3.4-.6.9-1.1 1.6l-.7 1.1c-.4.7-.9 1.2-1.4 1.6-.5.4-1.2.6-2.1.7v-4.4zm-10.4 14l5.5-13.9c.2-.4.1-.7-.2-.8-.3-.2-.7-.3-1.1-.3-.8 0-1.2.3-1.5 1l-2.9 7.9c-.1.3-.3.6-.4 1-.1-.4-.2-.8-.3-.9l-3.2-7.9c-.3-.6-.7-1-1.5-1-.5 0-.8.1-1.1.3-.3.2-.3.5-.1.8.5 1.4 1.3 3.4 2.4 6s1.9 4.7 2.4 6l-.6 1.8c-.2.5-.4.8-.7 1.1-.3.2-.6.3-1.1.2-.9-.2-1.3 0-1.4.8 0 .4 0 .7.2.9.2.2.4.4.7.4.3.1.7.1 1.1.1.6 0 1.1-.1 1.5-.3s.8-.5 1.1-.9c.3-.4.5-.7.7-1 .1-.3.3-.7.5-1.3zm-16.1-14.8c-1.5 0-2.2.8-2.3 2.5-.1.7-.1 1.3-.1 1.7-.1 2.3-.2 4-.4 4.9-.2 1.3-.6 2-1 2.2-.5.3-.8.5-1 .7-.2.2-.3.6-.3 1.2v2.4c0 .7.4 1.1 1.2 1.1.8 0 1.2-.4 1.2-1.1v-1.8c0-.1.1-.2.3-.2h8.6c.2 0 .3.1.3.2v1.8c0 .7.4 1.1 1.2 1.1s1.2-.4 1.2-1.1v-2.4c0-.4-.1-.8-.4-1.1s-.7-.4-1.2-.5V265c0-.2-.1-.4-.1-.7s-.2-.5-.4-.6c-.2-.1-.4-.2-.7-.4-.3-.1-.7-.2-1.2-.2h-4.9zm-1.2 11.7c.4-.6.6-1.4.8-2.4.2-1.1.3-2.8.5-5.3l.1-1.4c.1-.4.3-.6.6-.6h3.2c.2 0 .4 0 .5.1.1.1.1.2.1.4v9.2h-5.8zm-6.8-4.9c0 1.6-.3 2.8-.9 3.6s-1.6 1.2-2.8 1.2c-1.3 0-2.2-.4-2.8-1.2-.6-.8-.9-2-.9-3.6s.3-2.8.9-3.6c.6-.8 1.6-1.2 2.8-1.2 1.3 0 2.2.4 2.8 1.2s.9 2 .9 3.6m-3.8-7.1c-4.3 0-6.4 2.4-6.4 7.1 0 4.7 2.1 7.1 6.4 7.1 4.3 0 6.4-2.4 6.4-7.1 0-4.7-2.1-7.1-6.4-7.1m-18.2 7.6v-1.3c0-1.1.3-2.1 1-2.9.7-.8 1.6-1.3 2.8-1.3 2.2 0 3.3 1.7 3.3 5s-1.1 5-3.3 5c-1.2 0-2.1-.5-2.8-1.4-.7-.9-1-2-1-3.1m-.2-6.5c0-.7-.4-1.1-1.2-1.1-.8 0-1.3.4-1.3 1.1v16.6c0 .7.4 1.1 1.3 1.1s1.3-.4 1.3-1.1v-5.1c1 1.2 2.3 1.7 3.9 1.7 1.1 0 2-.2 2.8-.6.8-.4 1.4-.9 1.9-1.6.5-.7.8-1.4 1-2.3.2-.8.3-1.7.3-2.8 0-4.8-1.9-7.2-5.7-7.2-1.8 0-3.2.7-4.3 2v-.7zm-8.4-.8h-6.4c-.5 0-1 .1-1.3.2-.3.1-.6.4-.7.6-.1.3-.2.5-.2.8v11.2c0 .7.4 1.1 1.3 1.1.8 0 1.3-.4 1.3-1.1v-10.4c0-.2 0-.3.1-.4.1-.1.2-.1.4-.1h4.8c.4 0 .6.2.6.5v10.4c0 .7.4 1.1 1.3 1.1.8 0 1.3-.4 1.3-1.1v-11.3c0-.3-.1-.5-.2-.8-.1-.3-.4-.5-.7-.6-.6 0-1.1-.1-1.6-.1m-26.6 0c-.4 0-.8.1-1.1.2-.3.1-.6.3-.7.4-.2.2-.3.4-.4.7-.1.3-.2.5-.2.7s0 .5-.1.8c0 .3-.1.9-.2 2-.2 2.6-.3 4.2-.5 4.9v.2c-.1.6-.2 1.1-.4 1.4-.2.3-.5.4-1 .4-.6 0-.9.4-.9 1.1 0 .3.1.5.3.7s.5.3.9.3c1.1.1 1.9-.2 2.5-.9.6-.7.9-1.6 1.1-2.9.1-1 .3-3.1.5-6.1l.1-1.3c0-.4.3-.6.7-.6h2.7c.4 0 .6.2.6.5v10.4c0 .7.4 1.1 1.3 1.1s1.3-.4 1.3-1.1v-11.1c0-.2-.1-.4-.1-.7-.1-.3-.2-.5-.3-.6-.2-.1-.4-.3-.7-.4-.3-.1-.7-.2-1.1-.2h-4.3zm-7.3.8c0-.7-.4-1.1-1.3-1.1-.8 0-1.3.4-1.3 1.1v12c0 .7.4 1.1 1.3 1.1s1.3-.4 1.3-1.1v-12zm-12.4 0c0-.7-.4-1.1-1.3-1.1s-1.3.4-1.3 1.1v11.2c0 .2.1.5.2.8.1.3.4.5.7.6s.8.2 1.3.2h4.1c1.4 0 2.5-.4 3.4-1.2.9-.8 1.4-1.8 1.4-3.1s-.4-2.3-1.3-3.1c-.8-.8-2-1.2-3.4-1.2h-3.9v-4.2zm0 6.3h3.6c1.5 0 2.3.8 2.3 2.3 0 .7-.2 1.3-.6 1.7s-1 .6-1.7.6h-2.9c-.2 0-.4 0-.5-.1-.1-.1-.1-.2-.1-.4v-4.1zm-12.9 3c.5 0 1-.3 1.4-.9l2.6-4.3.4-.7v8.7c0 .7.4 1.1 1.2 1.1.8 0 1.2-.4 1.2-1.1v-12c0-.7-.5-1.1-1.4-1.1-.6 0-1.2.3-1.6.9l-3.8 6.4-3.8-6.4c-.4-.6-.9-.9-1.5-.9-.9 0-1.4.4-1.4 1.1v12c0 .7.4 1.1 1.2 1.1.8 0 1.2-.4 1.2-1.1v-8.7c.1.2.2.5.4.7l1.3 2.2 1.3 2.2c.3.5.8.8 1.3.8m-12.2-3.3c0 1.6-.3 2.8-.9 3.6-.6.8-1.6 1.2-2.8 1.2s-2.2-.4-2.8-1.2c-.6-.8-.9-2-.9-3.6s.3-2.8.9-3.6c.6-.8 1.6-1.2 2.8-1.2s2.2.4 2.8 1.2c.6.8.9 2 .9 3.6m-3.7-7.1c-4.3 0-6.4 2.4-6.4 7.1 0 4.7 2.1 7.1 6.4 7.1 4.3 0 6.4-2.4 6.4-7.1 0-4.7-2.1-7.1-6.4-7.1m-9.3-1.8c0-.8-.2-1.4-.5-1.9-.4-.5-1-.7-2-.7h-8.6c-1 0-1.6.2-2 .7s-.5 1.1-.5 1.9V276c0 .8.5 1.2 1.4 1.2.9 0 1.4-.4 1.4-1.2v-14.5c0-.4.2-.5.6-.5h6.9c.4 0 .6.2.6.5V276c0 .8.5 1.2 1.4 1.2.9 0 1.4-.4 1.4-1.2v-14.8zm-273.3 97.3c0-.7-.4-1.1-1.3-1.1-.5 0-.9.1-1.1.4l-5.5 8c-.6 1-.9 1.5-1 1.6v-8.9c0-.7-.4-1.1-1.3-1.1s-1.3.4-1.3 1.1v12c0 .7.4 1.1 1.3 1.1.5 0 .9-.2 1.2-.5l5.6-8.1.3-.5.6-.9v8.8c0 .7.4 1.1 1.3 1.1s1.3-.4 1.3-1.1v-11.9zm-19.9-.8c-.5 0-.8.1-1.2.2-.3.1-.5.2-.7.4-.2.1-.3.3-.4.6-.1.3-.1.5-.1.7v11.1c0 .7.4 1.1 1.3 1.1s1.3-.4 1.3-1.1v-10.4c0-.3.2-.5.6-.5h4.6c.6 0 1-.3 1-1 0-.6-.3-1-1-1h-5.4zm-13.4 7.1h3.5c1.5 0 2.3.8 2.3 2.3 0 1.5-.8 2.3-2.3 2.3h-2.9c-.4 0-.6-.2-.6-.5v-4.1zm0-6.3c0-.7-.4-1.1-1.3-1.1s-1.3.4-1.3 1.1v11.1c0 .2.1.4.1.7s.2.5.4.6c.2.1.4.2.7.4.3.1.7.2 1.2.2h4.1c1.4 0 2.5-.4 3.4-1.2s1.4-1.8 1.4-3.1-.4-2.3-1.3-3.1c-.8-.8-2-1.2-3.4-1.2h-4v-4.4zm-14.7 0c0-.7-.4-1.1-1.3-1.1s-1.3.4-1.3 1.1v12c0 .7.4 1.1 1.3 1.1s1.3-.4 1.3-1.1v-5.4h5.9v5.4c0 .7.4 1.1 1.3 1.1s1.3-.4 1.3-1.1v-12c0-.7-.4-1.1-1.3-1.1s-1.3.4-1.3 1.1v4.7h-5.9v-4.7zm-15.2 4.4c.1-1 .5-1.9 1.2-2.6.7-.8 1.6-1.1 2.7-1.1 1 0 1.8.3 2.4.9.6.6.9 1.4 1 2.4 0 .3-.1.4-.4.4h-6.9zm9.8 0c0-1.6-.5-2.9-1.5-3.9-1.1-1.1-2.6-1.7-4.5-1.7-1.2 0-2.2.2-3.1.6-.9.4-1.6 1-2.1 1.7s-.9 1.5-1.1 2.3-.4 1.7-.4 2.6c0 .9.1 1.7.4 2.5.2.8.6 1.6 1.1 2.3.5.7 1.2 1.3 2.1 1.7.9.4 1.9.6 3.1.6 1.2 0 2.3-.2 3.3-.7 1-.5 1.7-1.2 2-2.1.1-.3.1-.5-.1-.8-.2-.3-.5-.4-.9-.5-.6-.1-1.1.2-1.5.7-.3.4-.7.8-1.3 1s-1.1.3-1.6.3c-.8 0-1.5-.2-2-.5s-1-.7-1.2-1.2c-.3-.5-.5-1-.6-1.5s-.2-1-.2-1.6h7.3c1 0 1.7-.2 2-.5s.8-.7.8-1.3m-22.5-5.2c-1.5 0-2.2.8-2.3 2.5-.1.7-.1 1.3-.1 1.7-.1 2.3-.2 4-.4 4.9-.2 1.3-.6 2-1 2.2-.5.3-.8.5-1 .7-.2.2-.3.6-.3 1.2v2.4c0 .7.4 1.1 1.2 1.1s1.2-.4 1.2-1.1v-1.8c0-.1.1-.2.3-.2h8.6c.2 0 .3.1.3.2v1.8c0 .7.4 1.1 1.2 1.1.8 0 1.2-.4 1.2-1.1V371c0-.4-.1-.8-.4-1.1s-.7-.4-1.2-.5v-9.9c0-.2-.1-.4-.1-.7-.1-.3-.2-.5-.4-.6s-.4-.2-.7-.4c-.3-.1-.7-.2-1.2-.2h-4.9zm-1.2 11.7c.4-.6.6-1.4.8-2.4.2-1.1.3-2.8.5-5.3l.1-1.4c.1-.4.3-.6.6-.6h3.2c.2 0 .4 0 .5.1s.1.2.1.4v9.2h-5.8zm-19.9-11.7c-.4 0-.8.1-1.1.2-.3.1-.6.3-.7.4s-.3.4-.4.7c-.1.3-.2.5-.2.7 0 .2 0 .5-.1.8 0 .3-.1.9-.2 2-.2 2.6-.3 4.2-.5 4.9v.2c-.1.6-.2 1.1-.4 1.4-.2.3-.5.4-1 .4-.6 0-.9.4-.9 1.1 0 .3.1.5.3.7s.5.3.9.3c1.1.1 1.9-.2 2.5-.9.6-.7.9-1.6 1.1-2.9.1-1 .3-3.1.5-6.1l.1-1.3c0-.4.3-.6.7-.6h2.7c.4 0 .6.2.6.5v10.4c0 .7.4 1.1 1.3 1.1s1.3-.4 1.3-1.1v-11.1c0-.2-.1-.4-.1-.7s-.2-.5-.3-.6c-.2-.1-.4-.3-.7-.4-.3-.1-.7-.2-1.1-.2h-4.3zm-10.9 10.8c-.8.9-1.9 1.3-3.2 1.3-.7 0-1.3-.2-1.8-.6-.5-.4-.7-.9-.7-1.6 0-.6.2-1.1.5-1.5.3-.4.7-.7 1.2-.9.5-.2 1-.4 1.6-.4.5-.1 1.1-.1 1.7-.1.4 0 1.1 0 1.8.1.2 1.5-.2 2.7-1.1 3.7m1.4 2c.1.7.6 1 1.5.9.7-.1 1-.5.9-1.2-.1-.4-.1-1-.1-1.6V363c0-1.9-.4-3.3-1.3-4.2-.9-.9-2.3-1.4-4.3-1.4-2.2 0-3.8.4-4.9 1.3-.4.3-.6.6-.6.9 0 .3.1.5.4.7.3.2.6.3.9.3.3 0 .6-.1.8-.3.8-.6 1.8-.9 3-.9 1.7 0 2.8.5 3.2 1.4.2.5.2 1.2.2 2.1h-1.7c-5.2 0-7.9 1.6-7.9 4.8 0 1.3.4 2.4 1.3 3.1.9.7 2 1.1 3.4 1.1 2.1 0 3.7-.8 4.8-2.3.2-.1.3.3.4.9m-20.2-12.8c-.6 0-1 .3-1 1s.3 1 1 1h3v10.8c0 .7.4 1.1 1.3 1.1.8 0 1.3-.4 1.3-1.1v-10.8h3.1c.6 0 .9-.3.9-1 0-.6-.3-1-.9-1h-8.7zm-3.2.8c0-.7-.4-1.1-1.3-1.1-.5 0-.9.1-1.1.4l-5.5 8c-.6 1-.9 1.5-1 1.6v-8.9c0-.7-.4-1.1-1.3-1.1s-1.3.4-1.3 1.1v12c0 .7.4 1.1 1.3 1.1.5 0 .9-.2 1.2-.5L73 363l.3-.5.6-.9v8.8c0 .7.4 1.1 1.3 1.1s1.3-.4 1.3-1.1v-11.9zm-15.1 0c0-.7-.4-1.1-1.3-1.1s-1.3.4-1.3 1.1v4.2c0 .6-.3 1.1-.8 1.6-.5.4-1.3.6-2.3.6-.9 0-1.5-.2-1.8-.6-.3-.4-.5-1.1-.5-2.1v-3.7c0-.7-.4-1.1-1.3-1.1s-1.3.4-1.3 1.1v4.3c0 2.6 1.5 4 4.6 4 1.4 0 2.5-.3 3.3-.9v4.7c0 .7.4 1.1 1.3 1.1.8 0 1.3-.4 1.3-1.1v-12.1zm-13.6 6.8c-.4 0-.7.1-.9.2s-.4.4-.4.7c-.5 1.9-1.9 2.8-4.3 2.8-.9 0-1.7-.1-2.4-.4-.7-.3-1.2-.6-1.6-1-.4-.4-.7-.9-.9-1.6-.2-.6-.4-1.3-.4-1.8-.1-.6-.1-1.3-.1-2s0-1.4.1-2c.1-.6.2-1.2.4-1.8.2-.6.5-1.2.9-1.6s.9-.8 1.6-1.1c.7-.3 1.5-.4 2.4-.4.6 0 1.2.1 1.8.3.6.2 1.1.5 1.6.9s.8 1 .9 1.7c.1.6.6.9 1.4.9.5-.1.8-.2 1.1-.4.2-.2.2-.4.2-.7-.2-1.7-1-2.9-2.4-3.8-1.4-.9-2.9-1.3-4.5-1.3-2.7 0-4.8.8-6.2 2.4-1.4 1.6-2.1 4-2.1 7.1 0 3.1.7 5.4 2.1 7 1.4 1.6 3.5 2.4 6.2 2.4 1.8 0 3.3-.5 4.6-1.5 1.3-1 2.1-2.2 2.3-3.7 0-.3 0-.5-.2-.7-.4-.4-.7-.6-1.2-.6M729 224.7l5.5-13.9c.2-.4.1-.7-.2-.8-.3-.2-.7-.3-1.1-.3-.8 0-1.2.3-1.5 1l-2.9 7.9c-.1.3-.3.6-.4 1-.1-.4-.2-.8-.3-.9l-3.2-7.9c-.3-.6-.7-1-1.5-1-.5 0-.8.1-1.1.3-.3.2-.3.5-.1.8.5 1.4 1.3 3.4 2.4 6 1.1 2.7 1.9 4.7 2.4 6l-.6 1.8c-.2.5-.4.8-.7 1.1s-.6.3-1.1.2c-.9-.2-1.3 0-1.4.8 0 .4 0 .7.2.9s.4.4.7.4c.3.1.7.1 1.1.1.6 0 1.1-.1 1.5-.3.4-.2.8-.5 1.1-.9.3-.4.5-.7.7-1 .1-.4.3-.8.5-1.3zm-16.2-14.1c0-.7-.4-1.1-1.3-1.1s-1.3.4-1.3 1.1v12c0 .7.4 1.1 1.3 1.1s1.3-.4 1.3-1.1V217c1.3 0 2.3.2 2.8.7.6.5 1.1 1.4 1.6 2.6l.3.7c.5 1.2.9 2 1.3 2.4.3.3.7.4 1.4.3.8-.1 1-.5.7-1.1l-.4-.9c-.4-.8-.7-1.6-1.1-2.5-.7-1.9-1.8-3.1-3.1-3.5.9-.5 1.6-1.2 2.3-2.1.1-.1.2-.3.3-.4.1-.2.2-.3.3-.6.1-.2.2-.4.3-.5.2-.3.4-.7.8-1.3.5-.8.2-1.2-.8-1.3-.6-.1-1.1.1-1.5.5-.3.4-.6.9-1.1 1.6l-.7 1.1c-.4.7-.9 1.2-1.4 1.6-.5.4-1.2.6-2.1.7v-4.4zm-10.3 14.1l5.5-13.9c.2-.4.1-.7-.2-.8-.3-.2-.7-.3-1.1-.3-.8 0-1.2.3-1.5 1l-2.9 7.9c-.1.3-.3.6-.4 1-.1-.4-.2-.8-.3-.9l-3.2-7.9c-.3-.6-.7-1-1.5-1-.5 0-.8.1-1.1.3-.3.2-.3.5-.1.8.5 1.4 1.3 3.4 2.4 6 1.1 2.7 1.9 4.7 2.4 6l-.6 1.8c-.2.5-.4.8-.7 1.1-.3.2-.6.3-1.1.2-.9-.2-1.3 0-1.4.8 0 .4 0 .7.2.9s.4.4.7.4c.3.1.7.1 1.1.1.6 0 1.1-.1 1.5-.3.4-.2.8-.5 1.1-.9.3-.4.5-.7.7-1 0-.4.2-.8.5-1.3zm-17.7-7.6v-1.3c0-1.1.3-2.1 1-2.9.7-.8 1.6-1.3 2.8-1.3 2.2 0 3.3 1.7 3.3 5s-1.1 5-3.3 5c-1.2 0-2.1-.5-2.8-1.4-.6-.9-1-1.9-1-3.1m-.1-6.5c0-.7-.4-1.1-1.2-1.1-.8 0-1.3.4-1.3 1.1v16.6c0 .7.4 1.1 1.3 1.1s1.3-.4 1.3-1.1v-5.1c1 1.2 2.3 1.7 3.9 1.7 1.1 0 2-.2 2.8-.6.8-.4 1.4-.9 1.9-1.6.5-.7.8-1.4 1-2.3.2-.8.3-1.7.3-2.8 0-4.8-1.9-7.2-5.7-7.2-1.8 0-3.2.7-4.3 2v-.7zm-17.3 10c-.8.9-1.9 1.3-3.2 1.3-.7 0-1.3-.2-1.8-.6-.5-.4-.7-.9-.7-1.6 0-.6.2-1.1.5-1.5.3-.4.7-.7 1.2-.9s1-.4 1.6-.4c.5-.1 1.1-.1 1.7-.1.4 0 1.1 0 1.8.1.2 1.5-.2 2.7-1.1 3.7m1.4 2.1c.1.7.6 1 1.5.9.7-.1 1-.5.9-1.2-.1-.4-.1-1-.1-1.6v-5.6c0-1.9-.4-3.3-1.3-4.2-.9-.9-2.3-1.4-4.3-1.4-2.2 0-3.8.4-4.9 1.3-.4.3-.6.6-.6.9 0 .3.1.5.4.7.3.2.6.3.9.3.3 0 .6-.1.8-.3.8-.6 1.8-.9 3-.9 1.7 0 2.8.5 3.2 1.4.2.5.2 1.2.2 2.1h-1.7c-5.2 0-7.9 1.6-7.9 4.8 0 1.3.4 2.4 1.3 3.1.9.7 2 1.1 3.4 1.1 2.1 0 3.7-.8 4.8-2.3.2-.2.3.2.4.9m-14.1-6.5c1.5-.7 2.3-1.7 2.3-3.1 0-.9-.3-1.6-.8-2.2-.5-.6-1.2-1-1.9-1.2-.7-.2-1.5-.3-2.4-.3-1.3 0-2.5.3-3.5.8-1 .6-1.6 1.4-1.8 2.5 0 .2 0 .4.2.6.2.3.6.4 1.1.4.6 0 1-.3 1.1-.8.1-1.1 1.1-1.6 2.9-1.6.8 0 1.4.2 1.8.5.4.4.7.8.7 1.4 0 1.4-1 2.1-3.1 2.1-.8 0-1.2.3-1.2.9 0 .7.3 1 1 1h.5c.4 0 .9 0 1.3.1s.8.3 1.3.6c.4.4.6.8.6 1.4 0 .8-.3 1.4-.8 1.8-.5.4-1.2.7-2.1.7-.2 0-.5 0-.8-.1-.3-.1-.6-.1-.9-.3-.3-.1-.6-.3-.8-.6-.2-.3-.4-.6-.4-.9-.1-.6-.5-.9-1.2-.9-.5 0-.8.1-1.1.4-.2.2-.2.4-.2.7.2.8.6 1.5 1.2 2.1.6.5 1.3.9 2 1.1s1.5.3 2.3.3c1.7 0 3-.4 4-1.2 1-.8 1.5-1.8 1.5-3.2-.1-1.3-1-2.4-2.8-3m-24.6-4.4h2.8c.2 0 .4 0 .5.1.1.1.1.2.1.4v3.8h-3.2c-.8 0-1.4-.2-1.9-.6-.5-.4-.8-.9-.8-1.5 0-.7.2-1.3.7-1.7.5-.3 1.1-.5 1.8-.5m3.4 6.3v4.6c0 .7.4 1.1 1.3 1.1s1.3-.4 1.3-1.1v-10.4c0-.8-.2-1.5-.5-1.9s-.9-.6-1.9-.6h-3.8c-1.5 0-2.7.4-3.7 1.1-.9.7-1.4 1.8-1.4 3.1 0 .8.3 1.5.8 2.1s1.2 1.1 2.1 1.3c-.6.4-1.1 1.1-1.6 2.2-.6 1.2-1.1 2.1-1.6 2.8-.2.3-.2.5-.1.8.2.3.4.4.8.5.6.1 1.2-.1 1.6-.5.5-.5 1-1.4 1.5-2.8.6-1.6 1.7-2.4 3.4-2.4h1.8zm-12.3 1.6c-.6-.1-1.1.2-1.4.8-.5.9-1.3 1.3-2.4 1.3-2.5 0-3.7-1.7-3.7-5.2s1.2-5.2 3.7-5.2c1.2 0 2.1.5 2.5 1.5.2.5.6.8 1.3.8h.1c.4-.1.7-.2.8-.4.2-.2.2-.5.1-.9-.2-.8-.7-1.5-1.6-2.1-.9-.6-2-.9-3.3-.9-4.3 0-6.4 2.4-6.4 7.1 0 4.7 2.1 7.1 6.4 7.1 1.3 0 2.4-.3 3.3-.9.9-.6 1.4-1.2 1.6-1.9.1-.5 0-.8-.2-.9-.1-.1-.4-.2-.8-.2m-19.6-9.9c-.4 0-.8.1-1.1.2-.3.1-.6.3-.7.4-.2.2-.3.4-.4.7-.1.3-.2.5-.2.7s0 .5-.1.8c0 .3-.1.9-.2 2-.2 2.6-.3 4.2-.5 4.9v.2c-.1.6-.2 1.1-.4 1.4-.2.3-.5.4-1 .4-.6 0-.9.4-.9 1.1 0 .3.1.5.3.7s.5.3.9.3c1.1.1 1.9-.2 2.5-.9.6-.7.9-1.6 1.1-2.9.1-1 .3-3.1.5-6.1l.1-1.3c0-.4.3-.6.7-.6h2.7c.4 0 .6.2.6.5v10.4c0 .7.4 1.1 1.3 1.1s1.3-.4 1.3-1.1v-11.1c0-.2-.1-.4-.1-.7-.1-.3-.2-.5-.3-.6-.2-.1-.4-.3-.7-.4-.3-.1-.7-.2-1.1-.2h-4.3zm-10.9 10.8c-.8.9-1.9 1.3-3.2 1.3-.7 0-1.3-.2-1.8-.6-.5-.4-.7-.9-.7-1.6 0-.6.2-1.1.5-1.5.3-.4.7-.7 1.2-.9s1-.4 1.6-.4c.5-.1 1.1-.1 1.7-.1.4 0 1.1 0 1.8.1.2 1.5-.2 2.7-1.1 3.7m1.4 2.1c.1.7.6 1 1.5.9.7-.1 1-.5.9-1.2-.1-.4-.1-1-.1-1.6v-5.6c0-1.9-.4-3.3-1.3-4.2-.9-.9-2.3-1.4-4.3-1.4-2.2 0-3.8.4-4.9 1.3-.4.3-.6.6-.6.9 0 .3.1.5.4.7.3.2.6.3.9.3s.6-.1.8-.3c.8-.6 1.8-.9 3-.9 1.7 0 2.8.5 3.2 1.4.2.5.2 1.2.2 2.1h-1.7c-5.2 0-7.9 1.6-7.9 4.8 0 1.3.4 2.4 1.3 3.1.9.7 2 1.1 3.4 1.1 2.1 0 3.7-.8 4.8-2.3.2-.2.2.2.4.9m-20.5-10.4c0-.2 0-.3.1-.4.1-.1.2-.1.4-.1h3.4c1.3 0 1.9.6 1.9 1.7 0 .6-.2 1.1-.6 1.4s-.8.5-1.4.5h-4v-3.1zm0 5h4c1.5 0 2.3.7 2.3 2.2 0 1.4-.8 2.1-2.3 2.1h-3.4c-.2 0-.4 0-.4-.1-.1-.1-.1-.2-.1-.4v-3.8zm-.3-7.5c-.5 0-.8.1-1.2.2-.3.1-.5.2-.7.4-.2.1-.3.3-.4.6s-.1.5-.1.7v10.1c0 .2.1.4.1.7.1.3.2.5.4.6.2.1.4.2.7.4.3.1.7.2 1.2.2h4.8c1.3 0 2.3-.4 3.2-1.1.9-.7 1.3-1.7 1.3-2.8 0-.7-.2-1.4-.6-2s-1-1.1-1.7-1.4c1.2-.6 1.8-1.6 1.8-2.9 0-1.1-.4-1.9-1.2-2.5-.8-.6-1.9-.9-3.4-.9h-4.2zm-7.7 6.8c0 1.6-.3 2.8-.9 3.6-.6.8-1.6 1.2-2.8 1.2-1.3 0-2.2-.4-2.8-1.2-.6-.8-.9-2-.9-3.6s.3-2.8.9-3.6c.6-.8 1.6-1.2 2.8-1.2 1.3 0 2.2.4 2.8 1.2.5.8.9 2 .9 3.6m-3.8-7.1c-4.3 0-6.4 2.4-6.4 7.1 0 4.7 2.1 7.1 6.4 7.1 4.3 0 6.4-2.4 6.4-7.1 0-4.7-2.1-7.1-6.4-7.1m-18.3 7.6v-1.3c0-1.1.3-2.1 1-2.9.7-.8 1.6-1.3 2.8-1.3 2.2 0 3.3 1.7 3.3 5s-1.1 5-3.3 5c-1.2 0-2.1-.5-2.8-1.4-.7-.9-1-1.9-1-3.1m-.1-6.5c0-.7-.4-1.1-1.2-1.1-.8 0-1.3.4-1.3 1.1v16.6c0 .7.4 1.1 1.3 1.1s1.3-.4 1.3-1.1v-5.1c1 1.2 2.3 1.7 3.9 1.7 1.1 0 2-.2 2.8-.6.8-.4 1.4-.9 1.9-1.6.5-.7.8-1.4 1-2.3.2-.8.3-1.7.3-2.8 0-4.8-1.9-7.2-5.7-7.2-1.8 0-3.2.7-4.3 2v-.7zm-7.9 6c0 1.6-.3 2.8-.9 3.6-.6.8-1.6 1.2-2.8 1.2-1.3 0-2.2-.4-2.8-1.2-.6-.8-.9-2-.9-3.6s.3-2.8.9-3.6c.6-.8 1.6-1.2 2.8-1.2 1.3 0 2.2.4 2.8 1.2.6.8.9 2 .9 3.6m-3.8-7.1c-4.3 0-6.4 2.4-6.4 7.1 0 4.7 2.1 7.1 6.4 7.1 4.3 0 6.4-2.4 6.4-7.1 0-4.7-2.1-7.1-6.4-7.1m-16.2.3c-1.5 0-2.2.8-2.3 2.5-.1.7-.1 1.3-.1 1.7-.1 2.3-.2 4-.4 4.9-.2 1.3-.6 2-1 2.2-.5.3-.8.5-1 .7s-.3.6-.3 1.2v2.4c0 .7.4 1.1 1.2 1.1.8 0 1.2-.4 1.2-1.1v-1.8c0-.1.1-.2.3-.2h8.6c.2 0 .3.1.3.2v1.8c0 .7.4 1.1 1.2 1.1.8 0 1.2-.4 1.2-1.1V223c0-.4-.1-.8-.4-1.1s-.7-.4-1.2-.5v-9.9c0-.2-.1-.4-.1-.7s-.2-.5-.4-.6c-.2-.1-.4-.2-.7-.4-.3-.1-.7-.2-1.2-.2h-4.9zm-1.3 11.7c.4-.6.6-1.4.8-2.4.2-1.1.3-2.8.5-5.3l.1-1.4c.1-.4.3-.6.6-.6h3.2c.2 0 .4 0 .5.1s.1.2.1.4v9.2h-5.8zm-6.8-5.3c1.5-.7 2.3-1.7 2.3-3.1 0-.9-.3-1.6-.8-2.2-.5-.6-1.2-1-1.9-1.2-.7-.2-1.5-.3-2.4-.3-1.3 0-2.5.3-3.5.8-1 .6-1.6 1.4-1.8 2.5 0 .2 0 .4.2.6.2.3.6.4 1.1.4.6 0 1-.3 1.1-.8.1-1.1 1.1-1.6 2.9-1.6.8 0 1.4.2 1.8.5.4.4.7.8.7 1.4 0 1.4-1 2.1-3.1 2.1-.8 0-1.2.3-1.2.9 0 .7.3 1 1 1h.5c.4 0 .9 0 1.3.1s.8.3 1.3.6c.4.4.6.8.6 1.4 0 .8-.3 1.4-.8 1.8-.5.4-1.2.7-2.1.7-.2 0-.5 0-.8-.1-.3-.1-.6-.1-.9-.3-.3-.1-.6-.3-.8-.6-.2-.3-.4-.6-.4-.9-.1-.6-.5-.9-1.2-.9-.5 0-.8.1-1.1.4-.2.2-.2.4-.2.7.2.8.6 1.5 1.2 2.1.6.5 1.3.9 2 1.1.7.2 1.5.3 2.3.3 1.7 0 3-.4 4-1.2 1-.8 1.5-1.8 1.5-3.2-.1-1.3-1-2.4-2.8-3m-12.8.4c0 1.6-.3 2.8-.9 3.6-.6.8-1.6 1.2-2.8 1.2s-2.2-.4-2.8-1.2c-.6-.8-.9-2-.9-3.6s.3-2.8.9-3.6c.6-.8 1.6-1.2 2.8-1.2s2.2.4 2.8 1.2c.6.8.9 2 .9 3.6m-3.7-7.1c-4.3 0-6.4 2.4-6.4 7.1 0 4.7 2.1 7.1 6.4 7.1 4.3 0 6.4-2.4 6.4-7.1 0-4.7-2.1-7.1-6.4-7.1m-9.3-1.8c0-.8-.2-1.4-.5-1.9-.4-.5-1-.7-2-.7h-8.6c-1 0-1.6.2-2 .7s-.5 1.1-.5 1.9v14.8c0 .8.5 1.2 1.4 1.2.9 0 1.4-.4 1.4-1.2V208c0-.4.2-.5.6-.5h6.9c.4 0 .6.2.6.5v14.5c0 .8.5 1.2 1.4 1.2.9 0 1.4-.4 1.4-1.2v-14.8zm161.3 113.5c-.4 0-.7.1-.9.2s-.4.4-.4.7c-.5 1.9-1.9 2.8-4.3 2.8-.9 0-1.7-.1-2.4-.4s-1.2-.6-1.6-1-.7-.9-.9-1.6c-.2-.6-.4-1.3-.4-1.8-.1-.6-.1-1.3-.1-2s0-1.4.1-2c.1-.6.2-1.2.4-1.8.2-.6.5-1.2.9-1.6s.9-.8 1.6-1.1 1.5-.4 2.4-.4c.6 0 1.2.1 1.8.3.6.2 1.1.5 1.6.9s.8 1 .9 1.7c.1.6.6.9 1.4.9.5-.1.8-.2 1.1-.4.2-.2.2-.4.2-.7-.2-1.7-1-2.9-2.4-3.8-1.4-.9-2.9-1.3-4.5-1.3-2.7 0-4.8.8-6.2 2.4-1.4 1.6-2.1 4-2.1 7.1 0 3.1.7 5.4 2.1 7 1.4 1.6 3.5 2.4 6.2 2.4 1.8 0 3.3-.5 4.6-1.5 1.3-1 2.1-2.2 2.3-3.7 0-.3 0-.5-.2-.7-.4-.5-.8-.6-1.2-.6m-24.6 0c.6 0 1-.3 1.4-1l3.4-5.9.4-.8v12.9c0 .8.4 1.1 1.3 1.1.8 0 1.2-.4 1.2-1.2V310c0-.8-.5-1.2-1.4-1.2-.8 0-1.3.4-1.7 1.1l-4.7 8.2-4.7-8.2c-.2-.4-.5-.7-.7-.8s-.6-.2-1-.2c-.9 0-1.4.4-1.4 1.2v16.3c0 .8.4 1.2 1.2 1.2.9 0 1.3-.4 1.3-1.1v-12.9l.4.8 3.4 5.9c.5.5 1 .9 1.6.9m-11.8 0c-.4 0-.7.1-.9.2-.3.2-.4.4-.4.7-.5 1.9-1.9 2.8-4.3 2.8-.9 0-1.7-.1-2.4-.4-.7-.3-1.2-.6-1.6-1-.4-.4-.7-.9-.9-1.6-.2-.6-.4-1.3-.4-1.8s-.1-1.3-.1-2 0-1.4.1-2 .2-1.2.4-1.8c.2-.6.5-1.2.9-1.6a5 5 0 011.6-1.1c.7-.3 1.5-.4 2.4-.4.6 0 1.2.1 1.8.3.6.2 1.1.5 1.6.9s.8 1 .9 1.7c.1.6.6.9 1.4.9.5-.1.8-.2 1.1-.4.2-.2.2-.4.2-.7-.2-1.7-1-2.9-2.4-3.8-1.4-.9-2.9-1.3-4.5-1.3-2.7 0-4.8.8-6.2 2.4-1.4 1.6-2.1 4-2.1 7.1 0 3.1.7 5.4 2.1 7 1.4 1.6 3.5 2.4 6.2 2.4 1.8 0 3.3-.5 4.6-1.5 1.3-1 2.1-2.2 2.3-3.7 0-.3 0-.5-.2-.7-.4-.5-.8-.6-1.2-.6m-30.9-7.6c-.4 0-.8.1-1.1.2-.3.1-.6.3-.7.4-.2.2-.3.4-.4.7-.1.3-.2.5-.2.7 0 .2 0 .5-.1.8 0 .3-.1.9-.2 2-.2 2.6-.3 4.2-.5 4.9v.2c-.1.6-.2 1.1-.4 1.4s-.5.4-1 .4c-.6 0-.9.4-.9 1.1 0 .3.1.5.3.7s.5.3.9.3c1.1.1 1.9-.2 2.5-.9.6-.7.9-1.6 1.1-2.9.1-1 .3-3.1.5-6.1l.1-1.3c0-.4.3-.6.7-.6h2.7c.4 0 .6.2.6.5v10.4c0 .7.4 1.1 1.3 1.1s1.3-.4 1.3-1.1v-11.1c0-.2-.1-.4-.1-.7-.1-.3-.2-.5-.3-.6-.2-.1-.4-.3-.7-.4-.3-.1-.7-.2-1.1-.2h-4.3zm-7.4.8c0-.7-.4-1.1-1.3-1.1-.5 0-.9.1-1.1.4l-5.5 8c-.6 1-.9 1.5-1 1.6v-8.9c0-.7-.4-1.1-1.3-1.1s-1.3.4-1.3 1.1v12c0 .7.4 1.1 1.3 1.1.5 0 .9-.2 1.2-.5l5.6-8.1.3-.5.6-.9v8.8c0 .7.4 1.1 1.3 1.1s1.3-.4 1.3-1.1v-11.9zm-23.3 1.6c0-.2 0-.3.1-.4s.2-.1.4-.1h3.4c1.3 0 1.9.6 1.9 1.7 0 .6-.2 1.1-.6 1.4-.4.3-.8.5-1.4.5h-4V316zm0 5h4c1.5 0 2.3.7 2.3 2.2 0 1.4-.8 2.1-2.3 2.1h-3.4c-.2 0-.4 0-.4-.1s-.1-.2-.1-.4V321zm-.2-7.4c-.5 0-.8.1-1.2.2-.3.1-.5.2-.7.4-.2.1-.3.3-.4.6-.1.3-.1.5-.1.7v10.1c0 .2.1.4.1.7.1.3.2.5.4.6s.4.2.7.4.7.2 1.2.2h4.8c1.3 0 2.3-.4 3.2-1.1.9-.7 1.3-1.7 1.3-2.8 0-.7-.2-1.4-.6-2-.4-.6-1-1.1-1.7-1.4 1.2-.6 1.8-1.6 1.8-2.9 0-1.1-.4-1.9-1.2-2.5s-1.9-.9-3.4-.9h-4.2zm-9.6 10.7c-.8.9-1.9 1.3-3.2 1.3-.7 0-1.3-.2-1.8-.6-.5-.4-.7-.9-.7-1.6 0-.6.2-1.1.5-1.5.3-.4.7-.7 1.2-.9.5-.2 1-.4 1.6-.4.5-.1 1.1-.1 1.7-.1.4 0 1.1 0 1.8.1.2 1.5-.2 2.8-1.1 3.7m1.4 2.1c.1.7.6 1 1.5.9.7-.1 1-.5.9-1.2-.1-.4-.1-1-.1-1.6v-5.6c0-1.9-.4-3.3-1.3-4.2s-2.3-1.4-4.3-1.4c-2.2 0-3.8.4-4.9 1.3-.4.3-.6.6-.6.9s.1.5.4.7c.3.2.6.3.9.3.3 0 .6-.1.8-.3.8-.6 1.8-.9 3-.9 1.7 0 2.8.5 3.2 1.4.2.5.2 1.2.2 2.1h-1.7c-5.2 0-7.9 1.6-7.9 4.8 0 1.3.4 2.4 1.3 3.1.9.7 2 1.1 3.4 1.1 2.1 0 3.7-.8 4.8-2.3.2-.1.3.3.4.9m-21.3-5.5v-1.3c0-1.1.3-2.1 1-2.9s1.6-1.3 2.8-1.3c2.2 0 3.3 1.7 3.3 5s-1.1 5-3.3 5c-1.2 0-2.1-.5-2.8-1.4-.7-.9-1-2-1-3.1m-.1-6.5c0-.7-.4-1.1-1.2-1.1-.8 0-1.3.4-1.3 1.1V331c0 .7.4 1.1 1.3 1.1s1.3-.4 1.3-1.1v-5.1c1 1.2 2.3 1.7 3.9 1.7 1.1 0 2-.2 2.8-.6s1.4-.9 1.9-1.6c.5-.7.8-1.4 1-2.3.2-.8.3-1.7.3-2.8 0-4.8-1.9-7.2-5.7-7.2-1.8 0-3.2.7-4.3 2v-.7zm-8.5-.8h-6.4c-.5 0-1 .1-1.3.2-.3.1-.6.4-.7.6-.1.3-.2.5-.2.8v11.2c0 .7.4 1.1 1.3 1.1.8 0 1.3-.4 1.3-1.1V316c0-.2 0-.3.1-.4.1-.1.2-.1.4-.1h4.8c.4 0 .6.2.6.5v10.4c0 .7.4 1.1 1.3 1.1.8 0 1.3-.4 1.3-1.1v-11.3c0-.2-.1-.5-.2-.8-.1-.3-.4-.5-.7-.6-.6 0-1-.1-1.6-.1m-20.5 0c-.6 0-1 .3-1 1s.3 1 1 1h3v10.8c0 .7.4 1.1 1.3 1.1.8 0 1.3-.4 1.3-1.1v-10.8h3.1c.6 0 .9-.3.9-1 0-.6-.3-1-.9-1h-8.7zm-5.2 4.5c0 2.3-.4 4.1-1.3 5.2-.9 1.1-2.2 1.7-4.1 1.7-1.8 0-3.2-.6-4.1-1.7s-1.3-2.9-1.3-5.2c0-2.4.4-4.1 1.3-5.3.9-1.1 2.2-1.7 4.1-1.7 1.8 0 3.2.6 4.1 1.7.8 1.2 1.3 2.9 1.3 5.3m.9-6.8c-1.4-1.8-3.5-2.7-6.3-2.7s-4.9.9-6.3 2.7c-1.3 1.6-2 3.9-2 6.8 0 3 .7 5.3 2.2 7 1.5 1.7 3.5 2.5 6.1 2.5 2.6 0 4.7-.8 6.1-2.5 1.5-1.6 2.2-4 2.2-7 0-2.9-.7-5.2-2-6.8M658 116.5v-1.3c0-1.1.3-2.1 1-2.9s1.6-1.3 2.8-1.3c2.2 0 3.3 1.7 3.3 5s-1.1 5-3.3 5c-1.2 0-2.1-.5-2.8-1.4-.6-.8-1-1.9-1-3.1m-.1-6.4c0-.7-.4-1.1-1.2-1.1-.8 0-1.3.4-1.3 1.1v16.6c0 .7.4 1.1 1.3 1.1s1.3-.4 1.3-1.1v-5.1c1 1.2 2.3 1.7 3.9 1.7 1.1 0 2-.2 2.8-.6.8-.4 1.4-.9 1.9-1.6.5-.7.8-1.4 1-2.3.2-.8.3-1.7.3-2.8 0-4.8-1.9-7.2-5.7-7.2-1.8 0-3.2.7-4.3 2v-.7zm-7.9 6c0 1.6-.3 2.8-.9 3.6-.6.8-1.6 1.2-2.8 1.2s-2.2-.4-2.8-1.2c-.6-.8-.9-2-.9-3.6s.3-2.8.9-3.6 1.6-1.2 2.8-1.2 2.2.4 2.8 1.2c.6.7.9 1.9.9 3.6m-3.7-7.1c-4.3 0-6.4 2.4-6.4 7.1 0 4.7 2.1 7.1 6.4 7.1 4.3 0 6.4-2.4 6.4-7.1 0-4.8-2.2-7.1-6.4-7.1m-9.9 10.1c-.6-.1-1.1.2-1.4.8-.5.9-1.3 1.3-2.4 1.3-2.5 0-3.7-1.7-3.7-5.2 0-3.4 1.2-5.2 3.7-5.2 1.2 0 2.1.5 2.5 1.5.2.5.6.8 1.3.8h.1c.4-.1.7-.2.8-.4.2-.2.2-.5.1-.9-.2-.8-.7-1.5-1.6-2.1-.9-.6-2-.9-3.3-.9-4.3 0-6.4 2.4-6.4 7.1 0 4.7 2.1 7.1 6.4 7.1 1.3 0 2.4-.3 3.3-.9.9-.6 1.4-1.2 1.6-1.9.1-.5 0-.8-.2-.9-.2 0-.5-.1-.8-.2m-17.3 5l5.5-13.9c.2-.4.1-.7-.2-.8-.3-.2-.7-.3-1.1-.3-.8 0-1.2.3-1.5 1l-2.9 7.9c-.1.3-.3.6-.4 1-.1-.4-.2-.8-.3-.9L615 110c-.3-.6-.7-1-1.5-1-.5 0-.8.1-1.1.3-.3.2-.3.5-.1.8.5 1.4 1.3 3.4 2.4 6 1.1 2.7 1.9 4.7 2.4 6l-.6 1.8c-.2.5-.4.8-.7 1.1-.3.2-.6.3-1.1.2-.9-.2-1.3 0-1.4.8 0 .4 0 .7.2.9.2.2.4.4.7.4.3.1.7.1 1.1.1.6 0 1.1-.1 1.5-.3.4-.2.8-.5 1.1-.9.3-.4.5-.7.7-1 .1-.2.3-.6.5-1.1zm-15.8-4.7c.5 0 1-.3 1.4-.9l2.6-4.3.4-.7v8.7c0 .7.4 1.1 1.2 1.1s1.2-.4 1.2-1.1v-12c0-.7-.5-1.1-1.4-1.1-.6 0-1.2.3-1.6.9l-3.8 6.4-3.8-6.4c-.4-.6-.9-.9-1.5-.9-.9 0-1.4.4-1.4 1.1v12c0 .7.4 1.1 1.2 1.1.8 0 1.2-.4 1.2-1.1v-8.7c.1.2.2.5.4.7l1.3 2.2 1.3 2.2c.3.5.8.8 1.3.8m-24.6-10.1c-.4 0-.8.1-1.1.2-.3.1-.6.3-.7.4-.2.2-.3.4-.4.7-.1.3-.2.5-.2.7s0 .5-.1.8c0 .3-.1.9-.2 2-.2 2.6-.3 4.2-.5 4.9v.2c-.1.6-.2 1.1-.4 1.4-.2.3-.5.4-1 .4-.6 0-.9.4-.9 1.1 0 .3.1.5.3.7s.5.3.9.3c1.1.1 1.9-.2 2.5-.9s.9-1.6 1.1-2.9c.1-1 .3-3.1.5-6.1l.1-1.3c0-.4.3-.6.7-.6h2.7c.4 0 .6.2.6.5v10.4c0 .7.4 1.1 1.3 1.1s1.3-.4 1.3-1.1v-11.1c0-.2-.1-.4-.1-.7-.1-.3-.2-.5-.3-.6-.2-.1-.4-.3-.7-.4s-.7-.2-1.1-.2h-4.3zm-7.3.8c0-.7-.4-1.1-1.3-1.1-.5 0-.9.1-1.1.4l-5.5 8c-.6 1-.9 1.5-1 1.6v-8.9c0-.7-.4-1.1-1.3-1.1s-1.3.4-1.3 1.1v12c0 .7.4 1.1 1.3 1.1.5 0 .9-.2 1.2-.5l5.6-8.1.3-.5.6-.9v8.8c0 .7.4 1.1 1.3 1.1s1.3-.4 1.3-1.1v-11.9zm-15.7 9c-.6-.1-1.1.2-1.4.8-.5.9-1.3 1.3-2.4 1.3-2.5 0-3.7-1.7-3.7-5.2 0-3.4 1.2-5.2 3.7-5.2 1.2 0 2.1.5 2.5 1.5.2.5.6.8 1.3.8h.1c.4-.1.7-.2.8-.4.2-.2.2-.5.1-.9-.2-.8-.7-1.5-1.6-2.1-.9-.6-2-.9-3.3-.9-4.3 0-6.4 2.4-6.4 7.1 0 4.7 2.1 7.1 6.4 7.1 1.3 0 2.4-.3 3.3-.9.9-.6 1.4-1.2 1.6-1.9.1-.5 0-.8-.2-.9-.1 0-.4-.1-.8-.2m-14.9-3c0 1.6-.3 2.8-.9 3.6-.6.8-1.6 1.2-2.8 1.2s-2.2-.4-2.8-1.2c-.6-.8-.9-2-.9-3.6s.3-2.8.9-3.6 1.6-1.2 2.8-1.2 2.2.4 2.8 1.2c.6.7.9 1.9.9 3.6M537 109c-4.3 0-6.4 2.4-6.4 7.1 0 4.7 2.1 7.1 6.4 7.1 4.3 0 6.4-2.4 6.4-7.1.1-4.8-2.1-7.1-6.4-7.1m-18.2 7.5v-1.3c0-1.1.3-2.1 1-2.9s1.6-1.3 2.8-1.3c2.2 0 3.3 1.7 3.3 5s-1.1 5-3.3 5c-1.2 0-2.1-.5-2.8-1.4-.7-.8-1-1.9-1-3.1m-.2-6.4c0-.7-.4-1.1-1.2-1.1-.8 0-1.3.4-1.3 1.1v16.6c0 .7.4 1.1 1.3 1.1s1.3-.4 1.3-1.1v-5.1c1 1.2 2.3 1.7 3.9 1.7 1.1 0 2-.2 2.8-.6.8-.4 1.4-.9 1.9-1.6.5-.7.8-1.4 1-2.3s.3-1.7.3-2.8c0-4.8-1.9-7.2-5.7-7.2-1.8 0-3.2.7-4.3 2v-.7zm-7.6 6c0 .6-.1 1.2-.2 1.8-.1.6-.3 1.1-.5 1.6-.3.5-.6.9-1.2 1.3-.5.3-1.1.5-1.9.5-2.5 0-3.7-1.7-3.7-5.1s1.2-5.1 3.7-5.1c.7 0 1.4.2 1.9.5s.9.7 1.2 1.3c.3.5.4 1.1.5 1.6.1.4.2 1 .2 1.6m-3.1-9.5l.8-.3c1.8-.5 2.8-.9 3.2-1.2.8-.5 1-1 .7-1.7-.3-.5-.6-.7-1.1-.7-.3 0-.5.1-.7.3-.4.3-1.3.7-2.6 1.2-.5.2-.9.3-1.2.5-1.3.5-2.4 1.2-3.3 2.1-.9.9-1.5 1.8-1.9 2.9-.4 1.1-.7 2.1-.8 3.1-.1 1-.2 2.1-.2 3.3 0 1 .1 1.8.3 2.7.2.8.6 1.6 1 2.3.5.7 1.1 1.3 2 1.7.9.4 1.9.6 3.1.6 4.3 0 6.4-2.4 6.4-7.1 0-2.3-.5-4-1.4-5.2s-2.5-1.8-4.8-1.8c-1.5 0-2.8.5-3.9 1.6.8-2.2 2.2-3.6 4.4-4.3m-10.3 3.5c0-.7-.4-1.1-1.3-1.1-.8 0-1.3.4-1.3 1.1v12c0 .7.4 1.1 1.3 1.1s1.3-.4 1.3-1.1v-12zm-12.3 0c0-.7-.4-1.1-1.3-1.1s-1.3.4-1.3 1.1v11.2c0 .2.1.5.2.8.1.3.4.5.7.6.3.1.8.2 1.3.2h4.1c1.4 0 2.5-.4 3.4-1.2.9-.8 1.4-1.8 1.4-3.1s-.4-2.3-1.3-3.1c-.8-.8-2-1.2-3.4-1.2h-3.9v-4.2zm0 6.3h3.6c1.5 0 2.3.8 2.3 2.3 0 .7-.2 1.3-.6 1.7-.4.4-1 .6-1.7.6H486c-.2 0-.4 0-.5-.1-.1-.1-.1-.2-.1-.4v-4.1zm-16.6-4.1v-4.9c0-.4.2-.6.6-.6h4c1 0 1.8.2 2.4.6.6.4 1 1.1 1 1.9 0 1.9-1.3 2.9-4 2.9h-4zm4.9 8.4h-4.4c-.4 0-.6-.2-.6-.6v-5.7h4.6c1.2 0 2.1.3 2.9.8.7.5 1.1 1.4 1.1 2.5 0 .9-.3 1.7-1 2.2-.7.6-1.6.8-2.6.8m-7.6-13.5v13.2c0 .8.2 1.4.5 1.9.4.5 1 .7 2 .7h5.2c1.9 0 3.4-.4 4.5-1.3s1.7-2.2 1.7-3.8c0-1.1-.3-2-.9-2.8-.6-.8-1.4-1.4-2.5-1.8 1.9-.7 2.8-2 2.8-4.1 0-1.5-.5-2.6-1.6-3.4-1.1-.8-2.4-1.2-4.1-1.2h-5.2c-1 0-1.6.2-2 .7-.3.5-.4 1.1-.4 1.9m-218.3 2.9c0-.7-.4-1.1-1.3-1.1-.5 0-.9.1-1.1.4l-5.5 8c-.6 1-.9 1.5-1 1.6v-8.9c0-.7-.4-1.1-1.3-1.1s-1.3.4-1.3 1.1v12c0 .7.4 1.1 1.3 1.1.5 0 .9-.2 1.2-.5l5.6-8.1.3-.5.6-.9v8.8c0 .7.4 1.1 1.3 1.1s1.3-.4 1.3-1.1v-11.9zm-23.5 0c0-.7-.4-1.1-1.3-1.1s-1.3.4-1.3 1.1v12c0 .7.4 1.1 1.3 1.1s1.3-.4 1.3-1.1v-5.4h5.9v5.4c0 .7.4 1.1 1.3 1.1s1.3-.4 1.3-1.1v-12c0-.7-.4-1.1-1.3-1.1s-1.3.4-1.3 1.1v4.7h-5.9v-4.7zm-5.7.1c.2-.4.2-.7 0-.9-.2-.2-.6-.3-1.1-.3-.4 0-.7 0-.9.1-.2.1-.4.3-.6.6-.3.5-.7 1.1-1.3 2-.6.9-1 1.6-1.3 2-.3-.5-.8-1.2-1.4-2.1-.6-.9-1-1.5-1.2-1.9-.2-.3-.4-.5-.6-.6-.2-.1-.5-.1-.9-.1-.5 0-.9.1-1.1.3-.2.2-.2.5.1.9l3.7 5.4c-.9 1.3-2.3 3.4-4.3 6.2-.3.4-.3.7-.1 1 .2.2.5.3 1.1.3.4 0 .7 0 .9-.1.2-.1.4-.3.7-.6.4-.5.9-1.4 1.6-2.5.7-1.1 1.3-1.9 1.6-2.5l3.2 5c.2.3.5.6.7.6.2.1.5.1.9.1.5 0 .9-.1 1.1-.3.2-.2.2-.5 0-.9l-4.4-6.4 3.6-5.3zm-17.6 13.9l5.5-13.9c.2-.4.1-.7-.2-.8-.3-.2-.7-.3-1.1-.3-.8 0-1.2.3-1.5 1l-2.9 7.9c-.1.3-.3.6-.4 1-.1-.4-.2-.8-.3-.9l-3.2-7.9c-.3-.6-.7-1-1.5-1-.5 0-.8.1-1.1.3-.3.2-.3.5-.1.8.5 1.4 1.3 3.4 2.4 6 1.1 2.7 1.9 4.7 2.4 6l-.6 1.8c-.2.5-.4.8-.7 1.1-.3.2-.6.3-1.1.2-.9-.2-1.3 0-1.4.8 0 .4 0 .7.2.9.2.2.4.4.7.4.3.1.7.1 1.1.1.6 0 1.1-.1 1.5-.3.4-.2.8-.5 1.1-.9.3-.4.5-.7.7-1 .1-.4.3-.8.5-1.3zm-16.2-14c0-.7-.4-1.1-1.3-1.1s-1.3.4-1.3 1.1v12c0 .7.4 1.1 1.3 1.1s1.3-.4 1.3-1.1v-5.6c1.3 0 2.3.2 2.8.7.6.5 1.1 1.4 1.6 2.6l.3.7c.5 1.2.9 2 1.3 2.4.3.3.7.4 1.4.3.8-.1 1-.5.7-1.1l-.4-.9c-.4-.8-.7-1.6-1.1-2.5-.7-1.9-1.8-3.1-3.1-3.5.9-.5 1.6-1.2 2.3-2.1.1-.1.2-.3.3-.4.1-.2.2-.3.3-.6.1-.2.2-.4.3-.5.2-.3.4-.7.8-1.3.5-.8.2-1.2-.8-1.3-.6-.1-1.1.1-1.5.5-.3.4-.6.9-1.1 1.6l-.7 1.1c-.4.7-.9 1.2-1.4 1.6-.5.4-1.2.6-2.1.7v-4.4zm-15.6 5.5c1.5-.7 2.3-1.7 2.3-3.1 0-.9-.3-1.6-.8-2.2-.5-.6-1.2-1-1.9-1.2-.7-.2-1.5-.3-2.4-.3-1.3 0-2.5.3-3.5.8-1 .6-1.6 1.4-1.8 2.5 0 .2 0 .4.2.6.2.3.6.4 1.1.4.6 0 1-.3 1.1-.8.1-1.1 1.1-1.6 2.9-1.6.8 0 1.4.2 1.8.5.4.4.7.8.7 1.4 0 1.4-1 2.1-3.1 2.1-.8 0-1.2.3-1.2.9 0 .7.3 1 1 1h.5c.4 0 .9 0 1.3.1s.8.3 1.3.6c.4.4.6.8.6 1.4 0 .8-.3 1.4-.8 1.8-.5.4-1.2.7-2.1.7-.2 0-.5 0-.8-.1-.3-.1-.6-.1-.9-.3-.3-.1-.6-.3-.8-.6s-.4-.6-.4-.9c-.1-.6-.5-.9-1.2-.9-.5 0-.8.1-1.1.4-.2.2-.2.4-.2.7.2.8.6 1.5 1.2 2.1s1.3.9 2 1.1c.7.2 1.5.3 2.3.3 1.7 0 3-.4 4-1.2 1-.8 1.5-1.8 1.5-3.2-.2-1.3-1-2.4-2.8-3m-11-5.5c0-.7-.4-1.1-1.3-1.1-.5 0-.9.1-1.1.4l-5.5 8c-.6 1-.9 1.5-1 1.6v-8.9c0-.7-.4-1.1-1.3-1.1s-1.3.4-1.3 1.1v12c0 .7.4 1.1 1.3 1.1.5 0 .9-.2 1.2-.5l5.6-8.1.3-.5.6-.9v8.8c0 .7.4 1.1 1.3 1.1s1.3-.4 1.3-1.1v-11.9zm-29.3-.8c-.4 0-.8.1-1.1.2-.3.1-.6.3-.7.4-.2.2-.3.4-.4.7-.1.3-.2.5-.2.7 0 .2 0 .5-.1.8 0 .3-.1.9-.2 2-.2 2.6-.3 4.2-.5 4.9v.2c-.1.6-.2 1.1-.4 1.4-.2.3-.5.4-1 .4-.6 0-.9.4-.9 1.1 0 .3.1.5.3.7.2.2.5.3.9.3 1.1.1 1.9-.2 2.5-.9.6-.7.9-1.6 1.1-2.9.1-1 .3-3.1.5-6.1l.1-1.3c0-.4.3-.6.7-.6h2.7c.4 0 .6.2.6.5v10.4c0 .7.4 1.1 1.3 1.1s1.3-.4 1.3-1.1v-11.1c0-.2-.1-.4-.1-.7-.1-.3-.2-.5-.3-.6-.2-.1-.4-.3-.7-.4s-.7-.2-1.1-.2h-4.3zm-7.3.8c0-.7-.4-1.1-1.3-1.1-.5 0-.9.1-1.1.4l-5.5 8c-.6 1-.9 1.5-1 1.6v-8.9c0-.7-.4-1.1-1.3-1.1s-1.3.4-1.3 1.1v12c0 .7.4 1.1 1.3 1.1.5 0 .9-.2 1.2-.5l5.6-8.1.3-.5.6-.9v8.8c0 .7.4 1.1 1.3 1.1s1.3-.4 1.3-1.1v-11.9zm-22.1-.8c-1.5 0-2.2.8-2.3 2.5-.1.7-.1 1.3-.1 1.7-.1 2.3-.2 4-.4 4.9-.2 1.3-.6 2-1 2.2-.5.3-.8.5-1 .7-.2.2-.3.6-.3 1.2v2.4c0 .7.4 1.1 1.2 1.1.8 0 1.2-.4 1.2-1.1v-1.8c0-.1.1-.2.3-.2h8.6c.2 0 .3.1.3.2v1.8c0 .7.4 1.1 1.2 1.1.8 0 1.2-.4 1.2-1.1v-2.4c0-.4-.1-.8-.4-1.1-.3-.3-.7-.4-1.2-.5V111c0-.2-.1-.4-.1-.7-.1-.3-.2-.5-.4-.6-.2-.1-.4-.2-.7-.4-.3-.1-.7-.2-1.2-.2h-4.9zM98.2 121c.4-.6.6-1.4.8-2.4.2-1.1.3-2.8.5-5.3l.1-1.4c.1-.4.3-.6.6-.6h3.2c.2 0 .4 0 .5.1.1.1.1.2.1.4v9.2h-5.8zm-6.8-4.9c0 1.6-.3 2.8-.9 3.6-.6.8-1.6 1.2-2.8 1.2s-2.2-.4-2.8-1.2c-.6-.8-.9-2-.9-3.6s.3-2.8.9-3.6 1.6-1.2 2.8-1.2 2.2.4 2.8 1.2c.6.7.9 1.9.9 3.6m-3.7-7.1c-4.3 0-6.4 2.4-6.4 7.1 0 4.7 2.1 7.1 6.4 7.1 4.3 0 6.4-2.4 6.4-7.1 0-4.8-2.2-7.1-6.4-7.1m-8 1.2c.2-.4.2-.7 0-.9s-.6-.3-1.1-.3c-.4 0-.7 0-.9.1-.2.1-.4.3-.6.6-.3.5-.7 1.1-1.3 2-.6.9-1 1.6-1.3 2-.3-.5-.8-1.2-1.4-2.1-.6-.9-1-1.5-1.2-1.9-.2-.3-.4-.5-.6-.6-.2-.1-.5-.1-.9-.1-.5 0-.9.1-1.1.3-.2.2-.2.5.1.9l3.7 5.4c-.9 1.3-2.3 3.4-4.3 6.2-.3.4-.3.7-.1 1 .2.2.5.3 1.1.3.4 0 .7 0 .9-.1.2-.1.4-.3.7-.6.4-.5.9-1.4 1.6-2.5.7-1.1 1.3-1.9 1.6-2.5l3.2 5c.2.3.5.6.7.6.2.1.5.1.9.1.5 0 .9-.1 1.1-.3.2-.2.2-.5 0-.9l-4.4-6.4 3.6-5.3zm-13.4-.1c0-.7-.4-1.1-1.3-1.1-.8 0-1.3.4-1.3 1.1v12c0 .7.4 1.1 1.3 1.1s1.3-.4 1.3-1.1v-12zm-12.4 0c0-.7-.4-1.1-1.3-1.1s-1.3.4-1.3 1.1v11.2c0 .2.1.5.2.8.1.3.4.5.7.6.3.1.8.2 1.3.2h4.1c1.4 0 2.5-.4 3.4-1.2.9-.8 1.4-1.8 1.4-3.1s-.4-2.3-1.3-3.1c-.8-.8-2-1.2-3.4-1.2h-3.9v-4.2zm0 6.3h3.6c1.5 0 2.3.8 2.3 2.3 0 .7-.2 1.3-.6 1.7-.4.4-1 .6-1.7.6h-2.9c-.2 0-.4 0-.5-.1-.1-.1-.1-.2-.1-.4v-4.1zm-16.6-4.1v-4.9c0-.4.2-.6.6-.6h4c1 0 1.8.2 2.4.6.6.4 1 1.1 1 1.9 0 1.9-1.3 2.9-4 2.9h-4zm4.9 8.4h-4.4c-.4 0-.6-.2-.6-.6v-5.7h4.6c1.2 0 2.1.3 2.9.8.7.5 1.1 1.4 1.1 2.5 0 .9-.3 1.7-1 2.2-.7.6-1.5.8-2.6.8m-7.6-13.5v13.2c0 .8.2 1.4.5 1.9.4.5 1 .7 2 .7h5.2c1.9 0 3.4-.4 4.5-1.3s1.7-2.2 1.7-3.8c0-1.1-.3-2-.9-2.8-.6-.8-1.4-1.4-2.5-1.8 1.9-.7 2.8-2 2.8-4.1 0-1.5-.5-2.6-1.6-3.4s-2.4-1.2-4.1-1.2H37c-1 0-1.6.2-2 .7-.2.5-.4 1.1-.4 1.9m172 67.2l5.5-13.9c.2-.4.1-.7-.2-.8-.3-.2-.7-.3-1.1-.3-.8 0-1.2.3-1.5 1l-2.9 7.9c-.1.3-.3.6-.4 1-.1-.4-.2-.8-.3-.9l-3.2-7.9c-.3-.6-.7-1-1.5-1-.5 0-.8.1-1.1.3-.3.2-.3.5-.1.8.5 1.4 1.3 3.4 2.4 6 1.1 2.7 1.9 4.7 2.4 6l-.6 1.8c-.2.5-.4.8-.7 1.1-.3.2-.6.3-1.1.2-.9-.2-1.3 0-1.4.8 0 .4 0 .7.2.9.2.2.4.4.7.4.3.1.7.1 1.1.1.6 0 1.1-.1 1.5-.3.4-.2.8-.5 1.1-.9.3-.4.5-.7.7-1 0-.4.2-.8.5-1.3zm-16.2-14c0-.7-.4-1.1-1.3-1.1s-1.3.4-1.3 1.1v12c0 .7.4 1.1 1.3 1.1s1.3-.4 1.3-1.1v-5.6c1.3 0 2.3.2 2.8.7.6.5 1.1 1.4 1.6 2.6l.3.7c.5 1.2.9 2 1.3 2.4.3.3.7.4 1.4.3.8-.1 1-.5.7-1.1l-.4-.9c-.4-.8-.7-1.6-1.1-2.5-.7-1.9-1.8-3.1-3.1-3.5.9-.5 1.6-1.2 2.3-2.1.1-.1.2-.3.3-.4.1-.2.2-.3.3-.6.1-.2.2-.4.3-.5.2-.3.4-.7.8-1.3.5-.8.2-1.2-.8-1.3-.6-.1-1.1.1-1.5.5-.3.4-.6.9-1.1 1.6l-.7 1.1c-.4.7-.9 1.2-1.4 1.6-.5.4-1.2.6-2.1.7v-4.4zm-15.2 6.4v-1.3c0-1.1.3-2.1 1-2.9.7-.8 1.6-1.3 2.8-1.3 2.2 0 3.3 1.7 3.3 5s-1.1 5-3.3 5c-1.2 0-2.1-.5-2.8-1.4-.7-.9-1-1.9-1-3.1m-.2-6.4c0-.7-.4-1.1-1.2-1.1-.8 0-1.3.4-1.3 1.1V177c0 .7.4 1.1 1.3 1.1s1.3-.4 1.3-1.1v-5.1c1 1.2 2.3 1.7 3.9 1.7 1.1 0 2-.2 2.8-.6.8-.4 1.4-.9 1.9-1.6.5-.7.8-1.4 1-2.3.2-.8.3-1.7.3-2.8 0-4.8-1.9-7.2-5.7-7.2-1.8 0-3.2.7-4.3 2v-.7zm-7.9 6c0 1.6-.3 2.8-.9 3.6-.6.8-1.6 1.2-2.8 1.2-1.3 0-2.2-.4-2.8-1.2-.6-.8-.9-2-.9-3.6s.3-2.8.9-3.6c.6-.8 1.6-1.2 2.8-1.2 1.3 0 2.2.4 2.8 1.2s.9 1.9.9 3.6m-3.7-7.2c-4.3 0-6.4 2.4-6.4 7.1 0 4.7 2.1 7.1 6.4 7.1 4.3 0 6.4-2.4 6.4-7.1 0-4.7-2.2-7.1-6.4-7.1m-10.9 7.2c0 .6-.1 1.2-.2 1.8-.1.6-.3 1.1-.5 1.6-.3.5-.6.9-1.2 1.3-.5.3-1.1.5-1.9.5-2.5 0-3.7-1.7-3.7-5.1s1.2-5.1 3.7-5.1c.7 0 1.4.2 1.9.5s.9.7 1.2 1.3c.3.5.4 1.1.5 1.6.2.4.2 1 .2 1.6m-3-9.6l.8-.3c1.8-.5 2.8-.9 3.2-1.2.8-.5 1-1 .7-1.7-.3-.5-.6-.7-1.1-.7-.3 0-.5.1-.7.3-.4.3-1.3.7-2.6 1.2-.5.2-.9.3-1.2.5-1.3.5-2.4 1.2-3.3 2.1-.9.9-1.5 1.8-1.9 2.9-.4 1.1-.7 2.1-.8 3.1s-.2 2.1-.2 3.3c0 1 .1 1.8.3 2.7s.6 1.6 1 2.3c.5.7 1.1 1.3 2 1.7.9.4 1.9.6 3.1.6 4.3 0 6.4-2.4 6.4-7.1 0-2.3-.5-4-1.4-5.2-.9-1.2-2.5-1.8-4.8-1.8-1.5 0-2.8.5-3.9 1.6.7-2.1 2.2-3.5 4.4-4.3m-13.9 17.6l5.5-13.9c.2-.4.1-.7-.2-.8-.3-.2-.7-.3-1.1-.3-.8 0-1.2.3-1.5 1l-2.9 7.9c-.1.3-.3.6-.4 1-.1-.4-.2-.8-.3-.9l-3.2-7.9c-.3-.6-.7-1-1.5-1-.5 0-.8.1-1.1.3-.3.2-.3.5-.1.8.5 1.4 1.3 3.4 2.4 6 1.1 2.7 1.9 4.7 2.4 6l-.6 1.8c-.2.5-.4.8-.7 1.1-.3.2-.6.3-1.1.2-.9-.2-1.3 0-1.4.8 0 .4 0 .7.2.9s.4.4.7.4c.3.1.7.1 1.1.1.6 0 1.1-.1 1.5-.3.4-.2.8-.5 1.1-.9.3-.4.5-.7.7-1 .1-.4.3-.8.5-1.3zm-23.3-14.8c-.4 0-.8.1-1.1.2-.3.1-.6.3-.7.4-.2.2-.3.4-.4.7-.1.3-.2.5-.2.7 0 .2 0 .5-.1.8 0 .3-.1.9-.2 2-.2 2.6-.3 4.2-.5 4.9v.2c-.1.6-.2 1.1-.4 1.4-.2.3-.5.4-1 .4-.6 0-.9.4-.9 1.1 0 .3.1.5.3.7.2.2.5.3.9.3 1.1.1 1.9-.2 2.5-.9.6-.7.9-1.6 1.1-2.9.1-1 .3-3.1.5-6.1l.1-1.3c0-.4.3-.6.7-.6h2.7c.4 0 .6.2.6.5v10.4c0 .7.4 1.1 1.3 1.1s1.3-.4 1.3-1.1v-11.1c0-.2-.1-.4-.1-.7-.1-.3-.2-.5-.3-.6-.2-.1-.4-.3-.7-.4-.3-.1-.7-.2-1.1-.2h-4.3zm-10.9 10.7c-.8.9-1.9 1.3-3.2 1.3-.7 0-1.3-.2-1.8-.6-.5-.4-.7-.9-.7-1.6 0-.6.2-1.1.5-1.5.3-.4.7-.7 1.2-.9.5-.2 1-.4 1.6-.4.5-.1 1.1-.1 1.7-.1.4 0 1.1 0 1.8.1.2 1.5-.2 2.8-1.1 3.7m1.4 2.1c.1.7.6 1 1.5.9.7-.1 1-.5.9-1.2-.1-.4-.1-1-.1-1.6v-5.6c0-1.9-.4-3.3-1.3-4.2-.9-.9-2.3-1.4-4.3-1.4-2.2 0-3.8.4-4.9 1.3-.4.3-.6.6-.6.9 0 .3.1.5.4.7.3.2.6.3.9.3.3 0 .6-.1.8-.3.8-.6 1.8-.9 3-.9 1.7 0 2.8.5 3.2 1.4.2.5.2 1.2.2 2.1h-1.7c-5.2 0-7.9 1.6-7.9 4.8 0 1.3.4 2.4 1.3 3.1.9.7 2 1.1 3.4 1.1 2.1 0 3.7-.8 4.8-2.3.2-.1.3.2.4.9M84 159.6c-.4 0-.8.1-1.1.2-.3.1-.6.3-.7.4-.2.2-.3.4-.4.7-.1.3-.2.5-.2.7 0 .2 0 .5-.1.8 0 .3-.1.9-.2 2-.2 2.6-.3 4.2-.5 4.9v.2c-.1.6-.2 1.1-.4 1.4-.2.3-.5.4-1 .4-.6 0-.9.4-.9 1.1 0 .3.1.5.3.7.2.2.5.3.9.3 1.1.1 1.9-.2 2.5-.9s.9-1.6 1.1-2.9c.1-1 .3-3.1.5-6.1l.1-1.3c0-.4.3-.6.7-.6h2.7c.4 0 .6.2.6.5v10.4c0 .7.4 1.1 1.3 1.1s1.3-.4 1.3-1.1v-11.1c0-.2-.1-.4-.1-.7-.1-.3-.2-.5-.3-.6-.2-.1-.4-.3-.7-.4-.3-.1-.7-.2-1.1-.2H84zm-16.3 5.2c.1-1 .5-1.9 1.2-2.6.7-.8 1.6-1.1 2.7-1.1 1 0 1.8.3 2.4.9.6.6.9 1.4 1 2.4 0 .3-.1.4-.4.4h-6.9zm9.7-.1c0-1.6-.5-2.9-1.5-3.9-1.1-1.1-2.6-1.7-4.5-1.7-1.2 0-2.2.2-3.1.6-.9.4-1.6 1-2.1 1.7s-.9 1.5-1.1 2.3c-.2.8-.4 1.7-.4 2.6 0 .9.1 1.7.4 2.5.2.8.6 1.6 1.1 2.3.5.7 1.2 1.3 2.1 1.7.9.4 1.9.6 3.1.6s2.3-.2 3.3-.7c1-.5 1.7-1.2 2-2.1.1-.3.1-.5-.1-.8-.2-.3-.5-.4-.9-.5-.6-.1-1.1.2-1.5.7-.3.4-.7.8-1.3 1-.6.2-1.1.3-1.6.3-.8 0-1.5-.2-2-.5s-1-.7-1.2-1.2-.5-1-.6-1.5c-.1-.5-.2-1-.2-1.6h7.3c1 0 1.7-.2 2-.5.6-.2.8-.6.8-1.3M55 159.6c-1.5 0-2.2.8-2.3 2.5-.1.7-.1 1.3-.1 1.7-.1 2.3-.2 4-.4 4.9-.2 1.3-.6 2-1 2.2-.5.3-.8.5-1 .7-.2.2-.3.6-.3 1.2v2.4c0 .7.4 1.1 1.2 1.1.8 0 1.2-.4 1.2-1.1v-1.8c0-.1.1-.2.3-.2H61c.2 0 .3.1.3.2v1.8c0 .7.4 1.1 1.2 1.1s1.2-.4 1.2-1.1v-2.4c0-.4-.1-.8-.4-1.1-.3-.3-.7-.4-1.2-.5v-9.9c0-.2-.1-.4-.1-.7-.1-.3-.2-.5-.4-.6-.2-.1-.4-.2-.7-.4-.3-.1-.7-.2-1.2-.2H55zm-1.2 11.7c.4-.6.6-1.4.8-2.4.2-1.1.3-2.8.5-5.3l.1-1.4c.1-.4.3-.6.6-.6H59c.2 0 .4 0 .5.1.1.1.1.2.1.4v9.2h-5.8zm-6.1-4.1c-.4 0-.7.1-.9.2-.3.2-.4.4-.4.7-.5 1.9-1.9 2.8-4.3 2.8-.9 0-1.7-.1-2.4-.4-.7-.3-1.2-.6-1.6-1s-.7-.9-.9-1.6c-.2-.6-.4-1.3-.4-1.8-.1-.6-.1-1.3-.1-2s0-1.4.1-2c.1-.6.2-1.2.4-1.8.2-.6.5-1.2.9-1.6s.9-.8 1.6-1.1c.7-.3 1.5-.4 2.4-.4.6 0 1.2.1 1.8.3.6.2 1.1.5 1.6.9s.8 1 .9 1.7c.1.6.6.9 1.4.9.5-.1.8-.2 1.1-.4.2-.2.2-.4.2-.7-.2-1.7-1-2.9-2.4-3.8-1.4-.9-2.9-1.3-4.5-1.3-2.7 0-4.8.8-6.2 2.4-1.4 1.6-2.1 4-2.1 7.1 0 3.1.7 5.4 2.1 7 1.4 1.6 3.5 2.4 6.2 2.4 1.8 0 3.3-.5 4.6-1.5 1.3-1 2.1-2.2 2.3-3.7 0-.3 0-.5-.2-.7-.4-.5-.7-.6-1.2-.6m220 57.5l5.5-13.9c.2-.4.1-.7-.2-.8-.3-.2-.7-.3-1.1-.3-.8 0-1.2.3-1.5 1l-2.9 7.9c-.1.3-.3.6-.4 1-.1-.4-.2-.8-.3-.9l-3.2-7.9c-.3-.6-.7-1-1.5-1-.5 0-.8.1-1.1.3-.3.2-.3.5-.1.8.5 1.4 1.3 3.4 2.4 6 1.1 2.7 1.9 4.7 2.4 6l-.6 1.8c-.2.5-.4.8-.7 1.1-.3.2-.6.3-1.1.2-.9-.2-1.3 0-1.4.8 0 .4 0 .7.2.9s.4.4.7.4c.3.1.7.1 1.1.1.6 0 1.1-.1 1.5-.3.4-.2.8-.5 1.1-.9.3-.4.5-.7.7-1 0-.4.2-.8.5-1.3zm-16.2-14.1c0-.7-.4-1.1-1.3-1.1s-1.3.4-1.3 1.1v12c0 .7.4 1.1 1.3 1.1s1.3-.4 1.3-1.1V217c1.3 0 2.3.2 2.8.7.6.5 1.1 1.4 1.6 2.6l.3.7c.5 1.2.9 2 1.3 2.4.3.3.7.4 1.4.3.8-.1 1-.5.7-1.1l-.4-.9c-.4-.8-.7-1.6-1.1-2.5-.7-1.9-1.8-3.1-3.1-3.5.9-.5 1.6-1.2 2.3-2.1.1-.1.2-.3.3-.4.1-.2.2-.3.3-.6.1-.2.2-.4.3-.5.2-.3.4-.7.8-1.3.5-.8.2-1.2-.8-1.3-.6-.1-1.1.1-1.5.5-.3.4-.6.9-1.1 1.6l-.7 1.1c-.4.7-.9 1.2-1.4 1.6-.5.4-1.2.6-2.1.7v-4.4zm-6.9 9.1c-.6-.1-1.1.2-1.4.8-.5.9-1.3 1.3-2.4 1.3-2.5 0-3.7-1.7-3.7-5.2s1.2-5.2 3.7-5.2c1.2 0 2.1.5 2.5 1.5.2.5.6.8 1.3.8h.1c.4-.1.7-.2.8-.4.2-.2.2-.5.1-.9-.2-.8-.7-1.5-1.6-2.1-.9-.6-2-.9-3.3-.9-4.3 0-6.4 2.4-6.4 7.1 0 4.7 2.1 7.1 6.4 7.1 1.3 0 2.4-.3 3.3-.9.9-.6 1.4-1.2 1.6-1.9.1-.5 0-.8-.2-.9-.1-.1-.4-.2-.8-.2m-12.4.4c.1-.4 0-.6-.1-.9-.2-.2-.4-.4-.8-.4-.3 0-.6 0-.9.2-.3.2-.5.4-.6.6-.2.7-.6 1.2-1.2 1.6s-1.3.6-2 .6c-1.4 0-2.4-.4-3-1.3-.6-.9-.9-2-1-3.4h7.3c1 0 1.7-.2 2-.5.3-.3.5-.8.5-1.4 0-1.7-.5-3-1.6-4s-2.6-1.6-4.4-1.6c-2.2 0-3.9.7-5 2.1-1.1 1.4-1.7 3.1-1.7 5.2 0 2 .6 3.7 1.7 5.1 1.1 1.4 2.8 2.1 5 2.1 1.4 0 2.6-.3 3.7-1 1.1-.9 1.8-1.9 2.1-3m-2.4-5.4c0 .2 0 .3-.1.3-.1.1-.2.1-.3.1h-6.8c.1-1 .5-1.8 1.2-2.6s1.6-1.1 2.7-1.1c1 0 1.9.3 2.4.9.6.6.9 1.4.9 2.4zm-1.3-9.6c-.6 0-.9.1-1.2.4-.2.2-.3.6-.3 1.1 0 .5.1.9.3 1.1.2.3.6.4 1.2.4s1-.1 1.2-.4c.2-.3.3-.6.3-1.1 0-.5-.1-.8-.3-1.1-.2-.3-.6-.4-1.2-.4m-4.6 0c-.6 0-1 .1-1.2.4-.2.2-.3.6-.3 1.1 0 .5.1.9.3 1.1.2.3.6.4 1.2.4s1-.1 1.2-.4c.2-.3.3-.6.3-1.1 0-1.1-.5-1.5-1.5-1.5m-7 5.5c0-.7-.4-1.1-1.3-1.1s-1.3.4-1.3 1.1v4.2c0 .6-.3 1.1-.8 1.6-.5.4-1.3.6-2.3.6-.9 0-1.5-.2-1.8-.6-.3-.4-.5-1.1-.5-2.1v-3.7c0-.7-.4-1.1-1.3-1.1s-1.3.4-1.3 1.1v4.3c0 2.6 1.5 4 4.6 4 1.4 0 2.5-.3 3.3-.9v4.7c0 .7.4 1.1 1.3 1.1.8 0 1.3-.4 1.3-1.1v-12.1zm-13.3 0c0-.7-.4-1.1-1.3-1.1-.5 0-.9.1-1.1.4l-5.5 8c-.6 1-.9 1.5-1 1.6v-8.9c0-.7-.4-1.1-1.3-1.1s-1.3.4-1.3 1.1v12c0 .7.4 1.1 1.3 1.1.5 0 .9-.2 1.2-.5l5.6-8.1.3-.5.6-.9v8.8c0 .7.4 1.1 1.3 1.1s1.3-.4 1.3-1.1v-11.9zm-24.1 6.5v-1.3c0-1.1.3-2.1 1-2.9.7-.8 1.6-1.3 2.8-1.3 2.2 0 3.3 1.7 3.3 5s-1.1 5-3.3 5c-1.2 0-2.1-.5-2.8-1.4-.7-.9-1-1.9-1-3.1m-.1-6.5c0-.7-.4-1.1-1.2-1.1-.8 0-1.3.4-1.3 1.1v16.6c0 .7.4 1.1 1.3 1.1s1.3-.4 1.3-1.1v-5.1c1 1.2 2.3 1.7 3.9 1.7 1.1 0 2-.2 2.8-.6.8-.4 1.4-.9 1.9-1.6.5-.7.8-1.4 1-2.3.2-.8.3-1.7.3-2.8 0-4.8-1.9-7.2-5.7-7.2-1.8 0-3.2.7-4.3 2v-.7zm-8.5-.8h-6.4c-.5 0-1 .1-1.3.2-.3.1-.6.4-.7.6-.1.3-.2.5-.2.8v11.2c0 .7.4 1.1 1.3 1.1.8 0 1.3-.4 1.3-1.1v-10.4c0-.2 0-.3.1-.4.1-.1.2-.1.4-.1h4.8c.4 0 .6.2.6.5v10.4c0 .7.4 1.1 1.3 1.1.8 0 1.3-.4 1.3-1.1v-11.3c0-.2-.1-.5-.2-.8-.1-.3-.4-.5-.7-.6-.6 0-1.1-.1-1.6-.1m-26.5 0c-.4 0-.8.1-1.1.2-.3.1-.6.3-.7.4-.2.2-.3.4-.4.7-.1.3-.2.5-.2.7s0 .5-.1.8c0 .3-.1.9-.2 2-.2 2.6-.3 4.2-.5 4.9v.2c-.1.6-.2 1.1-.4 1.4-.2.3-.5.4-1 .4-.6 0-.9.4-.9 1.1 0 .3.1.5.3.7.2.2.5.3.9.3 1.1.1 1.9-.2 2.5-.9.6-.7.9-1.6 1.1-2.9.1-1 .3-3.1.5-6.1l.1-1.3c0-.4.3-.6.7-.6h2.7c.4 0 .6.2.6.5v10.4c0 .7.4 1.1 1.3 1.1s1.3-.4 1.3-1.1v-11.1c0-.2-.1-.4-.1-.7-.1-.3-.2-.5-.3-.6-.2-.1-.4-.3-.7-.4-.3-.1-.7-.2-1.1-.2h-4.3zm-7.3.8c0-.7-.4-1.1-1.3-1.1-.5 0-.9.1-1.1.4l-5.5 8c-.6 1-.9 1.5-1 1.6v-8.9c0-.7-.4-1.1-1.3-1.1s-1.3.4-1.3 1.1v12c0 .7.4 1.1 1.3 1.1.5 0 .9-.2 1.2-.5l5.6-8.1.3-.5.6-.9v8.8c0 .7.4 1.1 1.3 1.1s1.3-.4 1.3-1.1v-11.9zm-23.4 1.7c0-.2 0-.3.1-.4.1-.1.2-.1.4-.1h3.4c1.3 0 1.9.6 1.9 1.7 0 .6-.2 1.1-.6 1.4-.4.3-.8.5-1.4.5h-4v-3.1zm0 5h4c1.5 0 2.3.7 2.3 2.2 0 1.4-.8 2.1-2.3 2.1h-3.4c-.2 0-.4 0-.4-.1-.1-.1-.1-.2-.1-.4v-3.8zm-.2-7.5c-.5 0-.8.1-1.2.2-.3.1-.5.2-.7.4-.2.1-.3.3-.4.6-.1.3-.1.5-.1.7v10.1c0 .2.1.4.1.7.1.3.2.5.4.6.2.1.4.2.7.4.3.1.7.2 1.2.2h4.8c1.3 0 2.3-.4 3.2-1.1.9-.7 1.3-1.7 1.3-2.8 0-.7-.2-1.4-.6-2-.4-.6-1-1.1-1.7-1.4 1.2-.6 1.8-1.6 1.8-2.9 0-1.1-.4-1.9-1.2-2.5-.8-.6-1.9-.9-3.4-.9h-4.2zm-9.6 10.8c-.8.9-1.9 1.3-3.2 1.3-.7 0-1.3-.2-1.8-.6-.5-.4-.7-.9-.7-1.6 0-.6.2-1.1.5-1.5.3-.4.7-.7 1.2-.9.5-.2 1-.4 1.6-.4.5-.1 1.1-.1 1.7-.1.4 0 1.1 0 1.8.1.2 1.5-.2 2.7-1.1 3.7m1.4 2.1c.1.7.6 1 1.5.9.7-.1 1-.5.9-1.2-.1-.4-.1-1-.1-1.6v-5.6c0-1.9-.4-3.3-1.3-4.2-.9-.9-2.3-1.4-4.3-1.4-2.2 0-3.8.4-4.9 1.3-.4.3-.6.6-.6.9 0 .3.1.5.4.7.3.2.6.3.9.3s.6-.1.8-.3c.8-.6 1.8-.9 3-.9 1.7 0 2.8.5 3.2 1.4.2.5.2 1.2.2 2.1h-1.7c-5.2 0-7.9 1.6-7.9 4.8 0 1.3.4 2.4 1.3 3.1.9.7 2 1.1 3.4 1.1 2.1 0 3.7-.8 4.8-2.3.2-.2.3.2.4.9M84 217.1v-1.3c0-1.1.3-2.1 1-2.9.7-.8 1.6-1.3 2.8-1.3 2.2 0 3.3 1.7 3.3 5s-1.1 5-3.3 5c-1.2 0-2.1-.5-2.8-1.4-.6-.9-1-1.9-1-3.1m-.1-6.5c0-.7-.4-1.1-1.2-1.1-.8 0-1.3.4-1.3 1.1v16.6c0 .7.4 1.1 1.3 1.1s1.3-.4 1.3-1.1v-5.1c1 1.2 2.3 1.7 3.9 1.7 1.1 0 2-.2 2.8-.6.8-.4 1.4-.9 1.9-1.6.5-.7.8-1.4 1-2.3.2-.8.3-1.7.3-2.8 0-4.8-1.9-7.2-5.7-7.2-1.8 0-3.2.7-4.3 2v-.7zm-8.5-.8H69c-.5 0-1 .1-1.3.2-.3.1-.6.4-.7.6-.1.3-.2.5-.2.8v11.2c0 .7.4 1.1 1.3 1.1.8 0 1.3-.4 1.3-1.1v-10.4c0-.2 0-.3.1-.4.1-.1.2-.1.4-.1h4.8c.4 0 .6.2.6.5v10.4c0 .7.4 1.1 1.3 1.1.8 0 1.3-.4 1.3-1.1v-11.3c0-.2-.1-.5-.2-.8-.1-.3-.4-.5-.7-.6-.6 0-1-.1-1.6-.1m-14.1 6.8c0 1.6-.3 2.8-.9 3.6-.6.8-1.6 1.2-2.8 1.2-1.3 0-2.2-.4-2.8-1.2-.6-.8-.9-2-.9-3.6s.3-2.8.9-3.6c.6-.8 1.6-1.2 2.8-1.2 1.3 0 2.2.4 2.8 1.2.6.8.9 2 .9 3.6m-3.8-7.1c-4.3 0-6.4 2.4-6.4 7.1 0 4.7 2.1 7.1 6.4 7.1 4.3 0 6.4-2.4 6.4-7.1 0-4.7-2.1-7.1-6.4-7.1m-9.2-1.8c0-.8-.2-1.4-.5-1.9-.4-.5-1-.7-2-.7h-8.6c-1 0-1.6.2-2 .7s-.5 1.1-.5 1.9v14.8c0 .8.5 1.2 1.4 1.2.9 0 1.4-.4 1.4-1.2V208c0-.4.2-.5.6-.5H45c.4 0 .6.2.6.5v14.5c0 .8.5 1.2 1.4 1.2.9 0 1.4-.4 1.4-1.2v-14.8zM185 319.1c-.6-.1-1.1.2-1.4.8-.5.9-1.3 1.3-2.4 1.3-2.5 0-3.7-1.7-3.7-5.2s1.2-5.2 3.7-5.2c1.2 0 2.1.5 2.5 1.5.2.5.6.8 1.3.8h.1c.4-.1.7-.2.8-.4.2-.2.2-.5.1-.9-.2-.8-.7-1.5-1.6-2.1-.9-.6-2-.9-3.3-.9-4.3 0-6.4 2.4-6.4 7.1 0 4.7 2.1 7.1 6.4 7.1 1.3 0 2.4-.3 3.3-.9.9-.6 1.4-1.2 1.6-1.9.1-.5 0-.8-.2-.9-.1 0-.4-.1-.8-.2m-14.9-3c0 1.6-.3 2.8-.9 3.6-.6.8-1.6 1.2-2.8 1.2-1.3 0-2.2-.4-2.8-1.2s-.9-2-.9-3.6.3-2.8.9-3.6 1.6-1.2 2.8-1.2c1.3 0 2.2.4 2.8 1.2.6.7.9 1.9.9 3.6m-3.7-7.1c-4.3 0-6.4 2.4-6.4 7.1 0 4.7 2.1 7.1 6.4 7.1 4.3 0 6.4-2.4 6.4-7.1 0-4.8-2.2-7.1-6.4-7.1m-17.7 1.1c0-.7-.4-1.1-1.3-1.1s-1.3.4-1.3 1.1v12c0 .7.4 1.1 1.3 1.1s1.3-.4 1.3-1.1v-5.4h5.9v5.4c0 .7.4 1.1 1.3 1.1s1.3-.4 1.3-1.1v-12c0-.7-.4-1.1-1.3-1.1s-1.3.4-1.3 1.1v4.7h-5.9v-4.7zm-20.4-.8c-.4 0-.8.1-1.1.2-.3.1-.6.3-.7.4-.2.2-.3.4-.4.7-.1.3-.2.5-.2.7 0 .2 0 .5-.1.8 0 .3-.1.9-.2 2-.2 2.6-.3 4.2-.5 4.9v.2c-.1.6-.2 1.1-.4 1.4-.2.3-.5.4-1 .4-.6 0-.9.4-.9 1.1 0 .3.1.5.3.7.2.2.5.3.9.3 1.1.1 1.9-.2 2.5-.9.6-.7.9-1.6 1.1-2.9.1-1 .3-3.1.5-6.1l.1-1.3c0-.4.3-.6.7-.6h2.7c.4 0 .6.2.6.5v10.4c0 .7.4 1.1 1.3 1.1s1.3-.4 1.3-1.1v-11.1c0-.2-.1-.4-.1-.7-.1-.3-.2-.5-.3-.6s-.4-.3-.7-.4c-.3-.1-.7-.2-1.1-.2h-4.3zM117.4 320c-.8.9-1.9 1.3-3.2 1.3-.7 0-1.3-.2-1.8-.6-.5-.4-.7-.9-.7-1.6 0-.6.2-1.1.5-1.5.3-.4.7-.7 1.2-.9s1-.4 1.6-.4 1.1-.1 1.7-.1c.4 0 1.1 0 1.8.1.2 1.5-.2 2.8-1.1 3.7m1.4 2.1c.1.7.6 1 1.5.9.7-.1 1-.5.9-1.2-.1-.4-.1-1-.1-1.6v-5.6c0-1.9-.4-3.3-1.3-4.2-.9-.9-2.3-1.4-4.3-1.4-2.2 0-3.8.4-4.9 1.3-.4.3-.6.6-.6.9 0 .3.1.5.4.7.3.2.6.3.9.3.3 0 .6-.1.8-.3.8-.6 1.8-.9 3-.9 1.7 0 2.8.5 3.2 1.4.2.5.2 1.2.2 2.1h-1.7c-5.2 0-7.9 1.6-7.9 4.8 0 1.3.4 2.4 1.3 3.1.9.7 2 1.1 3.4 1.1 2.1 0 3.7-.8 4.8-2.3.2-.1.2.3.4.9m-12.9-3c-.6-.1-1.1.2-1.4.8-.5.9-1.3 1.3-2.4 1.3-2.5 0-3.7-1.7-3.7-5.2s1.2-5.2 3.7-5.2c1.2 0 2.1.5 2.5 1.5.2.5.6.8 1.3.8h.1c.4-.1.7-.2.8-.4.2-.2.2-.5.1-.9-.2-.8-.7-1.5-1.6-2.1-.9-.6-2-.9-3.3-.9-4.3 0-6.4 2.4-6.4 7.1 0 4.7 2.1 7.1 6.4 7.1 1.3 0 2.4-.3 3.3-.9.9-.6 1.4-1.2 1.6-1.9.1-.5 0-.8-.2-.9-.2 0-.4-.1-.8-.2m-22.1-4.6c.1-1 .5-1.9 1.2-2.6.7-.8 1.6-1.1 2.7-1.1 1 0 1.8.3 2.4.9.6.6.9 1.4 1 2.4 0 .3-.1.4-.4.4h-6.9zm9.7 0c0-1.6-.5-2.9-1.5-3.9-1.1-1.1-2.6-1.7-4.5-1.7-1.2 0-2.2.2-3.1.6s-1.6 1-2.1 1.7-.9 1.5-1.1 2.3c-.2.8-.4 1.7-.4 2.6 0 .9.1 1.7.4 2.5s.6 1.6 1.1 2.3c.5.7 1.2 1.3 2.1 1.7.9.4 1.9.6 3.1.6 1.2 0 2.3-.2 3.3-.7s1.7-1.2 2-2.1c.1-.3.1-.5-.1-.8-.2-.3-.5-.4-.9-.5-.6-.1-1.1.2-1.5.7-.3.4-.7.8-1.3 1-.6.2-1.1.3-1.6.3-.8 0-1.5-.2-2-.5s-1-.7-1.2-1.2c-.3-.5-.5-1-.6-1.5-.1-.5-.2-1-.2-1.6h7.3c1 0 1.7-.2 2-.5.7-.2.8-.7.8-1.3m-15.4-4.4c0-.7-.4-1.1-1.3-1.1s-1.3.4-1.3 1.1v4.2c0 .6-.3 1.1-.8 1.6-.5.4-1.3.6-2.3.6-.9 0-1.5-.2-1.8-.6-.3-.4-.5-1.1-.5-2.1v-3.7c0-.7-.4-1.1-1.3-1.1s-1.3.4-1.3 1.1v4.3c0 2.6 1.5 4 4.6 4 1.4 0 2.5-.3 3.3-.9v4.7c0 .7.4 1.1 1.3 1.1.8 0 1.3-.4 1.3-1.1v-12.1zm-15.1 6c0 1.6-.3 2.8-.9 3.6s-1.6 1.2-2.8 1.2c-1.3 0-2.2-.4-2.8-1.2-.6-.8-.9-2-.9-3.6s.3-2.8.9-3.6c.6-.8 1.6-1.2 2.8-1.2 1.3 0 2.2.4 2.8 1.2s.9 1.9.9 3.6m-3.7-7.1c-4.3 0-6.4 2.4-6.4 7.1 0 4.7 2.1 7.1 6.4 7.1 4.3 0 6.4-2.4 6.4-7.1 0-4.8-2.2-7.1-6.4-7.1m-9.3-1.8c0-.8-.2-1.4-.5-1.9s-1-.7-2-.7h-8.6c-1 0-1.6.2-2 .7s-.5 1.1-.5 1.9V322c0 .8.5 1.2 1.4 1.2.9 0 1.4-.4 1.4-1.2v-14.5c0-.4.2-.5.6-.5h6.9c.4 0 .6.2.6.5V322c0 .8.5 1.2 1.4 1.2.9 0 1.4-.4 1.4-1.2v-14.8zm195.6-46.8c0-.7-.4-1.1-1.3-1.1-.8 0-1.3.4-1.3 1.1v12c0 .7.4 1.1 1.3 1.1s1.3-.4 1.3-1.1v-12zm-12.4 0c0-.7-.4-1.1-1.3-1.1s-1.3.4-1.3 1.1v11.2c0 .2.1.5.2.8.1.3.4.5.7.6.3.1.8.2 1.3.2h4.1c1.4 0 2.5-.4 3.4-1.2.9-.8 1.4-1.8 1.4-3.1s-.4-2.3-1.3-3.1-2-1.2-3.4-1.2h-3.9v-4.2zm0 6.3h3.6c1.5 0 2.3.8 2.3 2.3 0 .7-.2 1.3-.6 1.7-.4.4-1 .6-1.7.6h-2.9c-.2 0-.4 0-.5-.1-.1-.1-.1-.2-.1-.4v-4.1zm-13.2-7.1c-1.5 0-2.2.8-2.3 2.5-.1.7-.1 1.3-.1 1.7-.1 2.3-.2 4-.4 4.9-.2 1.3-.6 2-1 2.2-.5.3-.8.5-1 .7-.2.2-.3.6-.3 1.2v2.4c0 .7.4 1.1 1.2 1.1.8 0 1.2-.4 1.2-1.1v-1.8c0-.1.1-.2.3-.2h8.6c.2 0 .3.1.3.2v1.8c0 .7.4 1.1 1.2 1.1.8 0 1.2-.4 1.2-1.1v-2.4c0-.4-.1-.8-.4-1.1-.3-.3-.7-.4-1.2-.5v-9.9c0-.2-.1-.4-.1-.7-.1-.3-.2-.5-.4-.6-.2-.1-.4-.2-.7-.4-.3-.1-.7-.2-1.2-.2H220zm-1.2 11.7c.4-.6.6-1.4.8-2.4.2-1.1.3-2.8.5-5.3l.1-1.4c.1-.4.3-.6.6-.6h3.2c.2 0 .4 0 .5.1.1.1.1.2.1.4v9.2h-5.8zm-12.1-10.9c0-.7-.4-1.1-1.3-1.1-.8 0-1.3.4-1.3 1.1v4.4c-1.3-.3-2.3-1.1-3.1-2.5l-.4-.7c-.4-.7-.7-1.3-1-1.7-.3-.4-.8-.6-1.5-.5-.5.1-.8.2-.9.4-.2.2-.1.5.2 1 0 0 .3.6.9 1.6l.4.8c.6 1.2 1.4 2 2.3 2.5-1.4.4-2.4 1.6-3.1 3.5-.4 1.5-.9 2.6-1.2 3.4-.3.6-.1 1 .7 1.1.7.1 1.2 0 1.4-.3.4-.5.8-1.4 1.2-2.7l.1-.5c.3-1 .8-1.8 1.4-2.4.6-.6 1.4-.9 2.6-.8v5.7c0 .7.4 1.1 1.3 1.1.8 0 1.3-.4 1.3-1.1V267c1.2 0 2.1.2 2.6.7.5.5 1 1.4 1.3 2.5l.2.6c.3 1.2.7 2.1 1.1 2.6.3.3.8.4 1.5.3.7-.1 1-.5.7-1.1-.4-.9-.8-2-1.2-3.4-.6-1.9-1.6-3-3.1-3.5.9-.4 1.7-1.3 2.3-2.5l.5-1.1c.2-.5.5-.9.8-1.4.2-.4.3-.8.1-1-.2-.2-.5-.4-.9-.4-.7-.1-1.2.1-1.5.5-.3.4-.7 1-1.1 1.9 0 .1-.1.2-.1.3-.1.1-.1.2-.1.2-.8 1.4-1.9 2.3-3.1 2.5v-4.3zm-21.6 4.4c.1-1 .5-1.9 1.2-2.6.7-.8 1.6-1.1 2.7-1.1 1 0 1.8.3 2.4.9.6.6.9 1.4 1 2.4 0 .3-.1.4-.4.4h-6.9zm9.8-.1c0-1.6-.5-2.9-1.5-3.9-1.1-1.1-2.6-1.7-4.5-1.7-1.2 0-2.2.2-3.1.6-.9.4-1.6 1-2.1 1.7s-.9 1.5-1.1 2.3c-.2.8-.4 1.7-.4 2.6 0 .9.1 1.7.4 2.5s.6 1.6 1.1 2.3c.5.7 1.2 1.3 2.1 1.7.9.4 1.9.6 3.1.6 1.2 0 2.3-.2 3.3-.7s1.7-1.2 2-2.1c.1-.3.1-.5-.1-.8-.2-.3-.5-.4-.9-.5-.6-.1-1.1.2-1.5.7-.3.4-.7.8-1.3 1s-1.1.3-1.6.3c-.8 0-1.5-.2-2-.5s-1-.7-1.2-1.2c-.3-.5-.5-1-.6-1.5-.1-.5-.2-1-.2-1.6h7.3c1 0 1.7-.2 2-.5.6-.2.8-.6.8-1.3m-22.4-5.1c-1.5 0-2.2.8-2.3 2.5-.1.7-.1 1.3-.1 1.7-.1 2.3-.2 4-.4 4.9-.2 1.3-.6 2-1 2.2-.5.3-.8.5-1 .7-.2.2-.3.6-.3 1.2v2.4c0 .7.4 1.1 1.2 1.1.8 0 1.2-.4 1.2-1.1v-1.8c0-.1.1-.2.3-.2h8.6c.2 0 .3.1.3.2v1.8c0 .7.4 1.1 1.2 1.1.8 0 1.2-.4 1.2-1.1v-2.4c0-.4-.1-.8-.4-1.1-.3-.3-.7-.4-1.2-.5v-9.9c0-.2-.1-.4-.1-.7s-.2-.5-.4-.6c-.2-.1-.4-.2-.7-.4-.3-.1-.7-.2-1.2-.2h-4.9zm-1.3 11.7c.4-.6.6-1.4.8-2.4.2-1.1.3-2.8.5-5.3l.1-1.4c.1-.4.3-.6.6-.6h3.2c.2 0 .4 0 .5.1.1.1.1.2.1.4v9.2h-5.8zm-6.7-4.9c0 1.6-.3 2.8-.9 3.6s-1.6 1.2-2.8 1.2c-1.3 0-2.2-.4-2.8-1.2s-.9-2-.9-3.6.3-2.8.9-3.6c.6-.8 1.6-1.2 2.8-1.2 1.3 0 2.2.4 2.8 1.2.6.7.9 1.9.9 3.6m-3.8-7.2c-4.3 0-6.4 2.4-6.4 7.1 0 4.7 2.1 7.1 6.4 7.1 4.3 0 6.4-2.4 6.4-7.1 0-4.7-2.1-7.1-6.4-7.1m-22.8 2.3h2.8c.2 0 .4 0 .5.1s.1.2.1.4v3.8h-3.2c-.8 0-1.4-.2-1.9-.6-.5-.4-.8-.9-.8-1.5 0-.7.2-1.3.7-1.7.4-.3 1-.5 1.8-.5m3.4 6.3v4.6c0 .7.4 1.1 1.3 1.1s1.3-.4 1.3-1.1V262c0-.8-.2-1.5-.5-1.9-.3-.4-.9-.6-1.9-.6h-3.8c-1.5 0-2.7.4-3.7 1.1s-1.4 1.8-1.4 3.1c0 .8.3 1.5.8 2.1.5.6 1.2 1.1 2.1 1.3-.6.4-1.1 1.1-1.6 2.2-.6 1.2-1.1 2.1-1.6 2.8-.2.3-.2.5-.1.8s.4.4.8.5c.6.1 1.2-.1 1.6-.5.5-.5 1-1.4 1.5-2.8.6-1.6 1.7-2.4 3.4-2.4h1.8zm-12.4 1.6c-.6-.1-1.1.2-1.4.8-.5.9-1.3 1.3-2.4 1.3-2.5 0-3.7-1.7-3.7-5.2 0-3.4 1.2-5.2 3.7-5.2 1.2 0 2.1.5 2.5 1.5.2.5.6.8 1.3.8h.1c.4-.1.7-.2.8-.4.2-.2.2-.5.1-.9-.2-.8-.7-1.5-1.6-2.1-.9-.6-2-.9-3.3-.9-4.3 0-6.4 2.4-6.4 7.1 0 4.7 2.1 7.1 6.4 7.1 1.3 0 2.4-.3 3.3-.9s1.4-1.2 1.6-1.9c.1-.5 0-.8-.2-.9-.1 0-.4-.2-.8-.2m-19.6-9.8c-.4 0-.8.1-1.1.2-.3.1-.6.3-.7.4-.2.2-.3.4-.4.7-.1.3-.2.5-.2.7 0 .2 0 .5-.1.8 0 .3-.1.9-.2 2-.2 2.6-.3 4.2-.5 4.9v.2c-.1.6-.2 1.1-.4 1.4-.2.3-.5.4-1 .4-.6 0-.9.4-.9 1.1 0 .3.1.5.3.7s.5.3.9.3c1.1.1 1.9-.2 2.5-.9.6-.7.9-1.6 1.1-2.9.1-1 .3-3.1.5-6.1l.1-1.3c0-.4.3-.6.7-.6h2.7c.4 0 .6.2.6.5v10.4c0 .7.4 1.1 1.3 1.1s1.3-.4 1.3-1.1v-11.1c0-.2-.1-.4-.1-.7s-.2-.5-.3-.6c-.2-.1-.4-.3-.7-.4-.3-.1-.7-.2-1.1-.2h-4.3zm-10.7 14.8l5.5-13.9c.2-.4.1-.7-.2-.8s-.7-.3-1.1-.3c-.8 0-1.2.3-1.5 1l-2.9 7.9c-.1.3-.3.6-.4 1-.1-.4-.2-.8-.3-.9l-3.2-7.9c-.3-.6-.7-1-1.5-1-.5 0-.8.1-1.1.3-.3.2-.3.5-.1.8.5 1.4 1.3 3.4 2.4 6 1.1 2.7 1.9 4.7 2.4 6l-.6 1.8c-.2.5-.4.8-.7 1.1-.3.2-.6.3-1.1.2-.9-.2-1.3 0-1.4.8 0 .4 0 .7.2.9.2.2.4.4.7.4.3.1.7.1 1.1.1.6 0 1.1-.1 1.5-.3.4-.2.8-.5 1.1-.9s.5-.7.7-1c.1-.4.3-.8.5-1.3zm-17.6-14c0-.7-.4-1.1-1.3-1.1s-1.3.4-1.3 1.1v12c0 .7.4 1.1 1.3 1.1s1.3-.4 1.3-1.1V267h5.9v5.4c0 .7.4 1.1 1.3 1.1s1.3-.4 1.3-1.1v-12c0-.7-.4-1.1-1.3-1.1s-1.3.4-1.3 1.1v4.7H81v-4.7zm-6.8 9c-.6-.1-1.1.2-1.4.8-.5.9-1.3 1.3-2.4 1.3-2.5 0-3.7-1.7-3.7-5.2 0-3.4 1.2-5.2 3.7-5.2 1.2 0 2.1.5 2.5 1.5.2.5.6.8 1.3.8h.1c.4-.1.7-.2.8-.4.2-.2.2-.5.1-.9-.2-.8-.7-1.5-1.6-2.1-.9-.6-2-.9-3.3-.9-4.3 0-6.4 2.4-6.4 7.1 0 4.7 2.1 7.1 6.4 7.1 1.3 0 2.4-.3 3.3-.9s1.4-1.2 1.6-1.9c.1-.5 0-.8-.2-.9-.2 0-.4-.2-.8-.2m-14.9-3c0 1.6-.3 2.8-.9 3.6-.6.8-1.6 1.2-2.8 1.2-1.3 0-2.2-.4-2.8-1.2s-.9-2-.9-3.6.3-2.8.9-3.6c.6-.8 1.6-1.2 2.8-1.2 1.3 0 2.2.4 2.8 1.2.6.7.9 1.9.9 3.6m-3.8-7.2c-4.3 0-6.4 2.4-6.4 7.1 0 4.7 2.1 7.1 6.4 7.1 4.3 0 6.4-2.4 6.4-7.1.1-4.7-2.1-7.1-6.4-7.1M37.4 256c0-.8-.5-1.2-1.4-1.2s-1.4.4-1.4 1.2v16.4c0 .8.5 1.1 1.4 1.1s1.4-.4 1.4-1.1v-8c.8 0 1.5.1 2.1.3s1.1.5 1.6 1c.4.5.8.9 1.1 1.4.3.5.6 1.1.8 1.8l.3.9c.6 1.6 1.1 2.7 1.6 3.3.4.4.9.5 1.6.4.9-.2 1.2-.6.8-1.3-.5-.8-1.1-2.3-1.8-4.4-.9-2.5-2.4-4.1-4.4-4.6 1.3-.6 2.4-1.6 3.1-2.9l.3-.4c.9-1.5 1.5-2.6 2-3.2.2-.3.4-.6.4-.9 0-.4-.3-.7-.9-.8-.8-.1-1.4.1-1.9.7-.4.4-.9 1.2-1.5 2.4-.3.5-.5.9-.7 1.3-.6.9-1.2 1.6-1.8 2.1-.7.5-1.5.8-2.6.9V256z" fill="#231f20"/><path class="st2" d="M292.3 449c-1.6 0-2.5-.8-2.5-2.4 0-1.6.8-2.3 2.5-2.3h50.9c1.6 0 2.5.8 2.5 2.3 0 1.6-.8 2.4-2.5 2.4h-50.9zm85.2-5.8h14.4v-11.5c0-1.7 1-2.6 3.1-2.6s3.1.9 3.1 2.6v29.5c0 1.8-1 2.6-3.1 2.6s-3.1-.9-3.1-2.6v-13.1h-14.4v13.1c0 1.8-1 2.6-3.1 2.6s-3.1-.9-3.1-2.6v-29.5c0-1.7 1-2.6 3.1-2.6s3.1.9 3.1 2.6v11.5zm50.4 15.3c-2.6 3.7-6.5 5.6-11.7 5.6-3.4 0-6.2-.9-8.4-2.7-2.2-1.8-3.3-4.3-3.3-7.6 0-7.8 6.4-11.8 19.3-11.8 1 0 2 0 2.8.1h1.3c0-2.1-.2-3.7-.6-5-.9-2.3-3.5-3.5-7.7-3.5-2.9 0-5.4.8-7.4 2.3-.6.5-1.2.7-1.9.7s-1.4-.3-2.2-.8c-.7-.5-1-1-1-1.8 0-.7.5-1.4 1.4-2.2 2.7-2.1 6.7-3.1 12-3.1 4.9 0 8.4 1.1 10.5 3.4 2.1 2.2 3.2 5.7 3.2 10.3v13.8c0 1.6.1 3 .3 4 .2 1.7-.5 2.7-2.3 3-2.1.2-3.4-.5-3.7-2.2-.5-1.4-.6-2.3-.6-2.5zm0-11.7c-1.9-.1-3.4-.2-4.5-.2-1.5 0-2.9.1-4.2.3-1.3.2-2.6.6-3.9 1.1-1.3.5-2.3 1.3-3.1 2.3-.8 1-1.1 2.3-1.1 3.7 0 1.7.6 3 1.7 4 1.1.9 2.6 1.4 4.4 1.4 3.1 0 5.7-1.1 7.7-3.2 2.3-2.4 3.3-5.5 3-9.4zm34.2-17c1.1 0 2.1.1 2.9.4.8.3 1.4.6 1.8.9.4.3.7.8.9 1.5s.3 1.2.3 1.6v24.3c1.2.1 2.2.5 2.8 1.2s1 1.6 1 2.7v5.8c0 1.7-.9 2.6-2.8 2.6s-2.8-.9-2.8-2.6v-4.4c0-.3-.2-.5-.6-.5h-21c-.4 0-.6.2-.6.5v4.4c0 1.7-.9 2.6-2.8 2.6s-2.8-.9-2.8-2.6v-5.8c0-1.3.3-2.2.8-2.8.5-.6 1.3-1.2 2.5-1.8 1-.5 1.9-2.4 2.5-5.5.3-2.3.6-6.3.9-12 0-1.1.1-2.5.3-4.2.3-4.2 2.2-6.2 5.7-6.2h11zm-.5 28.7v-22.6c0-.4-.1-.7-.3-.9-.2-.2-.5-.3-1.1-.3h-7.7c-.8 0-1.3.5-1.5 1.4l-.2 3.5c-.3 6-.7 10.4-1.1 13-.3 2.5-1 4.5-1.9 5.9h13.8zm44.8-12.1c0 11.6-5.2 17.4-15.7 17.4s-15.8-5.8-15.8-17.4c0-11.7 5.3-17.5 15.8-17.5 10.5.1 15.7 5.9 15.7 17.5zm-8.7-8.9c-1.5-1.9-3.8-2.9-7-2.9s-5.5 1-6.9 2.9c-1.5 1.9-2.2 4.9-2.2 8.9s.7 7 2.2 8.9c1.5 1.9 3.8 2.9 6.9 2.9s5.5-1 7-2.9 2.3-4.9 2.3-8.9c-.1-4-.8-7-2.3-8.9zm58.9-7.3c.8.3 1.4.8 1.8 1.6.3.7.5 1.4.6 1.9.1.5.1 1.3.1 2.4v25.2c0 1.8-1 2.6-3.1 2.6s-3.1-.9-3.1-2.6v-25.5c0-.8-.5-1.1-1.4-1.1h-11.7c-.5 0-.9.1-1.1.3s-.3.5-.3.9v25.5c0 1.8-1 2.6-3.1 2.6s-3.1-.9-3.1-2.6v-25.2c0-1 0-1.8.1-2.3.1-.5.3-1.2.6-1.9s.9-1.2 1.7-1.6c.8-.3 1.9-.5 3.2-.5h15.6c1.3-.1 2.4 0 3.2.3zm41 16.2c0 11.6-5.2 17.4-15.7 17.4s-15.8-5.8-15.8-17.4c0-11.7 5.3-17.5 15.8-17.5 10.4.1 15.7 5.9 15.7 17.5zm-8.8-8.9c-1.5-1.9-3.8-2.9-7-2.9-3.1 0-5.5 1-7 2.9s-2.2 4.9-2.2 8.9.7 7 2.2 8.9c1.5 1.9 3.8 2.9 7 2.9 3.1 0 5.5-1 7-2.9s2.3-4.9 2.3-8.9-.8-7-2.3-8.9zm28.8 14.8l-3.2-5.3-3.2-5.3v-.1c-.3-.5-.6-1.1-.9-1.7v21.3c0 1.8-1 2.6-3 2.6-1.9 0-2.9-.9-2.9-2.6v-29.4c0-1.7 1.2-2.6 3.5-2.6 1.5 0 2.8.8 3.8 2.3l9.3 15.6 9.3-15.6c1-1.6 2.2-2.3 3.8-2.3 2.2 0 3.3.9 3.3 2.6v29.4c0 1.8-1 2.6-2.9 2.6s-2.9-.9-2.9-2.6v-21.3l-.9 1.8-6.4 10.6c-1 1.6-2.1 2.3-3.3 2.3-1.3 0-2.5-.8-3.4-2.3zm35-10h9.7c3.6 0 6.4 1 8.4 2.9 2.1 1.9 3.1 4.4 3.1 7.5 0 3.1-1.1 5.6-3.3 7.6-2.2 2-5 3-8.3 3h-10.1c-1.3 0-2.4-.2-3.3-.5-.8-.3-1.4-.9-1.8-1.6-.3-.7-.5-1.3-.6-1.9-.1-.5-.1-1.3-.1-2.3v-25.2c0-1.8 1-2.6 3.1-2.6s3.1.9 3.1 2.6v10.5zm0 15c0 .5.1.8.3.9.2.1.6.2 1.2.2h7.2c1.8 0 3.2-.5 4.2-1.4 1-1 1.4-2.3 1.4-4.1 0-3.8-1.9-5.7-5.7-5.7h-8.7v10.1zm30.4 4c0 1.7-1 2.6-3.1 2.6s-3.1-.9-3.1-2.6v-29.5c0-1.8 1-2.6 3.1-2.6s3.1.9 3.1 2.6v29.5zm29-31.5c1.6 0 2.3.8 2.3 2.4 0 1.6-.8 2.5-2.3 2.5h-7.5v26.6c0 1.8-1 2.6-3.1 2.6s-3.1-.9-3.1-2.6v-26.6h-7.4c-1.6 0-2.4-.8-2.4-2.5 0-1.6.8-2.4 2.4-2.4H712zm14.1 12.5h9.7c3.5 0 6.3 1 8.4 2.9 2.1 1.9 3.1 4.4 3.1 7.5 0 3.1-1.1 5.6-3.3 7.6-2.2 2-5 3-8.3 3h-10.1c-1.1 0-2.1-.1-2.8-.4-.8-.3-1.3-.6-1.7-.9-.4-.3-.7-.8-.9-1.5-.2-.7-.3-1.2-.3-1.6v-27.1c0-1.7 1-2.6 3.1-2.6s3.1.9 3.1 2.6v10.5zm0 14.9c0 .8.5 1.2 1.4 1.2h7.2c3.8 0 5.7-1.8 5.7-5.5 0-3.8-1.9-5.7-5.7-5.7H726v10zm51.8-23.3c2.7-3.3 6.2-5 10.6-5 9.3 0 13.9 5.9 13.9 17.5 0 2.5-.3 4.7-.8 6.8-.5 2-1.3 3.9-2.5 5.5-1.1 1.7-2.6 2.9-4.6 3.9-1.9.9-4.2 1.4-6.8 1.4-3.8 0-6.9-1.4-9.5-4.3v12.6c0 1.7-1.1 2.6-3.2 2.6s-3.1-.9-3.1-2.6v-40.6c0-1.7 1-2.6 3.1-2.6 2 0 3 .9 3 2.6v2.2zm2.7 21.4c1.6 2.3 3.9 3.5 6.8 3.5 5.4 0 8.1-4.1 8.1-12.3s-2.7-12.3-8.1-12.3c-2.9 0-5.2 1-6.8 3.1-1.6 2.1-2.4 4.5-2.4 7.2v3.1c0 2.8.8 5.4 2.4 7.7zm40.9 10.8c-.5 1.3-1 2.3-1.4 3-.4.7-.9 1.6-1.6 2.5-.7 1-1.6 1.7-2.7 2.1-1 .4-2.3.7-3.6.7-.9 0-1.8-.1-2.6-.3-.6-.1-1.2-.5-1.6-1.1-.4-.6-.6-1.3-.5-2.2.2-1.8 1.4-2.5 3.5-1.9h-.1c1.2.2 2.1 0 2.8-.5.6-.5 1.2-1.4 1.6-2.6l1.6-4.3c-1.3-3.3-3.3-8.3-6-14.8-2.7-6.6-4.6-11.5-5.9-14.8h.1c-.4-.9-.3-1.6.3-2.1s1.5-.7 2.6-.7c1.8 0 3 .8 3.6 2.4l7.7 19.5h-.1c.2.5.5 1.2.8 2.3.3-.9.5-1.7.9-2.4v.1l7.2-19.4c.6-1.6 1.8-2.5 3.6-2.5 1.1 0 2 .2 2.7.7s.9 1.2.5 2.1h.1l-13.5 34.2zm25.4-23.4c2.1-.3 3.8-.8 5.1-1.7 1.3-.9 2.4-2.2 3.5-3.8v.1l1.6-2.7c1-1.8 1.9-3.1 2.6-4 1-1 2.2-1.4 3.6-1.3 2.4.2 3 1.3 1.9 3.2-.9 1.4-1.6 2.5-2 3.2-.2.3-.4.6-.7 1.1-.3.5-.6 1-.8 1.4-.3.4-.5.8-.8 1.1-1.6 2.2-3.4 3.9-5.5 5.2 3.3.9 5.8 3.8 7.6 8.6.8 2.2 1.7 4.2 2.6 6l1.1 2.2c.7 1.5.1 2.4-1.7 2.7-1.7.3-2.9 0-3.5-.8-.9-1-2-2.9-3.1-5.8l-.7-1.8c-1.1-2.9-2.4-5-3.8-6.3-1.4-1.2-3.7-1.8-7-1.7v13.8c0 1.8-1 2.6-3.1 2.6s-3.1-.9-3.1-2.6v-29.5c0-1.7 1-2.6 3.1-2.6s3.1.9 3.1 2.6v10.8zm54.4 18.5c0 1.8-1 2.6-3.1 2.6s-3.1-.9-3.1-2.6v-21.7c-.4.6-.8 1.3-1.4 2.1l-.8 1.2-13.7 19.8c-.6.8-1.6 1.2-2.8 1.2-2.1 0-3.1-.9-3.1-2.6v-29.5c0-1.7 1-2.6 3.1-2.6s3.2.9 3.2 2.6v22c.1-.2.9-1.4 2.4-3.8l13.5-19.6c.5-.7 1.4-1.1 2.7-1.1 2.1 0 3.1.9 3.1 2.6v29.4zm9.5-41.8c.8-.7 1.9-1.1 3.2-1.1 1.5 0 2.6.3 3.4 1 .8.7 1.1 1.6 1 2.9l-2.2 28.9c-.1 1.1-.9 1.7-2.2 1.7-1.3 0-1.9-.6-2.1-1.7-.2-2.1-.4-5.1-.7-9-.3-4-.6-7.6-.8-10.9-.3-3.3-.5-6.3-.6-9-.2-1.2.1-2.1 1-2.8zm3.2 36.4c1.6 0 2.8.3 3.4 1 .6.6.9 1.6.9 3s-.3 2.4-.9 3.1c-.6.7-1.7 1-3.4 1-2.8 0-4.2-1.4-4.2-4.2 0-2.6 1.4-3.9 4.2-3.9z"/></svg>