<svg version="1.1" id="Layer_1_1_" xmlns="http://www.w3.org/2000/svg" x="0" y="0" viewBox="0 0 1000 927" xml:space="preserve"><style>.st4{fill:#ff6900}.st19{fill:none;stroke:#231f20;stroke-width:3.3326;stroke-linecap:round;stroke-linejoin:round}.st32{fill:#231f20}</style><path class="st32" d="M339.9 799.8c8.2-5.8 18.7-18.9 18.7-18.9s3.4 25.4-2.7 29.2c-6.1 3.7-16-10.3-16-10.3z"/><path class="st19" d="M889.9 468.5c25.4 1.6 62.9 45.9 8.4 131.2-17.7 27.7 10.3 55.6 10.3 55.6s-71.2 10.2-80.9 1.2c1.1-7 1.8-18.4-3.4-35.3 0 0-31.7 3.5-39.4-9.1-7.7-12.8.1-150.2 105-143.6"/><path d="M868.3 647.1c-18.5 3.6-56 11.5-95.6 37.1-15.1 9.7-28.2 68.1-28.2 68.1s-5.5-1.8-6.6 4.3c-1.1 6.1-2.6 16.9-2.6 16.9s16.6 23.9 52.4 21.9c0 0-5.2 103.2 11.3 120.4h124.8S992 703 961.1 684.6c-44-26.4-66.6-44.2-92.8-37.5" fill="#fff"/><path class="st19" d="M928.3 915.8s61.7-188.2 45.3-220.2c-5.9-11.5-47.4-34.6-63.9-44.2-1.6 7-43.5 12.1-77.5 5.1-11.8 6-31.6 12.9-55.1 27.8-15.1 9.6-28.2 68.1-28.2 68.1s-5.5-1.8-6.6 4.3c-1.1 6.1-2.6 16.9-2.6 16.9s16.6 23.9 52.4 21.9c0 0-5.2 103.2 11.3 120.4m-15.9-352c-1.4 1-2.7 1.4-4.1 1.2-5.3-.9-7.8-12.2-5.6-25.2s8.3-22.8 13.7-21.9c3.3.6 5.5 5 6.2 11.4"/><path class="st19" d="M827.7 656.5s1.8-18.4-3.4-35.3c0 0-31.7 3.5-39.4-9.1-7.7-12.7.1-150.1 105-143.5 25.4 1.6 90.8 72.4 8.4 131.2-37 26.2-18.3 47.6-18.3 47.6"/><path class="st19" d="M971 684.7s16.5-20.2-3.3-44.6c0 0-.6-16.9-18.6-29.3 0 0 8.7-22.7-4.1-41.4 3-7.7 5.2-16.4 6.4-26.5 8.4-72.5-64.5-94.7-89-74.8 0 0-43-.5-56.4 25-13.4 25.5 17.9 60 17.9 60s8.9-7.7 18-.2c10.8 8.8-12.8 38.3-15 36.2-1.3-1.2 3.3 11.6 15.1 20.1-4.6 10.5-7.7 26.8 6.7 42.3 0 0-8.1 37.2 15 46.1 0 0-2.1 36.9 23.3 37 0 0-14.9 38 12.8 54.6 27.7 16.6 13.2 28.9 13.2 28.9s25.8-18.5 18.5-38.8c-7.3-20.3-29.3-21.4-33.9-45.2 0 0 21.1-18.7 4.2-48.2 0 0 2.3-18.1-14.7-34.4 0 0 9-15.4 6.3-33.2 6.5-2.2 14.7-5.7 22.8-11.4 1.9 2 4 3.9 6.4 5.8 0 0-1.9 35.2 20.5 39.9 0 0-4.9 37.8 18.4 34.1 0 0 17.4 7.4 3.6 33.9-21 40.5 20.9 48.9 20.9 48.9s-7.8-17.2 7.5-41c11-17.1-5.6-38.7-22.5-43.8"/><path class="st19" d="M971 684.7s16.5-20.2-3.3-44.6c0 0-.6-16.9-18.6-29.3 0 0 8.7-22.7-4.1-41.4 3-7.7 5.2-16.4 6.4-26.5 8.4-72.5-64.5-94.7-89-74.8 0 0-43-.5-56.4 25-13.4 25.5 17.9 60 17.9 60s8.9-7.7 18-.2c10.8 8.8-12.8 38.3-15 36.2-1.3-1.2 3.3 11.6 15.1 20.1-4.6 10.5-7.7 26.8 6.7 42.3 0 0-8.1 37.2 15 46.1 0 0-2.1 36.9 23.3 37 0 0-14.9 38 12.8 54.6 27.7 16.6 13.2 28.9 13.2 28.9s25.8-18.5 18.5-38.8c-7.3-20.3-29.3-21.4-33.9-45.2 0 0 21.1-18.7 4.2-48.2 0 0 2.3-18.1-14.7-34.4 0 0 9-15.4 6.3-33.2 6.5-2.2 14.7-5.7 22.8-11.4 1.9 2 4 3.9 6.4 5.8 0 0-1.9 35.2 20.5 39.9 0 0-4.9 37.8 18.4 34.1 0 0 17.4 7.4 3.6 33.9-21 40.5 20.9 48.9 20.9 48.9s-7.8-17.2 7.5-41c11-17.1-5.6-38.7-22.5-43.8z"/><path class="st32" d="M969.4 685.8s15.5-21-5.6-44.4c0 0-1.5-16.9-20-28.3 0 0 7.6-23.1-6.2-41.1 2.6-7.8 6.6-15.8 7.2-26 4.7-72.8-55.6-99-79-77.9 0 0-50.7-12.2-66.6 31.1-10.9 29.7 18 60.2 18 60.2s15.5-17.2 24.5-6.5-12.7 38.2-15 36.2c-1.3-1.2 2.9 12.2 15.1 20.1-4.1 10.7-11.5 34.7 3.7 49.5 0 0-6.3 37.5 17.3 45.3 0 0-.3 37 25.1 35.7 0 0-13 38.7 15.5 53.9 28.5 15.2 14.6 28.2 14.6 28.2s24.8-19.8 16.5-39.7c-8.3-19.9-30.3-19.9-36.1-43.5 0 0 20.2-19.7 1.8-48.3 0 0 1.4-18.2-16.4-33.6 0 0 4.9-19.4 1.3-37 3.7 0 17.7-2.8 25.5-9 1.9 1.9 4.2 3.7 6.7 5.5 0 0-.1 35.2 22.5 38.9 0 0-3 38 20.1 33.1 0 0 17.7 6.5 5.3 33.7-18.9 41.5 23.3 47.8 23.3 47.8s-8.7-16.8 5.4-41.3c10.3-17.7-7.3-38.4-24.5-42.6"/><path class="st19" d="M780.1 534s59.4 9 72.1 20.2c11.1 9.9 5.8 27.8-10 28.9"/><path class="st19" d="M971 684.7s16.5-20.2-3.3-44.6c0 0-.6-16.9-18.6-29.3 0 0 8.7-22.7-4.1-41.4 3-7.7 5.2-16.4 6.4-26.5 8.4-72.5-64.5-94.7-89-74.8 0 0-43-.5-56.4 25-13.4 25.5 17.9 60 17.9 60s8.9-7.7 18-.2c10.8 8.8-12.8 38.3-15 36.2-1.3-1.2 3.3 11.6 15.1 20.1-4.6 10.5-7.7 26.8 6.7 42.3 0 0-8.1 37.2 15 46.1 0 0-2.1 36.9 23.3 37 0 0-14.9 38 12.8 54.6 27.7 16.6 13.2 28.9 13.2 28.9s25.8-18.5 18.5-38.8c-7.3-20.3-29.3-21.4-33.9-45.2 0 0 21.1-18.7 4.2-48.2 0 0 2.3-18.1-14.7-34.4 0 0 9-15.4 6.3-33.2 6.5-2.2 14.7-5.7 22.8-11.4 1.9 2 4 3.9 6.4 5.8 0 0-1.9 35.2 20.5 39.9 0 0-4.9 37.8 18.4 34.1 0 0 17.4 7.4 3.6 33.9-21 40.5 20.9 48.9 20.9 48.9s-7.8-17.2 7.5-41c11-17.1-5.6-38.7-22.5-43.8zm-77.8-52.4s3.7 12.5 12.1 19.1m-30.4-181c25.2 4.9 40.5 27.2 42.7 47.6M745.9 780.1c-11.1 48.8-16.1 61.2-16.1 61.2m57.9-45.9c-1.6 19.1-38.5 120.4-38.5 120.4m-82.5-7.2s26.2-145.5 27-163.1M517.9 585c1-9.4-36.1-17.4 7.2-85.3 0 0 4.1-46.4 38.2-56.7 34.1-10.3 92.5-14 113 43s-46.4 109.2-71.5 114.6c0 0-.7 10.2 3.9 15.7 21.3 9.7 42.6 22.5 48.8 29.4l-193.1-41s29.8 1.3 55.5-5.7c2.1-2.9-.5-2.5-2-14M484 607.5c22.4-3.6 46-11 46-11"/><path class="st19" d="M521.2 599.8s-3.2-9.8-3.3-14.8c-.1-9.5-34.2-19.9 7.2-85.3 0 0 4.1-46.4 38.2-56.7 34.1-10.3 92.5-14 113 43s-46.4 109.2-71.5 114.6c0 0-2.5-.8 3.9 15.7 0 0 25.5 10.4 38.4 21.1"/><path class="st4" d="M375.3 654.1c15.5-14.6 34.5-55.7 124.9-52.4 52.2 25.5 142.8 35.7 145.5 30.4 98.7 46.6 94.6 79.5 106 226.7 0 0-50 17.1-78.6 14.3l-13.5 43.7H373.2S395 838.9 391.7 782l-35.4 30.2s6.2-46.7-27.5-109.8c0 .1 32-34.8 46.5-48.3"/><path class="st19" d="M736.8 852.3c-1.9 19.9-11 57.6-13.2 65.4m-355.3-4s31.2-106.4 24.3-143.6l-39.6 42s22.7-9.7-30-117.4c0 0 33.1-35.2 47.5-48.8 15.5-14.6 45.2-47.3 134.4-44 20 14.3 133 35.5 132.8 24 72.9 38.6 102.2 47.9 116.9 223.5m-89.9 65.2s37-118.4 35-199m54.9 133.8s-32.7 8.1-74.4 9.8M526.6 490.3c-9.9-8.3-24.8-3.6-24.8-3.6"/><path class="st19" d="M565 502.7l-63.1-16c-3.3 16.2-2.7 33.3 10 33.3"/><path class="st4" d="M571.1 514.8c18.9-7.7 24.2-6.2 24.2 5.4 0 11.6-18.4 34.3-24.2 28-5.8-6.3-15.5 16 3.4 26.6-5.8 16.5 8.2 34.9 32.9 34.9-6.9-6.9.5-8.2 13.1-6.8 12.6 1.5 12.6-15 17.4-15 4.8 0 34.8-1.4 27.5-21.4 31-29.4 42.2-55 24.3-66.7.6-24.7-10.5-27.2-10.5-27.2s27-20.3 1-33.6c7.2 12.8-4.8 16.4-9.7 9.9-2.9-3.8-27.3-46-48.2-35.3-43.6-10.2-78-.5-61.8 9.2-35.5 6.8-73.1 28.1-20.7 55.2-9-14.5 14.1-16.5 20.7-11.6-10.4 11.6 2.7 25.7 7.5 26.2-10 6.7 3.1 22.2 3.1 22.2z"/><path class="st19" d="M575.4 512.6c18.9-7.7 24.2-6.2 24.2 5.4 0 11.6-18.4 34.3-24.2 28-5.8-6.3-15.5 16 3.4 26.6-5.8 16.5 8.2 34.9 32.9 34.9-6.9-6.9.5-8.2 13.1-6.8s12.6-15 17.4-15 34.8-1.4 27.5-21.4c31-29.4 42.2-55 24.3-66.7.6-24.7-10.5-27.2-10.5-27.2s27-20.3 1-33.6c7.2 12.8-4.8 16.4-9.7 9.9-2.9-3.8-27.3-46-48.2-35.3-43.6-10.2-78-.5-61.8 9.2-35.5 6.8-73.1 28.1-20.7 55.2-9-14.5 14.1-16.5 20.7-11.6-10.4 11.6 2.7 25.7 7.5 26.2-10 6.7 3.1 22.2 3.1 22.2zM331.9 726.7c-6-42-20.8-44.6-44.5-96.5s-10.9-44.4-9.5-61.3c1.4-16.9-.5-30.2-1.9-36.2-4.3-18.4 3.6-30.1-1.4-32.4-6.6-3-14.8 16.8-13.3 35.4 1.4 18.2-33.2-63.3-47.1-63.9-4.3-.2-5.8 2.3-1.9 9.9 19.9 39.3 14.9 43.4 14.9 43.4s-19.4-41.2-33.3-48.9c-5.9-3.3-4.9 4 .9 15 8.3 19.6-.2 13.3 5.1 35.9 4.8 20.6-3.6 16 2.4 30 9 24.7 23.2 40.4 31.6 56.5 6 13.3 16.2 93.1 43.5 147.7 17.4 34.9 34.6 47.3 48.6 45.8s26.1-19 26.1-19M565 502.7c8.7 2 17.4 7.8 17.4 7.8m10.3 22.4c1.2 7.1 5.2 11.1 5.2 11.1m-31.1 90.3l35.9 6.1m-29.6 5.9l21.5 3.7"/><path class="st19" d="M196.1 495c2.5 8.1 9.7 21 11.7 26.1 1.5 3.7 3.1 6.2 5 14.3m-8.2 10.6c-.8-4.1-4.9-18.8-4.9-18.8m35.9 0c0 4.1 1.1 6.5 1.1 6.5m100.9 268.7c6.6 12.2 15.4 9.7 15.4 9.7M3.3 916.3l2.1.2m57-.1l879.9 1.3m-928.7-1.4l30.7.2m950.9 1.2l2.6.1m-33-.1l16.8.1"/></svg>