<svg version="1.1" id="Layer_1_1_" xmlns="http://www.w3.org/2000/svg" xmlns:xlink="http://www.w3.org/1999/xlink" x="0" y="0" viewBox="0 0 1000 771.2" xml:space="preserve"><style>.st1,.st2{clip-path:url(#SVGID_2_)}.st1{fill:none;stroke:#211f1f;stroke-width:3.34;stroke-linecap:round;stroke-linejoin:round;stroke-miterlimit:10}.st2{fill:#ff6900}</style><defs><path id="SVGID_1_" d="M0 57h1000v703.2H0z"/></defs><clipPath id="SVGID_2_"><use xlink:href="#SVGID_1_" overflow="visible"/></clipPath><path d="M1.7 757.1l2.1.1m77.1 0l642.3.9m-711.2-1l50.7.2m926.4 1.2l9.2.1m-262.4-.4l226.9.3" clip-path="url(#SVGID_2_)" fill="none" stroke="#231f20" stroke-width="3.34" stroke-linecap="round" stroke-linejoin="round"/><path class="st1" d="M278.6 447.7c-7.1-6.3-1.5-65.8 10.3-82.6 11.8-16.8 19.8-24.9 23.8-39.9 4-14.9 55.4-56.8 98.3-22.4 38.8 31 36.8 93.5-23.2 128.2-37.5 21.6 4.7 96.5 4.7 96.5s-49.8 17.3-84.3 14.9v-79.3c-11-8.3-22-8.6-29.6-15.4z"/><path class="st2" d="M214.8 548c15.1-11.1 31.7-25.2 96.6-35.7 64.9-10.5 113.7-3.1 139 8.1 16.4 7.3 43.1 42.8 51.1 80.7 0 0-15.8 26.4-59.2 37.2L433 615s4.3 117.9-5.2 142.4H254.4s-14.3-71.8-17.1-85.3c0 0-40.2 6.9-61.2-8.4 0 0 21.9-103.3 38.7-115.7"/><path class="st1" d="M238.7 672.9c-.1 71.7.3 72.5 3.5 84.3m-47.4-87.8s-2.2 64.7 0 87.8m251-67.8s17.6 4.7 28.5 4.5m-16.5-54.5s16.8 52.5 19.5 66.9m21.9-89.5s37.7 114.9 23.1 123.4c-14.6 8.5-77.4-10.5-77.4-10.5m-183 27.5s-14.2-71.7-17.1-85.1c0 0-40.1 6.9-61-8.4 0 0 21.8-103 38.6-115.4 15.1-11.1 31.6-25.2 96.3-35.7 64.7-10.5 113.4-3.1 138.6 8.1 16.4 7.3 44 47 51.9 84.8 0 0-15.7 25.2-59 36l-5.3-12.3s4.3 103.6-5.1 128"/><path class="st2" d="M388 464.6c-33.4 7-57.9-14.1-46.8-28.1 11.1-14.1-8.9-17.9 2.3-27.7 11.1-9.8 34-46.1 11.7-39.7-22.3 6.4-22.3 10-22.3 10l-10.6-3.5s26.5-17 18.8-25.2c-7.7-8.2-28.2 8.2-15.3-16.4 12.9-24.6-25.8-11.1-28.1-24-2.3-12.9 10-49.8 35.2-25.8-9.4-1.2-23.3 16.4 8.3 4.1 31.6-12.3 48.4-11.7 50.3-2.9 1.9 8.8 25.8-5.4 35.2 6.4 9.4 11.8 10.1 16.5 13.3 27 21.3 1.8 36.5 38.7 27.7 39.3-8.8.6 10.6 19.9-12.3 42.8s-35.8 8.2-34 24c1.8 15.8-18.8 25.2-28.7 29.9-9.9 4.5-4.7 9.8-4.7 9.8"/><path class="st1" d="M475.6 346.3c2.3 6.4 2.3 11.4-.9 11.6-6.5.4 2.4 11.1-1.8 25.8m-1.9 5.2c-1.8 3.7-4.5 7.6-8.5 11.7-22.7 22.8-35.6 8.2-33.8 23.9 1.8 15.8-18.7 25.1-28.6 29.8-9.9 4.7-4.7 9.9-4.7 9.9-33.2 7-57.6-14-46.6-28s-8.8-17.8 2.3-27.6c11.1-9.8 33.8-45.9 11.7-39.5-22.2 6.4-22.2 9.9-22.2 9.9l-10.5-3.5s26.4-16.9 18.7-25.1c-7.7-8.2-28.1 8.2-15.2-16.3 12.8-24.5-25.7-11.1-28-23.9-2.3-12.8 9.9-49.6 35-25.7-9.3-1.2-23.2 16.3 8.2 4.1 31.4-12.3 48.1-11.7 50.1-2.9 1.9 8.7 25.7-5.4 35 6.4 9.3 11.7 10.1 16.4 13.2 26.9 7.1.6 12.1 3.7 16.1 8.4m3.3 4.2c1 1.6 2 3.2 2.9 5"/><defs><path id="SVGID_3_" d="M0 57h1000v703.2H0z"/></defs><clipPath id="SVGID_4_"><use xlink:href="#SVGID_3_" overflow="visible"/></clipPath></svg>