<svg version="1.1" id="Layer_1_1_" xmlns="http://www.w3.org/2000/svg" x="0" y="0" viewBox="0 0 1000 862.2" xml:space="preserve"><style>.st9{fill:#fdf2e8}</style><path class="st9" d="M956.6 256.9c-.3-10.5-.3-10.5-3.2-10.4 0-8.8 0-8.8-27.1 6.1.3 26.2 25.3 47.4 51.4 47.4 5.6 0 11-1 16.1-2.9-18.6-1.6-37.9-21.1-37.2-40.2"/><path class="st9" d="M448.1 201.1s-46.5 0-46.5 46.5v7.3s0 46.5 46.5 46.5h461.1s46.5 0 46.5-46.5v-7.3s0-46.5-46.5-46.5H448.1z"/><path d="M465.5 259.6c0 1.3-.8 1.9-2.3 1.9-.7 0-1.2-.2-1.7-.5s-.7-.8-.7-1.5v-24.3c0-.3-.1-.5-.2-.7-.1-.1-.4-.2-.8-.2h-7c-.7 0-1.1.3-1.1 1v.7c-.1.7-.3 3-.6 6.9-.3 3.9-.6 6.9-.7 8.9-.2 2.7-.6 4.7-1.2 6-1.2 2.6-3.2 3.8-6 3.8-.9 0-1.6-.2-2.1-.5s-.7-.9-.7-1.8c0-.4.3-.8.7-1.2.5-.4 1-.6 1.5-.7 1.2.1 2-.4 2.4-1.6.4-1.2.7-2.7 1-4.5.5-5.1.9-10.6 1.2-16.6.2-1.4.6-2.5 1.2-3.2.6-.7 1.7-1.1 3.3-1.1h9.7c1.6 0 2.7.4 3.3 1.1.6.7.9 1.8.9 3.2v24.9zm20.3-1.5c-1.8 2.6-4.5 3.8-8 3.8-2.3 0-4.3-.6-5.8-1.9-1.5-1.2-2.3-3-2.3-5.2 0-5.4 4.4-8.1 13.3-8.1h2.8c0-1.4-.1-2.6-.4-3.5-.6-1.6-2.4-2.4-5.3-2.4-2 0-3.7.5-5.1 1.6-.4.3-.8.5-1.3.5s-1-.2-1.5-.5-.7-.7-.7-1.2.3-1 1-1.5c1.8-1.4 4.6-2.1 8.3-2.1 3.3 0 5.7.8 7.2 2.3 1.5 1.5 2.2 3.9 2.2 7.1v9.5c0 1.1.1 2 .2 2.8.1 1.2-.4 1.9-1.6 2-1.5.1-2.3-.4-2.5-1.5-.4-.9-.5-1.6-.5-1.7zm0-8c-1.3-.1-2.4-.1-3.1-.1-1 0-2 .1-2.9.2-.9.1-1.8.4-2.7.7-.9.3-1.6.9-2.1 1.6-.5.7-.8 1.5-.8 2.5 0 1.2.4 2.1 1.2 2.7.8.6 1.8 1 3 1 2.2 0 3.9-.7 5.3-2.2 1.7-1.6 2.3-3.8 2.1-6.4zm23.5-11.8c.8 0 1.4.1 2 .3.5.2.9.4 1.2.6.3.2.5.6.6 1 .1.5.2.8.2 1.1V258c.8.1 1.5.4 1.9.8.5.5.7 1.1.7 1.8v4c0 1.2-.6 1.8-1.9 1.8-1.3 0-1.9-.6-1.9-1.8v-3c0-.2-.1-.3-.4-.3h-14.4c-.3 0-.4.1-.4.3v3c0 1.2-.6 1.8-1.9 1.8-1.3 0-1.9-.6-1.9-1.8v-4c0-.9.2-1.5.5-1.9s.9-.8 1.7-1.3c.7-.4 1.3-1.6 1.7-3.8.2-1.6.4-4.3.6-8.3 0-.8.1-1.7.2-2.9.2-2.9 1.5-4.3 3.9-4.3h7.6zM509 258v-15.6c0-.3-.1-.5-.2-.6-.1-.1-.4-.2-.8-.2h-5.3c-.6 0-.9.3-1 1l-.1 2.4c-.2 4.1-.5 7.1-.8 8.9-.2 1.7-.7 3.1-1.3 4.1h9.5zm14.8-10.4h9.9v-7.9c0-1.2.7-1.8 2.2-1.8 1.4 0 2.2.6 2.2 1.8V260c0 1.2-.7 1.8-2.2 1.8-1.4 0-2.2-.6-2.2-1.8v-9h-9.9v9c0 1.2-.7 1.8-2.2 1.8s-2.2-.6-2.2-1.8v-20.3c0-1.2.7-1.8 2.2-1.8s2.2.6 2.2 1.8v7.9zm40.7 2.2c0 8-3.6 11.9-10.8 11.9-7.2 0-10.8-4-10.8-11.9 0-8 3.6-12 10.8-12 7.2 0 10.8 4 10.8 12zm-6-6.1c-1-1.3-2.6-2-4.8-2-2.2 0-3.8.7-4.8 2s-1.5 3.3-1.5 6.1.5 4.8 1.5 6.1c1 1.3 2.6 2 4.8 2 2.2 0 3.8-.7 4.8-2s1.6-3.3 1.6-6.1-.6-4.8-1.6-6.1zm10.2 22.9c-.3-.3-.4-.7-.3-1.1l1.3-7.6c.3-1.3 1.3-1.9 3-1.8.9.1 1.5.4 1.9.9s.4 1.2.1 1.9l-3 7c-.2.5-.4.8-.7 1-.3.2-.7.2-1.3.2-.4 0-.8-.2-1-.5zm44-6.6c0 1.2-.7 1.8-2.2 1.8-1.4 0-2.2-.6-2.2-1.8v-15c-.3.4-.6.9-1 1.5l-.5.8-9.4 13.6c-.4.5-1.1.8-1.9.8-1.4 0-2.2-.6-2.2-1.8v-20.3c0-1.2.7-1.8 2.2-1.8 1.5 0 2.2.6 2.2 1.8v15.1c.1-.1.6-1 1.6-2.6l9.3-13.5c.3-.5 1-.7 1.9-.7 1.4 0 2.2.6 2.2 1.8V260zm19.5-21.7c.8 0 1.4.1 2 .3.5.2.9.4 1.2.6.3.2.5.6.6 1 .1.5.2.8.2 1.1V258c.8.1 1.5.4 1.9.8.5.5.7 1.1.7 1.8v4c0 1.2-.6 1.8-1.9 1.8-1.3 0-1.9-.6-1.9-1.8v-3c0-.2-.1-.3-.4-.3h-14.4c-.3 0-.4.1-.4.3v3c0 1.2-.6 1.8-1.9 1.8-1.3 0-1.9-.6-1.9-1.8v-4c0-.9.2-1.5.5-1.9s.9-.8 1.7-1.3c.7-.4 1.3-1.6 1.7-3.8.2-1.6.4-4.3.6-8.3 0-.8.1-1.7.2-2.9.2-2.9 1.5-4.3 3.9-4.3h7.6zm-.3 19.7v-15.6c0-.3-.1-.5-.2-.6-.1-.1-.4-.2-.8-.2h-5.3c-.6 0-.9.3-1 1l-.1 2.4c-.2 4.1-.5 7.1-.8 8.9-.2 1.7-.7 3.1-1.3 4.1h9.5zm19.7 5.3c-.4.9-.7 1.6-.9 2.1-.2.5-.6 1.1-1.1 1.8-.5.7-1.1 1.2-1.8 1.5-.7.3-1.6.5-2.5.5-.6 0-1.2-.1-1.8-.2-.4-.1-.8-.3-1.1-.7-.3-.4-.4-.9-.4-1.5.1-1.3.9-1.7 2.4-1.3.8.1 1.5 0 1.9-.3.4-.4.8-1 1.1-1.8l1.1-3c-.9-2.3-2.3-5.7-4.1-10.2-1.8-4.5-3.2-7.9-4.1-10.2-.3-.6-.2-1.1.2-1.4.4-.3 1-.5 1.8-.5 1.2 0 2 .5 2.5 1.6l5.3 13.4c.1.3.3.8.6 1.6.2-.6.4-1.2.6-1.6l5-13.4c.4-1.1 1.2-1.7 2.5-1.7.7 0 1.4.2 1.9.5s.6.8.3 1.4l-9.4 23.4zm35.1-9.5l-2.2-3.6-2.2-3.6-.6-1.2V260c0 1.2-.7 1.8-2 1.8s-2-.6-2-1.8v-20.2c0-1.2.8-1.8 2.4-1.8 1 0 1.9.5 2.6 1.6l6.4 10.7 6.4-10.7c.7-1.1 1.5-1.6 2.6-1.6 1.5 0 2.3.6 2.3 1.8V260c0 1.2-.7 1.8-2 1.8s-2-.6-2-1.8v-14.6l-.6 1.3-4.4 7.3c-.7 1.1-1.4 1.6-2.3 1.6-1-.2-1.8-.7-2.4-1.8zm24-6.9h6.7c2.4 0 4.4.7 5.8 2 1.4 1.3 2.1 3 2.1 5.2 0 2.1-.8 3.8-2.3 5.2-1.5 1.4-3.4 2.1-5.7 2.1h-6.9c-.9 0-1.7-.1-2.2-.3s-1-.6-1.2-1.1c-.2-.5-.4-.9-.4-1.3s-.1-.9-.1-1.6v-17.3c0-1.2.7-1.8 2.2-1.8 1.4 0 2.1.6 2.1 1.8v7.1zm0 10.3c0 .3.1.6.2.6s.4.1.8.1h5c1.3 0 2.2-.3 2.9-1s1-1.6 1-2.8c0-2.6-1.3-3.9-3.9-3.9h-6v7zm20.9 2.8c0 1.2-.7 1.8-2.2 1.8-1.4 0-2.1-.6-2.1-1.8v-20.3c0-1.2.7-1.8 2.1-1.8 1.4 0 2.2.6 2.2 1.8V260zm20-21.7c1.1 0 1.6.5 1.6 1.6s-.5 1.7-1.6 1.7h-5.1V260c0 1.2-.7 1.8-2.1 1.8-1.4 0-2.2-.6-2.2-1.8v-18.3H737c-1.1 0-1.6-.6-1.6-1.7s.5-1.6 1.6-1.6h14.6zm9.6 8.6h6.7c2.4 0 4.3.7 5.8 2 1.4 1.3 2.1 3 2.1 5.2 0 2.1-.8 3.8-2.3 5.2-1.5 1.4-3.4 2.1-5.7 2.1h-6.9c-.8 0-1.4-.1-1.9-.3-.5-.2-.9-.4-1.2-.6-.3-.2-.5-.6-.6-1-.1-.5-.2-.8-.2-1.1v-18.6c0-1.2.7-1.8 2.2-1.8s2.2.6 2.2 1.8v7.1zm0 10.3c0 .5.3.8 1 .8h5c2.6 0 3.9-1.3 3.9-3.8 0-2.6-1.3-3.9-3.9-3.9h-6v6.9zm35.6-16c1.8-2.3 4.3-3.4 7.3-3.4 6.4 0 9.5 4 9.5 12.1 0 1.7-.2 3.2-.5 4.6-.4 1.4-.9 2.7-1.7 3.8-.8 1.1-1.8 2-3.2 2.7s-2.9 1-4.7 1c-2.6 0-4.8-1-6.5-2.9v8.6c0 1.2-.7 1.8-2.2 1.8-1.4 0-2.2-.6-2.2-1.8v-27.9c0-1.2.7-1.8 2.1-1.8 1.4 0 2 .6 2 1.8v1.4zm1.9 14.7c1.1 1.6 2.7 2.4 4.7 2.4 3.7 0 5.6-2.8 5.6-8.5s-1.9-8.5-5.6-8.5c-2 0-3.6.7-4.7 2.1-1.1 1.4-1.7 3.1-1.7 4.9v2.1c0 2.1.6 3.9 1.7 5.5zm28 7.4c-.4.9-.7 1.6-.9 2.1-.2.5-.6 1.1-1.1 1.8-.5.7-1.1 1.2-1.8 1.5-.7.3-1.6.5-2.5.5-.6 0-1.2-.1-1.8-.2-.4-.1-.8-.3-1.1-.7-.3-.4-.4-.9-.4-1.5.1-1.3.9-1.7 2.4-1.3.8.1 1.5 0 1.9-.3.4-.4.8-1 1.1-1.8l1.1-3c-.9-2.3-2.3-5.7-4.1-10.2-1.8-4.5-3.2-7.9-4.1-10.2-.3-.6-.2-1.1.2-1.4.4-.3 1-.5 1.8-.5 1.2 0 2 .5 2.5 1.6l5.3 13.4c.1.3.3.8.6 1.6.2-.6.4-1.2.6-1.6l5-13.4c.4-1.1 1.2-1.7 2.5-1.7.7 0 1.4.2 1.9.5s.6.8.3 1.4l-9.4 23.4zm17.5-16.1c1.5-.2 2.6-.6 3.5-1.2.9-.6 1.7-1.5 2.4-2.6l1.1-1.9c.7-1.2 1.3-2.2 1.8-2.8.7-.7 1.5-1 2.5-.9 1.6.1 2.1.9 1.3 2.2-.6 1-1.1 1.7-1.4 2.2-.1.2-.3.4-.5.8-.2.3-.4.7-.6.9-.2.3-.3.5-.5.8-1.1 1.5-2.3 2.7-3.8 3.5 2.2.6 4 2.6 5.2 5.9.5 1.5 1.1 2.9 1.8 4.1l.7 1.5c.5 1 .1 1.6-1.2 1.9-1.2.2-2 0-2.4-.6-.6-.7-1.4-2-2.2-4l-.5-1.3c-.8-2-1.6-3.4-2.6-4.3-1-.9-2.6-1.2-4.8-1.2v9.5c0 1.2-.7 1.8-2.2 1.8s-2.2-.6-2.2-1.8v-20.3c0-1.2.7-1.8 2.2-1.8s2.2.6 2.2 1.8v7.8zm37.4 12.8c0 1.2-.7 1.8-2.2 1.8s-2.2-.6-2.2-1.8v-15c-.3.4-.6.9-1 1.5l-.5.8-9.4 13.6c-.4.5-1.1.8-1.9.8-1.4 0-2.2-.6-2.2-1.8v-20.3c0-1.2.7-1.8 2.2-1.8 1.5 0 2.2.6 2.2 1.8v15.1c.1-.1.6-1 1.6-2.6l9.3-13.5c.3-.5 1-.7 1.9-.7 1.4 0 2.2.6 2.2 1.8V260zm11.6-3.4c.4.5.6 1.2.6 2.1 0 1-.2 1.7-.6 2.2-.4.5-1.2.8-2.4.8s-2-.3-2.4-.8c-.4-.5-.6-1.2-.6-2.2 0-1 .2-1.7.6-2.1.4-.5 1.2-.7 2.4-.7 1.1 0 1.9.3 2.4.7zm12.2 0c.4.5.6 1.2.6 2.1 0 1-.2 1.7-.6 2.2-.4.5-1.2.8-2.4.8s-2-.3-2.4-.8c-.4-.5-.6-1.2-.6-2.2 0-1 .2-1.7.6-2.1.4-.5 1.2-.7 2.4-.7 1.1 0 2 .3 2.4.7zm12.2 0c.4.5.6 1.2.6 2.1 0 1-.2 1.7-.6 2.2-.4.5-1.2.8-2.4.8s-2-.3-2.4-.8c-.4-.5-.6-1.2-.6-2.2 0-1 .2-1.7.6-2.1.4-.5 1.2-.7 2.4-.7s2 .3 2.4.7z" fill="#ff6900"/></svg>