<svg version="1.1" id="Layer_1_1_" xmlns="http://www.w3.org/2000/svg" x="0" y="0" viewBox="0 0 1000 927" xml:space="preserve"><style>.st33{fill:#fef3e9}</style><path class="st33" d="M286.2 141.9c0-35.8-.1-11.1-.1-11.1 0-9.4 32.4 6.5 32.4 6.5-.3 27.9-26.9 50.4-54.6 50.4-6 0-11.7-1.1-17.1-3 19.7-1.7 40.1-22.5 39.4-42.8"/><path class="st33" d="M334.5 81.1s-49.5 0-49.5 49.5v7.7s0 49.5 49.5 49.5h380.7s49.5 0 49.5-49.5v-7.7s0-49.5-49.5-49.5H334.5z"/><path d="M330 119.9c.6-.8 1.8-1.2 3.5-1.2h9.4c2.9 0 5.3.7 7.3 2.1s2.9 3.4 2.9 6c0 3.6-1.7 6-5.1 7.3 1.9.7 3.3 1.7 4.4 3.2s1.6 3.1 1.6 5c0 3-1 5.3-3.1 6.9-2.1 1.6-4.7 2.4-8.1 2.4h-9.4c-1.7 0-2.9-.4-3.5-1.2-.6-.8-1-1.9-1-3.3v-23.7c.1-1.6.5-2.7 1.1-3.5zm11 12.6c4.8 0 7.2-1.7 7.2-5.2 0-1.6-.6-2.7-1.7-3.5s-2.6-1.1-4.4-1.1h-7.2c-.7 0-1 .4-1 1.1v8.8h7.1zm6.3 13.6c1.2-1 1.8-2.3 1.8-4 0-2-.6-3.5-1.9-4.5-1.3-1-3-1.5-5.1-1.5h-8.2v10.3c0 .7.3 1.1 1 1.1h7.9c1.8 0 3.3-.5 4.5-1.4zm16.2-16c2-2.4 4.5-3.6 7.7-3.6 6.8 0 10.2 4.3 10.2 12.8 0 1.8-.2 3.5-.6 4.9s-1 2.8-1.8 4c-.8 1.2-1.9 2.2-3.4 2.8-1.4.7-3.1 1-5 1-2.8 0-5.1-1-6.9-3.1v9.2c0 1.3-.8 1.9-2.3 1.9-1.5 0-2.3-.6-2.3-1.9v-29.7c0-1.3.8-1.9 2.3-1.9 1.4 0 2.2.6 2.2 1.9v1.7zm2 15.6c1.2 1.7 2.8 2.5 5 2.5 4 0 5.9-3 5.9-9s-2-9-5.9-9c-2.1 0-3.8.8-5 2.3-1.2 1.5-1.8 3.3-1.8 5.3v2.3c0 2 .6 3.9 1.8 5.6zm42.5-6.5c0 8.5-3.8 12.7-11.5 12.7s-11.5-4.2-11.5-12.7 3.8-12.8 11.5-12.8c7.6 0 11.5 4.3 11.5 12.8zm-6.4-6.5c-1.1-1.4-2.8-2.1-5.1-2.1s-4 .7-5.1 2.1c-1.1 1.4-1.6 3.6-1.6 6.5s.5 5.1 1.6 6.5c1.1 1.4 2.8 2.1 5.1 2.1s4-.7 5.1-2.1c1.1-1.4 1.7-3.6 1.7-6.5s-.6-5.1-1.7-6.5zm24.2-5.7c.8 0 1.5.1 2.1.3.6.2 1 .4 1.3.6.3.2.5.6.6 1.1.1.5.2.9.2 1.2V148c.9.1 1.6.4 2.1.9s.7 1.2.7 2v4.2c0 1.3-.7 1.9-2.1 1.9-1.4 0-2.1-.6-2.1-1.9v-3.2c0-.2-.2-.4-.5-.4H413c-.3 0-.5.1-.5.4v3.2c0 1.3-.7 1.9-2.1 1.9-1.4 0-2.1-.6-2.1-1.9v-4.2c0-1 .2-1.6.6-2.1.4-.4 1-.9 1.8-1.3s1.4-1.7 1.8-4c.2-1.7.5-4.6.7-8.8 0-.8.1-1.9.2-3.1.2-3 1.6-4.5 4.2-4.5h8.2zm-.3 21v-16.5c0-.3-.1-.5-.2-.7-.1-.1-.4-.2-.8-.2h-5.7c-.6 0-1 .3-1.1 1l-.1 2.6c-.2 4.4-.5 7.6-.8 9.5-.2 1.8-.7 3.3-1.4 4.3h10.1zm31.4-9.1c-.6.6-1.8.9-3.6.9h-13.1c0 1 .1 1.9.3 2.8s.5 1.8 1 2.7c.5.9 1.2 1.7 2.2 2.2 1 .6 2.2.8 3.6.8.9 0 1.8-.2 2.8-.5s1.8-.9 2.3-1.7c.6-.9 1.5-1.3 2.6-1.2.8.1 1.3.4 1.6.9.2.4.3.9.1 1.4-.6 1.6-1.8 2.8-3.6 3.7-1.9.9-3.9 1.3-6 1.3s-4-.4-5.6-1.1-2.8-1.8-3.7-3.1c-.9-1.3-1.6-2.6-2-4.1s-.6-3-.6-4.5c0-1.7.2-3.2.6-4.7.4-1.5 1.1-2.9 2-4.1.9-1.3 2.1-2.3 3.7-3 1.6-.8 3.4-1.1 5.5-1.1 3.4 0 6.1 1 8.1 3 1.8 1.8 2.7 4.2 2.6 7 .1.9-.2 1.8-.8 2.4zm-4.3-2.5c.5 0 .8-.3.7-.8-.1-1.9-.6-3.3-1.7-4.4-1.1-1-2.5-1.6-4.4-1.6-1.9 0-3.5.7-4.8 2-1.3 1.3-2 2.9-2.1 4.7h12.3zm28.6.5h10.5v-8.4c0-1.3.8-1.9 2.3-1.9s2.3.6 2.3 1.9V150c0 1.3-.8 1.9-2.3 1.9s-2.3-.6-2.3-1.9v-9.6h-10.5v9.6c0 1.3-.8 1.9-2.3 1.9s-2.3-.6-2.3-1.9v-21.5c0-1.3.8-1.9 2.3-1.9s2.3.6 2.3 1.9v8.4zm41.9 2c-.6.6-1.8.9-3.6.9h-13.1c0 1 .1 1.9.3 2.8.2.9.5 1.8 1 2.7.5.9 1.2 1.7 2.2 2.2 1 .6 2.2.8 3.6.8.9 0 1.8-.2 2.8-.5 1-.4 1.8-.9 2.3-1.7.6-.9 1.5-1.3 2.6-1.2.8.1 1.3.4 1.6.9.2.4.3.9.1 1.4-.6 1.6-1.8 2.8-3.6 3.7-1.9.9-3.9 1.3-6 1.3s-4-.4-5.6-1.1c-1.6-.8-2.8-1.8-3.7-3.1s-1.6-2.6-2-4.1c-.4-1.5-.6-3-.6-4.5 0-1.7.2-3.2.6-4.7.4-1.5 1.1-2.9 2-4.1.9-1.3 2.1-2.3 3.7-3 1.6-.8 3.4-1.1 5.5-1.1 3.4 0 6.1 1 8.1 3 1.8 1.8 2.7 4.2 2.6 7 .1.9-.2 1.8-.8 2.4zm-4.3-2.5c.5 0 .8-.3.7-.8-.1-1.9-.6-3.3-1.7-4.4-1.1-1-2.5-1.6-4.4-1.6-1.9 0-3.5.7-4.8 2s-2 2.9-2.1 4.7h12.3zm28.7 8.9c.3.3.4.9.3 1.7-.3 1.2-1.2 2.3-2.8 3.3-1.6 1.1-3.5 1.6-5.9 1.6-7.7 0-11.5-4.2-11.5-12.7s3.8-12.8 11.5-12.8c2.3 0 4.2.5 5.9 1.6 1.7 1.1 2.6 2.3 2.9 3.7.2.7.1 1.3-.2 1.6-.2.4-.7.6-1.5.7h-.2c-1.3 0-2.1-.5-2.4-1.5-.8-1.8-2.3-2.7-4.5-2.7-4.4 0-6.7 3.1-6.7 9.2 0 6.2 2.2 9.2 6.7 9.2 2 0 3.4-.8 4.4-2.3.6-1.1 1.5-1.5 2.6-1.4.7.2 1.2.4 1.4.8zm20.3-18.3c.8 0 1.5.1 2 .3.6.2 1 .4 1.2.7.3.2.5.6.6 1.1.1.5.2.9.2 1.2v19.8c0 1.3-.8 1.9-2.3 1.9-1.5 0-2.3-.6-2.3-1.9v-18.6c0-.6-.3-.8-1-.8h-4.9c-.8 0-1.2.4-1.3 1.1l-.2 2.4c-.4 5.5-.7 9.1-1 10.9-.3 2.3-1 4.1-2 5.3-1 1.2-2.5 1.7-4.5 1.6-.8 0-1.3-.2-1.7-.6-.4-.4-.5-.8-.5-1.2.1-1.3.6-1.9 1.7-1.9 1 0 1.6-.3 1.8-.8.3-.5.5-1.3.6-2.5v-.4c.2-1.2.5-4.1.8-8.7.1-1.8.2-3 .3-3.5 0-.6.1-1.1.1-1.4 0-.4.2-.8.3-1.3s.4-1 .7-1.3c.3-.3.7-.6 1.3-.8s1.2-.3 2-.3h8.1zm32.3 12.2c0 8.5-3.8 12.7-11.5 12.7s-11.5-4.2-11.5-12.7 3.8-12.8 11.5-12.8 11.5 4.3 11.5 12.8zm-6.4-6.5c-1.1-1.4-2.8-2.1-5.1-2.1s-4 .7-5.1 2.1c-1.1 1.4-1.6 3.6-1.6 6.5s.5 5.1 1.6 6.5c1.1 1.4 2.8 2.1 5.1 2.1s4-.7 5.1-2.1c1.1-1.4 1.7-3.6 1.7-6.5s-.5-5.1-1.7-6.5zm26.5 3.7c2.2-.5 4.1-2 5.6-4.5 0 0 .1-.2.3-.4l.3-.6c.8-1.6 1.4-2.7 2-3.4.6-.8 1.5-1.1 2.7-1 .9.1 1.4.3 1.7.7.3.4.2 1-.2 1.7-.6.8-1 1.6-1.4 2.5l-1 1.9c-1.2 2.1-2.6 3.6-4.2 4.4 2.5.8 4.4 2.9 5.5 6.2.7 2.4 1.4 4.4 2.2 6 .5 1.1.1 1.7-1.2 2-1.2.2-2.1 0-2.6-.6-.7-.9-1.4-2.4-2-4.6l-.3-1.1c-.6-2.1-1.4-3.6-2.4-4.5-1-1-2.5-1.4-4.7-1.3V150c0 1.3-.8 1.9-2.3 1.9s-2.3-.6-2.3-1.9v-10.2c-2.1 0-3.6.5-4.6 1.5-1 1-1.9 2.5-2.4 4.3l-.2.9c-.6 2.4-1.3 4-2.1 4.8-.5.6-1.3.8-2.6.6-1.3-.2-1.8-.9-1.2-2 .7-1.4 1.4-3.4 2.2-6 1.1-3.4 2.9-5.5 5.5-6.2-1.7-.9-3.1-2.3-4.2-4.4l-.8-1.5c-1-1.8-1.6-2.8-1.6-2.8-.5-.8-.6-1.3-.3-1.7.3-.4.8-.6 1.7-.7 1.3-.1 2.2.2 2.8 1 .6.9 1.2 1.9 1.8 3.1l.6 1.3c1.3 2.6 3.2 4.1 5.5 4.5v-7.9c0-1.3.8-1.9 2.3-1.9s2.3.6 2.3 1.9v7.8zm22.6.5h10.5v-8.4c0-1.3.8-1.9 2.3-1.9s2.3.6 2.3 1.9V150c0 1.3-.8 1.9-2.3 1.9s-2.3-.6-2.3-1.9v-9.6h-10.5v9.6c0 1.3-.8 1.9-2.3 1.9-1.5 0-2.3-.6-2.3-1.9v-21.5c0-1.3.8-1.9 2.3-1.9 1.5 0 2.3.6 2.3 1.9v8.4zm43.2 2.3c0 8.5-3.8 12.7-11.5 12.7s-11.5-4.2-11.5-12.7 3.8-12.8 11.5-12.8 11.5 4.3 11.5 12.8zm-6.4-6.5c-1.1-1.4-2.8-2.1-5.1-2.1s-4 .7-5.1 2.1-1.6 3.6-1.6 6.5.5 5.1 1.6 6.5 2.8 2.1 5.1 2.1 4-.7 5.1-2.1c1.1-1.4 1.7-3.6 1.7-6.5s-.6-5.1-1.7-6.5zm17.2 13.8c.5.5.7 1.3.7 2.3 0 1-.2 1.8-.7 2.4-.5.5-1.3.8-2.6.8s-2.1-.3-2.5-.8c-.4-.5-.7-1.3-.7-2.4 0-1 .2-1.8.7-2.3.5-.5 1.3-.8 2.5-.8 1.3 0 2.1.3 2.6.8zm13 0c.5.5.7 1.3.7 2.3 0 1-.2 1.8-.7 2.4-.5.5-1.3.8-2.6.8s-2.1-.3-2.5-.8c-.4-.5-.7-1.3-.7-2.4 0-1 .2-1.8.7-2.3.5-.5 1.3-.8 2.5-.8 1.3 0 2.1.3 2.6.8zm13 0c.5.5.7 1.3.7 2.3 0 1-.2 1.8-.7 2.4-.5.5-1.3.8-2.6.8s-2.1-.3-2.5-.8c-.4-.5-.7-1.3-.7-2.4 0-1 .2-1.8.7-2.3.5-.5 1.3-.8 2.5-.8 1.3 0 2.1.3 2.6.8z" fill="#ff6900"/></svg>