<svg version="1.1" id="Layer_1_1_" xmlns="http://www.w3.org/2000/svg" x="0" y="0" viewBox="0 0 1000 862.2" xml:space="preserve"><style>.st4{fill:#ff6900}.st5{fill:#211f1f}.st54,.st57{fill:none;stroke-linecap:round;stroke-linejoin:round;stroke:#211f1f;stroke-width:3.4136;stroke-miterlimit:10}.st57{stroke-width:3.4932}</style><path d="M5.7 853.2l2.1.1m213 0l722.5 1.3M16 853.2l48.1.1m930.9 1.3l2.6.1m-31.9-.2l15.8.2m-902.1-1.4l120.1.1" fill="none" stroke="#231f20" stroke-width="3.324" stroke-linecap="round" stroke-linejoin="round"/><path class="st5" d="M839.3 593.6c23.7 14.9 49.9 27 61.8 50.6 33.3 65.8 40.4 181.6 43.1 210.4l-225.3-.8s-.6-1-1.3-2.5c18.7-30.4-.5-70.2-4.8-105.4-6.2-50.6-24.7-92.4-36.6-100.5 15.9-14.7 35.6-37.7 59.9-55.4 37.2-8.5 69.7-14.7 85.4-7 .4.2.9.5 1.3.8 5.5 3.1 11 6.4 16.5 9.8"/><path class="st4" d="M821.5 583c-15.7-7.7-48.2-1.4-85.4 7 23.4-17 47.8-30.9 71.2-21.8 20 7.7 32.1 21.6 32 25.5-5.5-3.4-11-6.7-16.5-9.9-.4-.3-.8-.6-1.3-.8M524.2 421.3c-2.3 24.8-1.9 84.1-31.9 63-31.5-22.2-26.8-3.4-20.9 17.4 3 10.7 5.9 40.1 49.9 51.9-7.3 4.5-41.7 10-53.5 9.1-7.6-6.9-9.8-11.1-13.5-18.6.8 6.6 3.1 14.3 0 19.1-36.3 3.1-110-8.5-119.8-17.7 16-37.3 8.3-66.9 20.4-112.5 12.6-47.9 55.7-53.6 99.1-42.8 43.4 10.8 70.2 31.1 70.2 31.1"/><path class="st5" d="M360.3 597.6c1.9 9.8 57.6 11.4 96.5 10.4 14.1-.4 26.1-1.1 32.4-1.9 23.8-3 21.3-13.8 21.3-13.8s20.9 6.5 46.8 40.8c19.7 26.1 27 199 27 220.7-11.6-.3-53.2 1.5-53.2 1.5H361.8s7.1-18.3 5.3-63.2c-7.3 50.1-19.6 63.2-19.6 63.2h-58.3s16.2-105.3 30.5-212.9c3.9-29.4 40.6-44.8 40.6-44.8"/><path class="st54" d="M371.3 593.9c13.8-7.4 24-17.4 29.6-24.8m153.4 67.4c-13.4-23.6-62.9-49.8-77.6-56.8-.7-.3-1.4-.9-2.2-1.6m-20.2-14.8c-45.4 1.3-97.9-3.2-110.7-15 16.5-51.7 4.1-73.7 16-119.1 12.6-47.7 55.4-53.3 98.6-42.7 43.2 10.7 69.8 30.9 69.8 30.9-2.3 24.7-1.9 83.8-31.7 62.7-31.3-22.2-28.5 5.1-21.9 25.6 3.5 10.9 15.4 35.6 46.8 47.9-8.7 4.6-29.2 7.7-53.5 9.1m34.9-22.8c9.4-12 19.5-28.9 11.8-49.5-.8-2-1.1-5.5-.8-7.8M500.9 542c.6-.7 1.1-1.4 1.7-2.1"/><path d="M415.5 700.5c0 1.7 1.7 12 15.8 37.4 7.1 11.1 42.7 27.2 54.2 30.7 22.5 11.2 39 26.2 58 42.7 16.4 14.2 19.8-44.2 19.8-44.2-17.1-4.9-45.9-21.3-52.4-30.5-3-4.3-8-23.3-10.9-27.9-5-8-8.2-14.4-11.3-22.8-3.6-9.8-4.5-27.1-13.7-15-5.1 6.8 1.6 25.4-.4 34.4-.4 1.9-2.4 2.9-4.2 2.2-21.3-8.7-39.6-37-50-48.5-10.8-11.9-14.3-6.2 6.2 24.1 3.7 5.5 5 8.1 10.1 15.4 1.3 1.9 5.1 6.8 0 1.9-11.9-11.5-20.9-31.3-26.8-31.2-3.7.1 3.4 14.1 4.5 18.7.3 4.4-.5 5.3 1.1 12.6z" fill="#fff"/><path class="st4" d="M772.6 853.8c17.5-78.3-23.3-176.7-23.3-176.7.3-1.8 1.8-3.2 3.7-3.5 61.7-7.3 106.7 1.9 119.6 4.5 1.9.4 3.2 1.9 3.4 3.8 1.5 17.4 48.8 103.7 28.9 171.9"/><path d="M568.8 770.7c.5.5 1 1.1 1.4 1.8 10.2 15.8 1.3 67.2-5.3 59.9" fill="none" stroke="#211f1f" stroke-width="3.287" stroke-linecap="round" stroke-linejoin="round" stroke-miterlimit="10"/><path class="st4" d="M720.8 854.2c18.1-30.2-1.5-69.2-5.7-103.8-8-65.7-26.7-93.9-46-98.7-12.9-3.2-18.8 15.6-20.4 34.5-1.7 21.4 3.7 98.6 3.1 115.7-27.7-16.5-61.8-21.5-61.8-21.5s-21.2-15.1-27.7-17.6c-6.4-2.5-25 23.8-19.9 52 1.1 6.2 22.2 15.9 27.4 20.1 1.9 13.5 19 20.3 19 20.3"/><path d="M645.4 794.9c-12.1 27.6 14.1 38.7 1.6 44.2-4.9 2.1-12.2-2.3-6.7-18.7m29.3-175.8c12.7-13.8 35.6-37.3 61.9-56.4 23.3-17 47.6-30.8 70.9-21.8 23.4 9 31.9 26.4 31.9 26.4M710.2 853.2c20.4-30.8 2.7-72.8-1.8-109.7-10.8-88.1-24.7-78.6-38.8-98.9-5.6-8.1-29.8 15.6-21 86.5 2.6 21.2-2.6 46.7-3.2 63.7-27.6-16.5-46.5-15.4-61.6-21.4-7.6-3-21.2-15-27.6-17.5-6.4-2.5-4.6 2.5-4.6 2.5s-13.1 31.4-9.1 56.4c1.3 7.9 27.5 35.1 34 39.9m155.1-266.5c40.8-9.3 81.5-15.2 88.5-4.4m-6.6-4.4c30.4 17.2 72.7 52.2 88.2 82.6 33.2 65.5 42.6 156.4 42.6 192.6" fill="none" stroke="#211f1f" stroke-width="3.324" stroke-linecap="round" stroke-linejoin="round" stroke-miterlimit="10"/><path class="st57" d="M804.4 567c62.1-84.2 42.7-126.2 42.7-126.2s21.1 11.5 11.4-7.7C831.7 380 782 382 753.1 389.9c-9.3 2.6-31 10.6-31.6 7-.6-3.5-39.1 3.5-39.1 26.1s42 8.9 39.7 29.2-2.3 42.6-2.3 42.6 10.7-18.8 28.3-9.1c17.6 9.8-16.7 49.4-16.7 49.4s14.8 41.8 29 31.9c16.6-11.4 44 0 44 0z"/><path class="st5" d="M804.4 567c62.1-84.2 45.9-123 45.9-123s21.1 11.5 11.4-7.7c-26.8-53.2-76.6-51.2-105.4-43.3-9.3 2.6-31 10.6-31.6 7s-39.1 3.5-39.1 26.1 42 8.9 39.7 29.2c-2.2 20.3-2.3 42.6-2.3 42.6s10.7-18.8 28.3-9.1c17.6 9.8-16.7 49.4-16.7 49.4s14.8 41.8 29 31.9c16.5-11.3 40.8-3.1 40.8-3.1z"/><path class="st57" d="M699 437.6c-9.3 25.2-5.7 33-8.3 47-4.5 24.5-5.7 42 8.4 88.4 1.7 5.7 18.6 4.1 18.6 4.1m-3.2-13.1c3.5 16.1 6.9 26 6.9 26"/><path class="st54" d="M509.1 447.1c-2.5 20.9-23.4 13.2-34.6 21.9m-56.1-29.2c-3.4 58.6 19.5 70.9 21.3 94m43.6-22.3c-4.6.5-12.1-18.5-12.1-18.5m-1.8-9.8c-2.8 31 16.7 67.6 16.7 67.6m-31.8 12.8s3.7-6 0-19.4c6.8 14.3 13.5 18.6 13.5 18.6"/></svg>