<svg version="1.1" id="Layer_1_1_" xmlns="http://www.w3.org/2000/svg" x="0" y="0" viewBox="0 0 1000 862.2" xml:space="preserve"><style>.st9{fill:#fdf2e8}</style><path class="st9" d="M278 138.8c0-33.7-.1-33.7-.1-33.7 0-8.8 30.4 29.4 30.4 29.4-.3 26.2-25.3 47.4-51.4 47.4-5.6 0-11-1-16.1-2.9 18.6-1.6 37.8-21.1 37.2-40.2"/><path class="st9" d="M334.2 22.7s-56.5 0-56.5 56.5v46.1s0 56.5 56.5 56.5h559.2s56.5 0 56.5-56.5V79.2s0-56.5-56.5-56.5H334.2z"/><path d="M324.8 73.1l-5.7-10c-.2-.3-.4-.8-.7-1.4v21.7c0 1.3-.7 1.9-2.2 1.9-1.4 0-2.1-.6-2.1-1.9V55.9c0-1.3.8-1.9 2.4-1.9.7 0 1.3.1 1.7.4.4.3.8.7 1.2 1.4l8 13.9 7.9-13.9c.7-1.2 1.6-1.8 2.9-1.8 1.6 0 2.4.6 2.4 1.9v27.5c0 1.3-.7 1.9-2.1 1.9-1.5 0-2.2-.6-2.2-1.9V61.8l-.7 1.4-5.7 10c-.7 1.2-1.5 1.7-2.4 1.7-1.2-.1-2-.7-2.7-1.8zm26.2-1.8h9.9v-7.9c0-1.2.7-1.8 2.2-1.8s2.2.6 2.2 1.8v20.3c0 1.2-.7 1.8-2.2 1.8s-2.2-.6-2.2-1.8v-9H351v9c0 1.2-.7 1.8-2.2 1.8s-2.2-.6-2.2-1.8V63.4c0-1.2.7-1.8 2.2-1.8s2.2.6 2.2 1.8v7.9zm39.4 1.9c-.6.6-1.7.9-3.3.9h-12.4c0 .9.1 1.8.3 2.6.2.8.5 1.7 1 2.5.4.9 1.1 1.6 2.1 2.1s2 .8 3.4.8c.8 0 1.7-.2 2.7-.5.9-.3 1.6-.9 2.1-1.6.6-.9 1.4-1.3 2.5-1.2.7.1 1.3.4 1.5.8.2.4.3.8.1 1.3-.5 1.5-1.7 2.7-3.4 3.5-1.8.8-3.6 1.2-5.6 1.2s-3.7-.4-5.2-1.1-2.7-1.7-3.5-2.9c-.9-1.2-1.5-2.5-1.9-3.8-.4-1.4-.6-2.8-.6-4.3 0-1.6.2-3 .6-4.4.4-1.4 1-2.7 1.9-3.9.8-1.2 2-2.1 3.5-2.9 1.5-.7 3.2-1.1 5.2-1.1 3.2 0 5.8 1 7.6 2.9 1.7 1.7 2.5 3.9 2.5 6.6-.3 1.1-.6 1.9-1.1 2.5zm-4.1-2.3c.5 0 .7-.3.7-.7-.1-1.8-.6-3.1-1.6-4.1-1-1-2.4-1.5-4.1-1.5-1.8 0-3.3.6-4.5 1.9s-1.9 2.7-2 4.4h11.5zm26.9.4h9.9v-7.9c0-1.2.7-1.8 2.2-1.8 1.4 0 2.2.6 2.2 1.8v20.3c0 1.2-.7 1.8-2.2 1.8-1.4 0-2.2-.6-2.2-1.8v-9h-9.9v9c0 1.2-.7 1.8-2.2 1.8s-2.2-.6-2.2-1.8V63.4c0-1.2.7-1.8 2.2-1.8s2.2.6 2.2 1.8v7.9zm39.4 1.9c-.6.6-1.7.9-3.3.9h-12.4c0 .9.1 1.8.3 2.6.2.8.5 1.7 1 2.5.4.9 1.1 1.6 2.1 2.1s2 .8 3.4.8c.8 0 1.7-.2 2.7-.5.9-.3 1.6-.9 2.1-1.6.6-.9 1.4-1.3 2.5-1.2.8.1 1.3.4 1.5.8.2.4.3.8.1 1.3-.5 1.5-1.7 2.7-3.4 3.5s-3.6 1.2-5.6 1.2c-2 0-3.7-.4-5.2-1.1s-2.7-1.7-3.5-2.9c-.9-1.2-1.5-2.5-1.9-3.8-.4-1.4-.6-2.8-.6-4.3 0-1.6.2-3 .6-4.4.4-1.4 1-2.7 1.9-3.9.8-1.2 2-2.1 3.5-2.9 1.5-.7 3.2-1.1 5.2-1.1 3.2 0 5.8 1 7.6 2.9 1.7 1.7 2.5 3.9 2.5 6.6-.2 1.1-.5 1.9-1.1 2.5zm-4-2.3c.5 0 .7-.3.7-.7-.1-1.8-.6-3.1-1.6-4.1-1-1-2.4-1.5-4.1-1.5-1.8 0-3.3.6-4.5 1.9s-1.9 2.7-2 4.4h11.5zm39.5-8.5c.6.2 1 .6 1.2 1.1.2.5.4.9.4 1.3s.1.9.1 1.6v17.3c0 1.2-.7 1.8-2.1 1.8-1.4 0-2.2-.6-2.2-1.8V66.1c0-.5-.3-.8-1-.8h-8c-.4 0-.6.1-.8.2s-.2.3-.2.6v17.5c0 1.2-.7 1.8-2.1 1.8-1.4 0-2.2-.6-2.2-1.8V66.4c0-.7 0-1.2.1-1.6 0-.4.2-.8.4-1.3s.6-.8 1.2-1.1 1.3-.3 2.2-.3h10.7c1-.1 1.8 0 2.3.3zm28.2 11.1c0 8-3.6 11.9-10.8 11.9-7.2 0-10.8-4-10.8-11.9 0-8 3.6-12 10.8-12 7.2 0 10.8 4 10.8 12zm-6-6.1c-1-1.3-2.6-2-4.8-2-2.2 0-3.8.7-4.8 2s-1.5 3.3-1.5 6.1.5 4.8 1.5 6.1c1 1.3 2.6 2 4.8 2 2.2 0 3.8-.7 4.8-2s1.6-3.3 1.6-6.1-.6-4.8-1.6-6.1zm15 3.5c1.5-.2 2.6-.6 3.5-1.2.9-.6 1.7-1.5 2.4-2.6l1.1-1.9c.7-1.2 1.3-2.2 1.8-2.8.7-.7 1.5-1 2.5-.9 1.6.1 2.1.9 1.3 2.2-.6 1-1.1 1.7-1.4 2.2-.1.2-.3.4-.5.8s-.4.7-.6.9c-.2.3-.3.5-.5.8-1.1 1.5-2.3 2.7-3.8 3.5 2.2.6 4 2.6 5.2 5.9.5 1.5 1.1 2.9 1.8 4.1l.7 1.5c.5 1 .1 1.6-1.2 1.9-1.2.2-2 0-2.4-.6-.6-.7-1.4-2-2.2-4l-.5-1.3c-.8-2-1.6-3.5-2.6-4.3-1-.9-2.6-1.2-4.8-1.2v9.5c0 1.2-.7 1.8-2.2 1.8s-2.2-.6-2.2-1.8v-20c0-1.2.7-1.8 2.2-1.8s2.2.6 2.2 1.8v7.5zm31.8 10.9c-1.8 2.6-4.5 3.8-8 3.8-2.3 0-4.3-.6-5.8-1.9-1.5-1.2-2.3-3-2.3-5.2 0-5.4 4.4-8.1 13.3-8.1h2.8c0-1.4-.1-2.6-.4-3.5-.6-1.6-2.4-2.4-5.3-2.4-2 0-3.7.5-5.1 1.6-.4.3-.8.5-1.3.5s-1-.2-1.5-.5-.7-.7-.7-1.2.3-1 1-1.5c1.8-1.4 4.6-2.1 8.3-2.1 3.3 0 5.7.8 7.2 2.3 1.5 1.5 2.2 3.9 2.2 7.1v9.5c0 1.1.1 2 .2 2.8.1 1.2-.4 1.9-1.6 2-1.5.1-2.3-.4-2.5-1.5-.4-1-.5-1.6-.5-1.7zm0-8.1c-1.3-.1-2.4-.1-3.1-.1-1 0-2 .1-2.9.2-.9.1-1.8.4-2.7.7-.9.3-1.6.9-2.1 1.6-.5.7-.8 1.5-.8 2.5 0 1.2.4 2.1 1.2 2.7.8.6 1.8 1 3 1 2.2 0 3.9-.7 5.3-2.2 1.7-1.5 2.3-3.7 2.1-6.4zm27 4.6c0 2.2-.8 4-2.5 5.3s-3.9 2-6.7 2a16 16 0 01-3.9-.5c-1.2-.4-2.4-1-3.4-1.9s-1.7-2.1-2-3.5c-.1-.5.1-1 .3-1.3.3-.4.9-.6 1.8-.6 1.3 0 2 .5 2.1 1.6.1.6.3 1.1.7 1.5s.9.8 1.4 1c.5.2 1.1.4 1.5.5.5.1.9.1 1.3.1 1.5 0 2.7-.4 3.6-1.1s1.3-1.8 1.3-3.1c0-1-.4-1.8-1.1-2.4-.7-.6-1.4-1-2.1-1.1-.7-.1-1.4-.2-2.2-.2h-.7c-1.1 0-1.7-.6-1.7-1.7s.6-1.6 1.9-1.6c3.5 0 5.2-1.2 5.2-3.5 0-1-.4-1.8-1.1-2.4s-1.8-.9-3-.9c-3.1 0-4.7.9-4.9 2.8-.1.8-.7 1.3-1.8 1.3-.9 0-1.5-.2-1.9-.7-.2-.3-.3-.6-.3-1 .2-1.9 1.2-3.3 3-4.3 1.8-.9 3.7-1.4 5.9-1.4 1.4 0 2.8.2 4 .6 1.2.4 2.3 1.1 3.2 2.1.9 1 1.4 2.2 1.4 3.7 0 2.2-1.3 4-3.9 5.2 3.1.9 4.6 2.7 4.6 5.5zm19 3.5c-1.8 2.6-4.5 3.8-8 3.8-2.3 0-4.3-.6-5.8-1.9-1.5-1.2-2.3-3-2.3-5.2 0-5.4 4.4-8.1 13.3-8.1h2.8c0-1.4-.1-2.6-.4-3.5-.6-1.6-2.4-2.4-5.3-2.4-2 0-3.7.5-5.1 1.6-.4.3-.8.5-1.3.5s-1-.2-1.5-.5-.7-.7-.7-1.2.3-1 1-1.5c1.8-1.4 4.6-2.1 8.3-2.1 3.3 0 5.7.8 7.2 2.3 1.5 1.5 2.2 3.9 2.2 7.1v9.5c0 1.1.1 2 .2 2.8.1 1.2-.4 1.9-1.6 2-1.5.1-2.3-.4-2.5-1.5-.4-1-.5-1.6-.5-1.7zm0-8.1c-1.3-.1-2.4-.1-3.1-.1-1 0-2 .1-2.9.2-.9.1-1.8.4-2.7.7s-1.6.9-2.1 1.6c-.5.7-.8 1.5-.8 2.5 0 1.2.4 2.1 1.2 2.7.8.6 1.8 1 3 1 2.2 0 3.9-.7 5.3-2.2 1.6-1.5 2.3-3.7 2.1-6.4zM626.5 62c.7 0 1.4.1 1.9.3.5.2.9.4 1.2.6.3.2.5.6.6 1 .1.5.2.8.2 1.1v18.6c0 1.2-.7 1.8-2.2 1.8-1.4 0-2.1-.6-2.1-1.8V66.2c0-.5-.3-.8-1-.8h-4.6c-.7 0-1.2.3-1.2 1l-.2 2.2c-.4 5.1-.7 8.6-.9 10.3-.3 2.2-.9 3.8-1.8 4.9-.9 1.1-2.3 1.6-4.2 1.5-.7 0-1.2-.2-1.6-.5-.3-.3-.5-.7-.5-1.1.1-1.2.6-1.8 1.6-1.8.9 0 1.5-.3 1.7-.7.3-.5.5-1.2.6-2.3v-.4c.2-1.2.5-3.9.8-8.2.1-1.7.2-2.8.3-3.3 0-.6.1-1 .1-1.4 0-.3.2-.7.3-1.3.2-.5.4-.9.7-1.2s.7-.5 1.2-.8c.5-.2 1.2-.3 1.9-.3h7.2zm30.4 11.5c0 8-3.6 11.9-10.8 11.9-7.2 0-10.8-4-10.8-11.9 0-8 3.6-12 10.8-12 7.2 0 10.8 4 10.8 12zm-6-6.1c-1-1.3-2.6-2-4.8-2s-3.8.7-4.8 2-1.5 3.3-1.5 6.1.5 4.8 1.5 6.1c1 1.3 2.6 2 4.8 2s3.8-.7 4.8-2 1.6-3.3 1.6-6.1-.6-4.8-1.6-6.1zm28 11.8c.3.3.3.8.3 1.6-.3 1.1-1.1 2.1-2.6 3.1s-3.3 1.5-5.6 1.5c-7.2 0-10.8-4-10.8-11.9 0-8 3.6-12 10.8-12 2.1 0 4 .5 5.5 1.5 1.6 1 2.5 2.2 2.8 3.5.1.7.1 1.2-.2 1.5-.2.3-.7.6-1.4.6h-.2c-1.2 0-2-.5-2.2-1.4-.7-1.7-2.1-2.5-4.2-2.5-4.2 0-6.3 2.9-6.3 8.7 0 5.8 2.1 8.7 6.3 8.7 1.9 0 3.2-.7 4.1-2.2.6-1 1.4-1.5 2.4-1.3.6.1 1 .3 1.3.6zm10.2-8.6h6.7c2.4 0 4.3.7 5.8 2 1.4 1.3 2.1 3 2.1 5.2 0 2.1-.8 3.8-2.3 5.2-1.5 1.4-3.4 2.1-5.7 2.1h-6.9c-.8 0-1.4-.1-1.9-.3-.5-.2-.9-.4-1.2-.6-.3-.2-.5-.6-.6-1-.1-.5-.2-.8-.2-1.1V63.4c0-1.2.7-1.8 2.2-1.8s2.2.6 2.2 1.8v7.2zm0 10.3c0 .5.3.8 1 .8h5c2.6 0 3.9-1.3 3.9-3.8 0-2.6-1.3-3.9-3.9-3.9h-6v6.9zm32.7-24.7c2 1.7 2.9 3.7 2.9 6.2 0 1.3-.5 2.7-1.4 4-1 1.4-2.1 2.5-3.3 3.5-1.2.9-2 1.7-2.3 2.5-.3.7-.5 2-.7 3.9 0 .3-.2.6-.5.8-.3.2-.7.3-1.1.3-.5 0-.9-.1-1.3-.3-.4-.2-.5-.5-.5-1-.1-2.3.1-4 .6-5.2.5-1.2 1.6-2.6 3.3-4.3.6-.6 1.1-1.3 1.5-2.1.4-.8.6-1.5.6-2.1 0-1.5-.4-2.8-1.2-3.7-.8-1-1.9-1.4-3.2-1.4-1.2 0-2.3.4-3.2 1.1-.9.7-1.3 1.6-1.4 2.5 0 .6-.2 1.1-.6 1.6-.3.5-.9.8-1.8.8h-.1c-.7 0-1.2-.2-1.6-.7-.4-.4-.6-1-.6-1.8 0-1.8.9-3.5 2.7-4.9s4-2.2 6.7-2.2c2.3 0 4.5.8 6.5 2.5zm-4.2 24.4c.4.5.6 1.1.6 2 0 .4 0 .7-.1 1-.1.3-.2.6-.4.9-.2.3-.5.5-.9.7-.4.2-.9.2-1.5.2-1.2 0-1.9-.3-2.3-.8s-.6-1.2-.6-2.1c0-1.8 1-2.7 2.9-2.7 1.2 0 1.9.3 2.3.8zm44.2-26.4c1.3 0 1.9.7 1.9 2s-.6 1.9-1.9 1.9h-7v25.4c0 1.3-.8 1.9-2.3 1.9-1.6 0-2.3-.6-2.3-1.9V58.1h-7c-1.3 0-1.9-.6-1.9-1.9 0-1.3.6-2 1.9-2h18.6zm6.5 16.4h6.7c2.4 0 4.4.7 5.8 2 1.4 1.3 2.1 3 2.1 5.2 0 2.1-.8 3.8-2.3 5.2-1.5 1.4-3.4 2.1-5.7 2.1H768c-.9 0-1.7-.1-2.2-.3s-1-.6-1.2-1.1c-.2-.5-.4-.9-.4-1.3s-.1-.9-.1-1.6V63.4c0-1.2.7-1.8 2.2-1.8 1.4 0 2.1.6 2.1 1.8v7.2zm0 10.3c0 .3.1.6.2.6.2.1.4.1.8.1h5c1.3 0 2.2-.3 2.9-1 .7-.7 1-1.6 1-2.8 0-2.6-1.3-3.9-3.9-3.9h-6v7zm20.9 2.8c0 1.2-.7 1.8-2.2 1.8-1.4 0-2.1-.6-2.1-1.8V63.4c0-1.2.7-1.8 2.1-1.8 1.4 0 2.2.6 2.2 1.8v20.3zm28.1-6.2l-2.2-3.6-2.2-3.6-.6-1.2v14.6c0 1.2-.7 1.8-2 1.8s-2-.6-2-1.8V63.4c0-1.2.8-1.8 2.4-1.8 1 0 1.9.5 2.6 1.6l6.4 10.7 6.4-10.7c.7-1.1 1.5-1.6 2.6-1.6 1.5 0 2.3.6 2.3 1.8v20.2c0 1.2-.7 1.8-2 1.8s-2-.6-2-1.8V69l-.6 1.3-4.4 7.3c-.7 1.1-1.4 1.6-2.3 1.6-1-.1-1.8-.6-2.4-1.7zm38.7-4.3c-.6.6-1.7.9-3.3.9h-12.4c0 .9.1 1.8.3 2.6.2.8.5 1.7 1 2.5.4.9 1.1 1.6 2.1 2.1s2 .8 3.4.8c.8 0 1.7-.2 2.7-.5.9-.3 1.6-.9 2.1-1.6.6-.9 1.4-1.3 2.5-1.2.7.1 1.3.4 1.5.8.2.4.3.8.1 1.3-.5 1.5-1.7 2.7-3.4 3.5s-3.6 1.2-5.6 1.2c-2 0-3.7-.4-5.2-1.1s-2.7-1.7-3.5-2.9c-.8-1.2-1.5-2.5-1.9-3.8-.4-1.4-.6-2.8-.6-4.3 0-1.6.2-3 .6-4.4.4-1.4 1-2.7 1.9-3.9.8-1.2 2-2.1 3.5-2.9 1.5-.7 3.2-1.1 5.2-1.1 3.2 0 5.8 1 7.6 2.9 1.7 1.7 2.5 3.9 2.5 6.6-.2 1.1-.5 1.9-1.1 2.5zm-4-2.3c.5 0 .7-.3.7-.7-.1-1.8-.6-3.1-1.6-4.1s-2.4-1.5-4.1-1.5c-1.8 0-3.3.6-4.5 1.9-1.2 1.3-1.9 2.7-2 4.4H852zm14.1.4h9.9v-7.9c0-1.2.7-1.8 2.2-1.8 1.4 0 2.2.6 2.2 1.8v20.3c0 1.2-.7 1.8-2.2 1.8-1.4 0-2.2-.6-2.2-1.8v-9h-9.9v9c0 1.2-.7 1.8-2.2 1.8s-2.2-.6-2.2-1.8V63.4c0-1.2.7-1.8 2.2-1.8s2.2.6 2.2 1.8v7.9zm31 4.6c-2.8 0-4.7 1.3-5.7 4-.9 2.2-1.8 3.8-2.6 4.7-.7.7-1.6 1-2.7.9-.7-.1-1.1-.4-1.4-.8-.3-.4-.2-.9.1-1.3.8-1.1 1.7-2.7 2.7-4.7.9-1.8 1.8-3.1 2.8-3.7-1.4-.4-2.6-1.1-3.5-2.2s-1.4-2.3-1.4-3.6c0-2.3.8-4 2.3-5.2 1.6-1.2 3.6-1.8 6.2-1.8h6.4c1.6 0 2.6.3 3.2 1 .5.7.8 1.7.8 3.1v17.5c0 1.2-.7 1.8-2.2 1.8s-2.2-.6-2.2-1.8v-7.7h-2.8zm-5.9-9.6c-.7.6-1.1 1.6-1.1 2.8 0 1.1.5 2 1.4 2.6.9.6 2 .9 3.3.9h5.3v-6.5c0-.3-.1-.5-.2-.6s-.4-.2-.8-.2h-4.8c-1.3.1-2.3.4-3.1 1zM331 115.6c.6.2 1 .6 1.2 1.1.2.5.4.9.4 1.3s.1.9.1 1.6v17.3c0 1.2-.7 1.8-2.1 1.8-1.4 0-2.2-.6-2.2-1.8v-17.5c0-.5-.3-.8-1-.8h-8c-.4 0-.6.1-.8.2-.1.1-.2.3-.2.6v17.5c0 1.2-.7 1.8-2.1 1.8-1.4 0-2.2-.6-2.2-1.8v-17.3c0-.7 0-1.2.1-1.6 0-.4.2-.8.4-1.3s.6-.9 1.2-1.1c.6-.2 1.3-.3 2.2-.3h10.7c1-.1 1.7 0 2.3.3zm28.1 11.1c0 8-3.6 11.9-10.8 11.9-7.2 0-10.8-4-10.8-11.9 0-8 3.6-12 10.8-12 7.2 0 10.8 4 10.8 12zm-6-6.1c-1-1.3-2.6-2-4.8-2s-3.8.7-4.8 2-1.5 3.3-1.5 6.1.5 4.8 1.5 6.1c1 1.3 2.6 2 4.8 2s3.8-.7 4.8-2 1.6-3.3 1.6-6.1-.5-4.8-1.6-6.1zm23.7-5.4c1.1 0 1.6.5 1.6 1.6s-.5 1.7-1.6 1.7h-5.1v18.3c0 1.2-.7 1.8-2.1 1.8-1.4 0-2.2-.6-2.2-1.8v-18.3h-5.1c-1.1 0-1.6-.6-1.6-1.7s.5-1.6 1.6-1.6h14.5zm9.5 2.9c1.8-2.3 4.3-3.4 7.3-3.4 6.4 0 9.6 4 9.6 12.1 0 1.7-.2 3.2-.5 4.6-.4 1.4-.9 2.7-1.7 3.8-.8 1.1-1.8 2-3.2 2.7s-2.9 1-4.7 1c-2.6 0-4.8-1-6.5-2.9v8.6c0 1.2-.7 1.8-2.2 1.8-1.4 0-2.2-.6-2.2-1.8v-27.9c0-1.2.7-1.8 2.1-1.8 1.4 0 2 .6 2 1.8v1.4zm1.9 14.7c1.1 1.6 2.7 2.4 4.7 2.4 3.7 0 5.6-2.8 5.6-8.5 0-5.6-1.9-8.5-5.6-8.5-2 0-3.6.7-4.7 2.1-1.1 1.4-1.7 3.1-1.7 4.9v2.1c0 2.1.6 3.9 1.7 5.5zm40-6.1c0 8-3.6 11.9-10.8 11.9-7.2 0-10.8-4-10.8-11.9 0-8 3.6-12 10.8-12 7.2 0 10.8 4 10.8 12zm-6.1-6.1c-1-1.3-2.6-2-4.8-2-2.2 0-3.8.7-4.8 2s-1.5 3.3-1.5 6.1.5 4.8 1.5 6.1c1 1.3 2.6 2 4.8 2 2.2 0 3.8-.7 4.8-2s1.6-3.3 1.6-6.1-.5-4.8-1.6-6.1zm23.8-5.4c1.1 0 1.6.5 1.6 1.6s-.5 1.7-1.6 1.7h-7.8c-.6 0-1 .3-1 .8v17.5c0 1.2-.7 1.8-2.2 1.8s-2.2-.6-2.2-1.8v-18.6c0-.3.1-.7.2-1.1.1-.5.3-.8.6-1 .3-.2.6-.4 1.2-.6.5-.2 1.2-.3 1.9-.3h9.3zM464 135c-1.8 2.6-4.5 3.8-8 3.8-2.3 0-4.3-.6-5.8-1.9-1.5-1.2-2.3-3-2.3-5.2 0-5.4 4.4-8.1 13.3-8.1h2.8c0-1.4-.1-2.6-.4-3.5-.6-1.6-2.4-2.4-5.3-2.4-2 0-3.7.5-5.1 1.6-.4.3-.9.5-1.3.5-.5 0-1-.2-1.5-.5s-.7-.7-.7-1.2.3-1 1-1.5c1.8-1.4 4.6-2.1 8.3-2.1 3.3 0 5.7.8 7.2 2.3 1.5 1.5 2.2 3.9 2.2 7.1v9.5c0 1.1.1 2 .2 2.8.1 1.2-.4 1.9-1.6 2-1.5.1-2.3-.4-2.5-1.5-.4-1-.5-1.6-.5-1.7zm0-8.1c-1.3-.1-2.4-.1-3.1-.1-1 0-2 .1-2.9.2-.9.1-1.8.4-2.7.7-.9.3-1.6.9-2.1 1.6-.5.7-.8 1.5-.8 2.5 0 1.2.4 2.1 1.2 2.7.8.6 1.8 1 3 1 2.2 0 3.9-.7 5.3-2.2 1.7-1.6 2.3-3.7 2.1-6.4zm23.4-11.7c.7 0 1.4.1 1.9.3.5.2.9.4 1.2.6.3.2.5.6.6 1s.2.8.2 1.1v18.6c0 1.2-.7 1.8-2.2 1.8-1.4 0-2.1-.6-2.1-1.8v-17.5c0-.5-.3-.8-1-.8h-4.6c-.7 0-1.2.3-1.2 1l-.2 2.2c-.4 5.1-.7 8.6-.9 10.3-.3 2.2-.9 3.8-1.8 4.9-.9 1.1-2.3 1.6-4.2 1.5-.7 0-1.2-.2-1.6-.5-.3-.3-.5-.7-.5-1.1.1-1.2.6-1.8 1.6-1.8.9 0 1.5-.3 1.7-.7.3-.5.5-1.2.6-2.3v-.4c.2-1.2.5-3.9.8-8.2.1-1.7.2-2.8.3-3.3 0-.6.1-1 .1-1.4 0-.3.2-.7.3-1.3.2-.5.4-.9.7-1.2.3-.3.7-.5 1.2-.8.5-.2 1.2-.3 1.9-.3h7.2zm40.3 17.2c.3.3.3.8.3 1.6-.3 1.1-1.1 2.1-2.6 3.1s-3.3 1.5-5.6 1.5c-7.2 0-10.8-4-10.8-11.9 0-8 3.6-12 10.8-12 2.1 0 4 .5 5.5 1.5 1.6 1 2.5 2.2 2.8 3.5.1.7.1 1.2-.2 1.5-.2.3-.7.6-1.4.6h-.2c-1.2 0-2-.5-2.2-1.4-.7-1.7-2.1-2.5-4.2-2.5-4.2 0-6.3 2.9-6.3 8.7 0 5.8 2.1 8.7 6.3 8.7 1.9 0 3.2-.7 4.1-2.2.6-1 1.4-1.5 2.4-1.3.5.1 1 .3 1.3.6zm24.8-6c-.6.6-1.7.9-3.3.9h-12.4c0 .9.1 1.8.3 2.6.2.8.5 1.7 1 2.5.4.9 1.1 1.6 2.1 2.1s2 .8 3.4.8c.8 0 1.7-.2 2.7-.5.9-.3 1.6-.9 2.1-1.6.6-.9 1.4-1.3 2.5-1.2.7.1 1.3.4 1.5.8.2.4.3.8.1 1.3-.5 1.5-1.7 2.7-3.4 3.5s-3.6 1.2-5.6 1.2c-2 0-3.7-.4-5.2-1.1s-2.7-1.7-3.5-2.9c-.8-1.2-1.5-2.5-1.9-3.8-.4-1.4-.6-2.8-.6-4.3 0-1.6.2-3 .6-4.4.4-1.4 1-2.7 1.9-3.9.8-1.2 2-2.1 3.5-2.9 1.5-.7 3.2-1.1 5.2-1.1 3.2 0 5.8 1 7.6 2.9 1.7 1.7 2.5 3.9 2.5 6.6-.3 1.1-.6 1.9-1.1 2.5zm-4.1-2.4c.5 0 .7-.3.7-.7-.1-1.8-.6-3.1-1.6-4.1s-2.4-1.5-4.1-1.5c-1.8 0-3.3.6-4.5 1.9-1.2 1.3-1.9 2.7-2 4.4h11.5zm27-9.2c1.4 0 2.2.6 2.2 1.8v20.3c0 1.2-.7 1.8-2.2 1.8s-2.2-.6-2.2-1.8v-15c-.5.9-1 1.6-1.4 2.2l-9.5 13.8c-.4.5-1.1.8-1.9.8-1.4 0-2.2-.6-2.2-1.8v-20.3c0-1.2.7-1.8 2.2-1.8s2.2.6 2.2 1.8v15.2c.6-1 4.3-6.4 11-16.2.2-.6.8-.8 1.8-.8zm-1.7-7.5c.8.4 1 1 .6 1.9-.5 1-1.4 1.8-2.5 2.4-1.2.6-2.4.8-3.8.8-1.6 0-2.9-.3-4-1-1.1-.6-1.9-1.4-2.3-2.2-.3-.9 0-1.6.9-2.1.7-.2 1.3 0 1.8.6 1 1 2.2 1.6 3.6 1.6 1.5 0 2.7-.5 3.6-1.6.5-.6 1.2-.7 2.1-.4zm26.2 29.5c0 1.2-.7 1.8-2.1 1.8-1.4 0-2.2-.6-2.2-1.8V129c-1.4 1-3.2 1.6-5.6 1.6-5.2 0-7.8-2.2-7.8-6.7v-7.3c0-1.2.7-1.8 2.2-1.8s2.2.6 2.2 1.8v6.2c0 1.7.3 2.9.8 3.5.5.7 1.6 1 3 1 1.7 0 3-.4 3.9-1.1.9-.7 1.3-1.6 1.3-2.6v-7.1c0-1.2.7-1.8 2.2-1.8 1.4 0 2.1.6 2.1 1.8v20.3zm20.4-1.8c-1.8 2.6-4.5 3.8-8 3.8-2.3 0-4.3-.6-5.8-1.9-1.5-1.2-2.3-3-2.3-5.2 0-5.4 4.4-8.1 13.3-8.1h2.8c0-1.4-.1-2.6-.4-3.5-.6-1.6-2.4-2.4-5.3-2.4-2 0-3.7.5-5.1 1.6-.4.3-.9.5-1.3.5-.5 0-1-.2-1.5-.5s-.7-.7-.7-1.2.3-1 1-1.5c1.8-1.4 4.6-2.1 8.3-2.1 3.3 0 5.7.8 7.2 2.3 1.5 1.5 2.2 3.9 2.2 7.1v9.5c0 1.1.1 2 .2 2.8.1 1.2-.4 1.9-1.6 2-1.5.1-2.3-.4-2.5-1.5-.4-1-.5-1.6-.5-1.7zm0-8.1c-1.3-.1-2.4-.1-3.1-.1-1 0-2 .1-2.9.2-.9.1-1.8.4-2.7.7-.9.3-1.6.9-2.1 1.6-.5.7-.8 1.5-.8 2.5 0 1.2.4 2.1 1.2 2.7.8.6 1.8 1 3 1 2.2 0 3.9-.7 5.3-2.2 1.6-1.6 2.3-3.7 2.1-6.4zm27.4 5.5c.3.3.3.8.3 1.6-.3 1.1-1.1 2.1-2.6 3.1s-3.3 1.5-5.6 1.5c-7.2 0-10.8-4-10.8-11.9 0-8 3.6-12 10.8-12 2.1 0 4 .5 5.5 1.5 1.6 1 2.5 2.2 2.8 3.5.1.7.1 1.2-.2 1.5-.2.3-.7.6-1.4.6h-.2c-1.2 0-2-.5-2.2-1.4-.7-1.7-2.1-2.5-4.2-2.5-4.2 0-6.3 2.9-6.3 8.7 0 5.8 2.1 8.7 6.3 8.7 1.9 0 3.2-.7 4.1-2.2.6-1 1.4-1.5 2.4-1.3.6.1 1.1.3 1.3.6zm20-23c2 1.7 2.9 3.7 2.9 6.2 0 1.3-.5 2.7-1.4 4-1 1.4-2.1 2.5-3.3 3.5-1.2.9-2 1.7-2.3 2.5-.3.7-.5 2-.7 3.9 0 .3-.2.6-.5.8-.3.2-.7.3-1.1.3-.5 0-.9-.1-1.3-.3-.4-.2-.5-.5-.5-1-.1-2.3.1-4 .6-5.2.5-1.2 1.6-2.6 3.3-4.3.6-.6 1.1-1.3 1.5-2.1.4-.8.6-1.5.6-2.1 0-1.5-.4-2.8-1.2-3.7-.8-1-1.9-1.4-3.2-1.4-1.2 0-2.3.4-3.2 1.1-.9.7-1.3 1.6-1.4 2.5 0 .6-.2 1.1-.6 1.6-.3.5-.9.8-1.8.8h-.1c-.7 0-1.2-.2-1.6-.7-.4-.4-.6-1-.6-1.8 0-1.8.9-3.5 2.7-4.9s4-2.2 6.7-2.2c2.4 0 4.6.8 6.5 2.5zm-4.1 24.3c.4.5.6 1.1.6 2 0 .4 0 .7-.1 1s-.2.6-.4.9c-.2.3-.5.5-.9.7-.4.2-.9.2-1.5.2-1.2 0-1.9-.3-2.3-.8s-.6-1.2-.6-2.1c0-1.8 1-2.7 2.9-2.7 1.1.1 1.9.4 2.3.8z" fill="#ff6900"/></svg>