<svg xmlns="http://www.w3.org/2000/svg" xmlns:xlink="http://www.w3.org/1999/xlink" width="1800" height="1062.67"><defs><linearGradient id="a" x1="1041.96" y1="-3699.85" x2="1159.6" y2="-3699.85" gradientTransform="matrix(1 0 0 -1 0 -2909.06)" gradientUnits="userSpaceOnUse"><stop offset="0" stop-color="#454141"/><stop offset="1" stop-color="#c3bec1"/></linearGradient><linearGradient id="b" x1="849.04" y1="-3787.53" x2="973.09" y2="-3787.53" xlink:href="#a"/><linearGradient id="c" x1="1229.88" y1="-3592.53" x2="1325.47" y2="-3592.53" xlink:href="#a"/><linearGradient id="d" x1="662.5" y1="-3836.11" x2="790.3" y2="-3836.11" xlink:href="#a"/><linearGradient id="e" x1="469.37" y1="-3848.16" x2="613.94" y2="-3848.16" xlink:href="#a"/><linearGradient id="f" x1="279.47" y1="-3857.28" x2="413.84" y2="-3857.28" xlink:href="#a"/><linearGradient id="g" x1="1418.47" y1="-3389.08" x2="1487.59" y2="-3389.08" xlink:href="#a"/><linearGradient id="h" x1="1609.03" y1="262.86" x2="1652" y2="262.86" xlink:href="#a"/><style>.b{fill:bisque}.c{fill:#ff6900}.e,.f,.g{fill:none}.g{stroke:#333}.e{stroke:bisque;stroke-width:.9px}.e,.f,.g{stroke-miterlimit:10}.f{stroke:#989898;stroke-width:.76px}.g{stroke-width:.96px}</style></defs><path fill="#fdf2e8" d="M-22.57-36.53h1844.02v1110.85H-22.57z"/><path class="b" d="M1772.59-104.93l-162.71 272.22-.5.82.33 199.81 41.93-52.37 199.07-328.46v-89.3l-78.12-2.72z"/><path class="b" d="M1609.38 168.11l.33 199.81L1487.3 520.7l-68.53-81.54 190.61-271.05z"/><path class="b" d="M1418.77 439.16l68.53 81.54-68.15 78.36-.38-159.9z"/><path class="b" d="M1418.77 439.16l.38 159.9-93.3 107.29-54.67-26.11-40.3-19.44 187.89-221.64zM1303.1 695.64l22.75 10.71-95.98 55.81-.46-100.39.77-.48 72.92 34.35z"/><path class="b" d="M1229.41 661.77l.46 100.39-70.35 40.9-117.48-24.74 187.37-116.55zm-69.89 141.29l-117.48 51.2v-75.94l117.48 24.74zm-117.48-24.74v75.94l-68.99 30.07-123.98-11.92 192.97-94.09z"/><path class="b" d="M849.07 872.41l120.15 12.87-120.15 29.56v-42.43z"/><path class="b" d="M849.07 872.41v42.43l-58.78 14.46-127.77-4.69 186.55-52.2zm-76.98 57.93l-109.66 6.23.09-11.96 109.57 5.73zm-109.57-5.73l-.09 11.96-48.49 2.75-76.92-5.5 125.5-9.21zm-48.58 14.71l-144.57 7.05v-7.62l1.32-.05 143.25.62z"/><path class="b" d="M613.94 939.32l-143.25-.62.12-.01 66.21-4.87 76.92 5.5zm-144.57-.57v7.62l-55.53 2.71-71.11-4.71 126.64-5.62zm-55.53 10.33l-134.51 8.39.03-1.4 134.48-6.99z"/><path class="b" d="M413.84 949.08l-134.48 6.99.11-8.89 134.37 1.9z"/><path class="b" d="M413.84 949.08l-134.37-1.9 63.26-2.81 71.11 4.71z"/><path class="b" d="M279.47 947.18l-.11 8.89-84.59 4.38h-71.69l156.39-13.27zm-.11 8.89l-.03 1.4-47.8 2.98h-36.76l84.59-4.38zm-156.28 4.38h-36.3l1.61-.17 34.69.17z"/><path d="M1384.92 1010.87a1.58 1.58 0 01-1.57-.74 1.4 1.4 0 01.4-1.6l6.45-7.46a31.85 31.85 0 002.14-2.67 13.75 13.75 0 001.2-2 6.56 6.56 0 00.56-1.53 7 7 0 00.14-1.37 2.89 2.89 0 00-.88-2.12 3.31 3.31 0 00-2.44-.89 4.29 4.29 0 00-2.94.94 4.5 4.5 0 00-1.39 2.26 1.34 1.34 0 01-.76.91 1.77 1.77 0 01-1.09.1 1.62 1.62 0 01-.91-.59 1.23 1.23 0 01-.18-1.15 7.91 7.91 0 012.39-3.73 7 7 0 014.88-1.61 6.14 6.14 0 014.55 1.74 5.65 5.65 0 011.74 4.14 11 11 0 01-.2 2.08 8.79 8.79 0 01-.75 2.11 16.25 16.25 0 01-1.45 2.33c-.61.84-1.37 1.79-2.28 2.86l-4.42 5.09h8.31a1.4 1.4 0 011.14.46 1.45 1.45 0 010 2 1.37 1.37 0 01-1.14.46zm19.16-20.21a6.53 6.53 0 0111.05 0q2.08 3 2.09 8.74t-2.1 8.77a6.58 6.58 0 01-11 0q-2.08-3-2.09-8.77c-.03-3.8.68-6.71 2.05-8.74zm1.38 13.22a8 8 0 001.14 2.72 3.69 3.69 0 001.5 1.33 3.39 3.39 0 003 0 3.69 3.69 0 001.5-1.33 8.17 8.17 0 001.14-2.72 18.36 18.36 0 00.44-4.48 18 18 0 00-.44-4.44 8.36 8.36 0 00-1.14-2.72 3.93 3.93 0 00-1.5-1.38 3.15 3.15 0 00-3 0 3.91 3.91 0 00-1.49 1.38 8.83 8.83 0 00-1.13 2.72 17.42 17.42 0 00-.46 4.44 18.36 18.36 0 00.44 4.48zm22.25-12.23l-4.55 2.72a1.34 1.34 0 01-1.19.17 1.61 1.61 0 01-.85-.66 1.53 1.53 0 01-.24-1 1.19 1.19 0 01.7-.91l6.82-4.08a1.56 1.56 0 011.62-.19 1.45 1.45 0 01.69 1.39v20.16a1.26 1.26 0 01-.47 1.08 1.69 1.69 0 01-2.06 0 1.26 1.26 0 01-.47-1.08zm6 16.34a1.4 1.4 0 011.14.46 1.45 1.45 0 010 2 1.37 1.37 0 01-1.14.46h-11a1.37 1.37 0 01-1.13-.46 1.45 1.45 0 010-2 1.4 1.4 0 011.13-.46zm7.07-11.86a5.09 5.09 0 01-.59-2.49 5.7 5.7 0 011.76-4.42 6 6 0 014.25-1.61 1.37 1.37 0 011.13.46 1.46 1.46 0 01.38 1 1.5 1.5 0 01-.38 1 1.39 1.39 0 01-1.13.45 3.17 3.17 0 00-2.14.78 3 3 0 00-.9 2.38 2.92 2.92 0 00.89 2.15 3 3 0 002.21.89 1.53 1.53 0 011.14.47 1.49 1.49 0 01.38 1 1.46 1.46 0 01-.38 1 1.49 1.49 0 01-1.14.47 4.75 4.75 0 00-3.24 1.22 3.86 3.86 0 00-1.37 3 4.17 4.17 0 001.34 3.29 5 5 0 003.46 1.2 4.48 4.48 0 003.11-1.19 4.2 4.2 0 001.31-3.3 3.88 3.88 0 00-1.35-3 4.82 4.82 0 00-3.26-1.19 1.49 1.49 0 01-1.14-.47 1.46 1.46 0 01-.38-1 1.49 1.49 0 01.38-1 1.53 1.53 0 011.14-.47 3 3 0 002.21-.89 3.28 3.28 0 000-4.53 3.18 3.18 0 00-2.12-.78 1.39 1.39 0 01-1.13-.45 1.5 1.5 0 01-.38-1 1.46 1.46 0 01.38-1 1.37 1.37 0 011.13-.46 6 6 0 014.24 1.61 5.68 5.68 0 011.77 4.42 5 5 0 01-.59 2.45 5.74 5.74 0 01-1.53 1.79 6.9 6.9 0 012.7 2.45 6.37 6.37 0 011 3.46 7 7 0 01-2.18 5.36 7.53 7.53 0 01-5.25 2 8.18 8.18 0 01-5.55-2 6.82 6.82 0 01-2.26-5.39 6.21 6.21 0 011-3.38 7.1 7.1 0 012.7-2.5 5.7 5.7 0 01-1.62-1.78zm-244.54 14.74a1.59 1.59 0 01-1.57-.74 1.4 1.4 0 01.4-1.6l6.45-7.46c.9-1 1.62-1.92 2.15-2.67a15.85 15.85 0 001.2-2 6.49 6.49 0 00.55-1.53 6.31 6.31 0 00.14-1.37 2.89 2.89 0 00-.88-2.12 3.29 3.29 0 00-2.44-.89 4.29 4.29 0 00-2.94.94 4.48 4.48 0 00-1.38 2.26 1.37 1.37 0 01-.76.91 1.79 1.79 0 01-1.09.1 1.61 1.61 0 01-.92-.59 1.23 1.23 0 01-.15-1.11 7.89 7.89 0 012.38-3.73 7 7 0 014.88-1.61 6.13 6.13 0 014.55 1.74 5.65 5.65 0 011.74 4.14 11 11 0 01-.2 2.08 9.2 9.2 0 01-.74 2.11 16.39 16.39 0 01-1.46 2.33c-.61.84-1.37 1.79-2.27 2.86l-4.43 5.09h8.31a1.4 1.4 0 011.14.46 1.45 1.45 0 010 2 1.37 1.37 0 01-1.14.46zm19.17-20.21a6.52 6.52 0 0111 0q2.08 3 2.09 8.74t-2.1 8.77a6.58 6.58 0 01-11 0q-2.09-3-2.08-8.77t2.09-8.74zm1.37 13.22a8.39 8.39 0 001.14 2.72 3.69 3.69 0 001.5 1.33 3.87 3.87 0 001.5.35 3.79 3.79 0 001.5-.35 3.69 3.69 0 001.5-1.33 8 8 0 001.14-2.72 18.36 18.36 0 00.44-4.48 18 18 0 00-.44-4.44 8.15 8.15 0 00-1.14-2.72 3.93 3.93 0 00-1.5-1.38 3.54 3.54 0 00-1.5-.38 3.61 3.61 0 00-1.5.38 3.82 3.82 0 00-1.48 1.38 8.58 8.58 0 00-1.14 2.72 17.42 17.42 0 00-.46 4.44 18.87 18.87 0 00.44 4.48zm22.22-12.23l-4.55 2.72a1.34 1.34 0 01-1.19.17 1.65 1.65 0 01-.85-.66 1.53 1.53 0 01-.24-1 1.21 1.21 0 01.7-.91l6.83-4.08a1.54 1.54 0 011.61-.19 1.45 1.45 0 01.69 1.39v20.16a1.23 1.23 0 01-.47 1.08 1.69 1.69 0 01-2.06 0 1.26 1.26 0 01-.47-1.08zm6 16.34a1.4 1.4 0 011.13.46 1.45 1.45 0 010 2 1.37 1.37 0 01-1.13.46h-11a1.37 1.37 0 01-1.14-.46 1.45 1.45 0 010-2 1.4 1.4 0 011.14-.46zm15.77-17.19h-8.88a1.37 1.37 0 01-1.13-.46 1.46 1.46 0 01-.38-1 1.48 1.48 0 01.38-1 1.4 1.4 0 011.13-.46H1263a1.54 1.54 0 011.34.59 1.3 1.3 0 01.05 1.4l-8.63 20.07a1.28 1.28 0 01-.85.82 1.69 1.69 0 01-1.09 0 1.6 1.6 0 01-.81-.71 1.32 1.32 0 010-1.17zm-252.58 20.07a1.56 1.56 0 01-1.56-.74 1.41 1.41 0 01.39-1.6l6.45-7.46a32.24 32.24 0 002.15-2.67 13.75 13.75 0 001.2-2 6.56 6.56 0 00.56-1.53 7 7 0 00.14-1.37 2.9 2.9 0 00-.89-2.12 3.29 3.29 0 00-2.43-.89 4.25 4.25 0 00-2.94.94 4.43 4.43 0 00-1.39 2.26 1.34 1.34 0 01-.76.91 1.78 1.78 0 01-1.09.1 1.64 1.64 0 01-.92-.59 1.23 1.23 0 01-.17-1.15 7.84 7.84 0 012.39-3.73 7 7 0 014.88-1.61 6.16 6.16 0 014.55 1.74 5.65 5.65 0 011.74 4.14 10.19 10.19 0 01-.21 2.08 8.34 8.34 0 01-.74 2.11 16.25 16.25 0 01-1.45 2.33 53.2 53.2 0 01-2.28 2.86l-4.42 5.09h8.31a1.4 1.4 0 011.13.46 1.45 1.45 0 010 2 1.37 1.37 0 01-1.13.46zm19.17-20.21a6.53 6.53 0 0111.05 0q2.08 3 2.08 8.74t-2.1 8.77a6.57 6.57 0 01-11 0q-2.09-3-2.09-8.77t2.06-8.74zm1.38 13.22a8.18 8.18 0 001.13 2.72 3.64 3.64 0 003 1.68 3.87 3.87 0 001.5-.35 3.69 3.69 0 001.5-1.33 8.39 8.39 0 001.14-2.72 18.87 18.87 0 00.44-4.48 18.51 18.51 0 00-.45-4.4 8.58 8.58 0 00-1.14-2.72 3.93 3.93 0 00-1.5-1.38 3.61 3.61 0 00-1.5-.38 3.54 3.54 0 00-1.5.38 3.84 3.84 0 00-1.49 1.38 9.07 9.07 0 00-1.14 2.72 17.88 17.88 0 00-.46 4.44 18.3 18.3 0 00.47 4.44zm22.26-12.23l-4.56 2.72a1.32 1.32 0 01-1.18.17 1.61 1.61 0 01-.85-.66 1.53 1.53 0 01-.24-1 1.17 1.17 0 01.69-.91l6.83-4.08a1.54 1.54 0 011.61-.19 1.43 1.43 0 01.7 1.39v20.16a1.24 1.24 0 01-.48 1.08 1.7 1.7 0 01-1 .35 1.73 1.73 0 01-1-.35 1.23 1.23 0 01-.47-1.08zm6 16.34a1.4 1.4 0 011.14.46 1.45 1.45 0 010 2 1.37 1.37 0 01-1.14.46h-11a1.39 1.39 0 01-1.14-.46 1.45 1.45 0 010-2 1.42 1.42 0 011.14-.46zm9.2-10.28a6.16 6.16 0 014.32-1.6 7.86 7.86 0 012.56.43 6.5 6.5 0 012.26 1.31 6.61 6.61 0 011.61 2.27 8.2 8.2 0 01.61 3.32 7.8 7.8 0 01-2 5.53 6.92 6.92 0 01-5.34 2.18 7.94 7.94 0 01-5.4-2.08q-2.37-2.09-2.37-6.39a18.17 18.17 0 012.33-9.24 13 13 0 016.74-5.74 1.35 1.35 0 011.21 0 1.56 1.56 0 01.78 1.85 1.25 1.25 0 01-.86.81 10.3 10.3 0 00-3.33 2.11 11.26 11.26 0 00-2.23 3 14.25 14.25 0 00-1.25 3.57 18.61 18.61 0 00-.39 3.76c0 2 .56 3.47 1.55 4.27a5 5 0 003.22 1.2 4.23 4.23 0 003.11-1.25 4.83 4.83 0 001.25-3.59c0-1.68-.43-2.85-1.28-3.49a4.69 4.69 0 00-2.89-1 5.44 5.44 0 00-3.08 1 4.48 4.48 0 00-1.88 2.86c0 .11-.11.24-.32.41a1.92 1.92 0 01-.66.35.55.55 0 01-.57-.13c-.15-.15-.17-.48-.06-1a8.38 8.38 0 012.36-4.72zm-250.65 13.16a1.56 1.56 0 01-1.56-.74 1.41 1.41 0 01.39-1.6l6.45-7.46a32.24 32.24 0 002.17-2.67 13.75 13.75 0 001.2-2 6.07 6.07 0 00.55-1.53 6.32 6.32 0 00.15-1.37 2.9 2.9 0 00-.89-2.12 3.29 3.29 0 00-2.43-.89 4.25 4.25 0 00-2.94.94 4.43 4.43 0 00-1.39 2.26 1.34 1.34 0 01-.76.91 1.78 1.78 0 01-1.09.1 1.64 1.64 0 01-.92-.59 1.23 1.23 0 01-.17-1.15 7.84 7.84 0 012.39-3.73 7 7 0 014.88-1.61 6.16 6.16 0 014.55 1.74 5.65 5.65 0 011.74 4.14 10.19 10.19 0 01-.21 2.08 8.74 8.74 0 01-.74 2.11 16.25 16.25 0 01-1.45 2.33 53.2 53.2 0 01-2.28 2.86l-4.42 5.09h8.31a1.43 1.43 0 011.14.46 1.48 1.48 0 010 2 1.4 1.4 0 01-1.14.46zm19.17-20.21a6.53 6.53 0 0111 0q2.09 3 2.08 8.74t-2.1 8.77a6.57 6.57 0 01-11 0q-2.09-3-2.09-8.77t2.11-8.74zm1.38 13.22a8.18 8.18 0 001.13 2.72 3.82 3.82 0 001.5 1.33 3.41 3.41 0 003 0 3.82 3.82 0 001.5-1.33 8.39 8.39 0 001.14-2.72 18.87 18.87 0 00.44-4.48 18.51 18.51 0 00-.44-4.44 8.58 8.58 0 00-1.14-2.72 4.08 4.08 0 00-1.5-1.38 3.17 3.17 0 00-3 0 3.89 3.89 0 00-1.48 1.38 9.07 9.07 0 00-1.14 2.72 17.88 17.88 0 00-.46 4.44 18.3 18.3 0 00.45 4.48zm22.24-12.23l-4.55 2.72a1.32 1.32 0 01-1.18.17 1.61 1.61 0 01-.85-.66 1.47 1.47 0 01-.24-1 1.17 1.17 0 01.69-.91l6.83-4.08a1.54 1.54 0 011.61-.19 1.43 1.43 0 01.7 1.39v20.16a1.24 1.24 0 01-.48 1.08 1.7 1.7 0 01-1 .35 1.73 1.73 0 01-1-.35 1.24 1.24 0 01-.48-1.08zm6 16.34a1.42 1.42 0 011.14.46 1.45 1.45 0 010 2 1.39 1.39 0 01-1.14.46h-11a1.39 1.39 0 01-1.14-.46 1.45 1.45 0 010-2 1.42 1.42 0 011.14-.46zm9.28-.55a4.2 4.2 0 002.58.84 4.52 4.52 0 003.64-1.43 5.32 5.32 0 001.2-3.57 4.88 4.88 0 00-1.17-3.46 5.25 5.25 0 00-4-1.25c-.36 0-.75 0-1.17.07a9.69 9.69 0 00-1.33.22 1.45 1.45 0 01-1.36-.27 1.4 1.4 0 01-.47-1.28l.85-8.09a1.41 1.41 0 01.52-.9 1.53 1.53 0 011-.4h7.52a1.36 1.36 0 011.1.46 1.48 1.48 0 01.38 1 1.46 1.46 0 01-.38 1 1.33 1.33 0 01-1.1.46h-6.16l-.51 5h1.11c2.71 0 4.75.7 6.1 2.12a7.61 7.61 0 012 5.46 9 9 0 01-.48 2.93 7.26 7.26 0 01-1.45 2.51 7.06 7.06 0 01-2.45 1.77 8.38 8.38 0 01-3.46.66 7.44 7.44 0 01-7-4.71 1.27 1.27 0 01.11-1.17 1.63 1.63 0 01.85-.64 1.7 1.7 0 011.09 0 1.31 1.31 0 01.82.89 4.26 4.26 0 001.62 1.78zm-244.84 3.43a1.56 1.56 0 01-1.56-.74 1.37 1.37 0 01.39-1.6l6.45-7.46c.9-1 1.62-1.92 2.15-2.67a15.85 15.85 0 001.2-2 6.49 6.49 0 00.55-1.53 6.31 6.31 0 00.14-1.37 2.89 2.89 0 00-.88-2.12 3.29 3.29 0 00-2.44-.89 4.24 4.24 0 00-2.93.94 4.43 4.43 0 00-1.39 2.26 1.37 1.37 0 01-.76.91 1.79 1.79 0 01-1.09.1 1.61 1.61 0 01-.92-.59 1.23 1.23 0 01-.17-1.15 7.89 7.89 0 012.38-3.73 7 7 0 014.88-1.61 6.17 6.17 0 014.56 1.74 5.68 5.68 0 011.73 4.14 10.19 10.19 0 01-.2 2.08 9.2 9.2 0 01-.74 2.11 16.39 16.39 0 01-1.46 2.33c-.61.84-1.37 1.79-2.27 2.86L632 1008h8.31a1.4 1.4 0 011.14.46 1.45 1.45 0 010 2 1.37 1.37 0 01-1.14.46zM648 990.66a6.52 6.52 0 0111 0q2.09 3 2.09 8.74t-2.1 8.77a6.58 6.58 0 01-11 0q-2.09-3-2.08-8.77t2.09-8.74zm1.37 13.22a8.39 8.39 0 001.14 2.72 3.69 3.69 0 001.5 1.33 3.87 3.87 0 001.5.35 3.79 3.79 0 001.5-.35 3.69 3.69 0 001.5-1.33 8 8 0 001.14-2.72 18.3 18.3 0 00.45-4.48 17.94 17.94 0 00-.45-4.44 8.15 8.15 0 00-1.14-2.72 3.93 3.93 0 00-1.5-1.38 3.54 3.54 0 00-1.5-.38 3.61 3.61 0 00-1.5.38 3.82 3.82 0 00-1.48 1.38 8.58 8.58 0 00-1.14 2.72 17.42 17.42 0 00-.46 4.44 18.87 18.87 0 00.39 4.48zm22.2-12.23l-4.57 2.72a1.32 1.32 0 01-1.18.17 1.64 1.64 0 01-.86-.66 1.47 1.47 0 01-.23-1 1.17 1.17 0 01.69-.91l6.83-4.08a1.54 1.54 0 011.61-.19 1.45 1.45 0 01.69 1.39v20.16a1.23 1.23 0 01-.47 1.08 1.73 1.73 0 01-1 .35 1.68 1.68 0 01-1-.35 1.24 1.24 0 01-.48-1.08zm6 16.34a1.4 1.4 0 011.13.46 1.45 1.45 0 010 2 1.37 1.37 0 01-1.13.46h-11a1.37 1.37 0 01-1.14-.46 1.45 1.45 0 010-2 1.4 1.4 0 011.14-.46zm14.58-15.8l-5.84 9.64h10.49a1.44 1.44 0 011.12.44 1.42 1.42 0 01.4 1 1.44 1.44 0 01-1.52 1.42h-13a1.56 1.56 0 01-1.46-.64 1.44 1.44 0 01.19-1.54l8.44-13.62a3 3 0 011-1 2.4 2.4 0 011.14-.27h.38a1.86 1.86 0 011.3.44 1.63 1.63 0 01.47 1.23v20.39a1.3 1.3 0 01-.47 1.09 1.71 1.71 0 01-1.05.36 1.68 1.68 0 01-1-.36 1.28 1.28 0 01-.47-1.09zM442 1010.87a1.59 1.59 0 01-1.57-.74 1.4 1.4 0 01.4-1.6l6.45-7.46c.9-1 1.62-1.92 2.15-2.67a15.85 15.85 0 001.2-2 6.19 6.19 0 00.69-2.9 2.89 2.89 0 00-.88-2.12 3.31 3.31 0 00-2.44-.89 4.29 4.29 0 00-2.94.94 4.5 4.5 0 00-1.39 2.26 1.32 1.32 0 01-.76.91 1.77 1.77 0 01-1.09.1 1.62 1.62 0 01-.91-.59 1.25 1.25 0 01-.18-1.15 7.91 7.91 0 012.39-3.73 7 7 0 014.88-1.61 6.14 6.14 0 014.55 1.74 5.65 5.65 0 011.74 4.14 11 11 0 01-.2 2.08 8.79 8.79 0 01-.75 2.11 15.41 15.41 0 01-1.45 2.33c-.61.84-1.37 1.79-2.28 2.86l-4.41 5.12h8.31a1.4 1.4 0 011.14.46 1.45 1.45 0 010 2 1.37 1.37 0 01-1.14.46zm19.18-20.21a6.52 6.52 0 0111 0q2.08 3 2.09 8.74t-2.1 8.77a6.58 6.58 0 01-11 0q-2.08-3-2.08-8.77t2.09-8.74zm1.37 13.22a8.17 8.17 0 001.14 2.72 3.69 3.69 0 001.5 1.33 3.39 3.39 0 003 0 3.69 3.69 0 001.5-1.33 8 8 0 001.14-2.72 18.36 18.36 0 00.44-4.48 18 18 0 00-.44-4.44 8.15 8.15 0 00-1.14-2.72 3.93 3.93 0 00-1.5-1.38 3.15 3.15 0 00-3 0 3.91 3.91 0 00-1.49 1.38 8.83 8.83 0 00-1.13 2.72 17.42 17.42 0 00-.46 4.44 18.87 18.87 0 00.44 4.48zm22.25-12.23l-4.55 2.72a1.34 1.34 0 01-1.19.17 1.61 1.61 0 01-.85-.66 1.53 1.53 0 01-.24-1 1.21 1.21 0 01.7-.91l6.82-4.08a1.56 1.56 0 011.62-.19 1.45 1.45 0 01.69 1.39v20.16a1.26 1.26 0 01-.47 1.08 1.69 1.69 0 01-2.06 0 1.26 1.26 0 01-.47-1.08zm6 16.34a1.4 1.4 0 011.14.46 1.45 1.45 0 010 2 1.37 1.37 0 01-1.14.46h-11a1.37 1.37 0 01-1.13-.46 1.45 1.45 0 010-2 1.4 1.4 0 011.13-.46zm9.39-.52a5.43 5.43 0 003.1.81 4.87 4.87 0 003.47-1.19 4.12 4.12 0 001.27-3.17 3.72 3.72 0 00-1.41-2.94 6.36 6.36 0 00-4.22-1.2 1.68 1.68 0 01-.95-.51 1 1 0 01-.25-.81 1.16 1.16 0 01.52-.75 2.36 2.36 0 011.41-.34 12.17 12.17 0 012.64.32 7.91 7.91 0 012.57 1.07 6.06 6.06 0 011.93 2 5.93 5.93 0 01.76 3.13 6.85 6.85 0 01-2.15 5.23 7.89 7.89 0 01-5.59 2 8.79 8.79 0 01-4.71-1.23 7 7 0 01-2.85-3.25 1.32 1.32 0 010-1.17 1.59 1.59 0 01.82-.7 1.69 1.69 0 011.09 0 1.31 1.31 0 01.86.82 4.21 4.21 0 001.69 1.88zm-.76-18.74a7 7 0 014-1.12 6.69 6.69 0 014.27 1.47 5.24 5.24 0 011.87 4.37 5.37 5.37 0 01-.45 2.17 5.12 5.12 0 01-1.34 1.83 8.52 8.52 0 01-2.23 1.41 13.5 13.5 0 01-3.13.92h-.34a1.37 1.37 0 01-1.11-.46 1.55 1.55 0 01-.38-1 1.51 1.51 0 01.38-1 1.34 1.34 0 011.11-.46h.34a4.55 4.55 0 002.89-1 3 3 0 001.25-2.47 2.73 2.73 0 00-.88-2.24 3.46 3.46 0 00-2.25-.73 4.13 4.13 0 00-2.35.65 3.35 3.35 0 00-1.28 1.38 1.34 1.34 0 01-.9.77 1.62 1.62 0 01-1.09-.08 1.56 1.56 0 01-.78-.74 1.29 1.29 0 01.05-1.19 6.66 6.66 0 012.35-2.48zm-244.2 22.14a1.56 1.56 0 01-1.56-.74 1.41 1.41 0 01.39-1.6l6.45-7.46a32.24 32.24 0 002.15-2.67 13.75 13.75 0 001.2-2 6.07 6.07 0 00.55-1.53 6.32 6.32 0 00.15-1.37 2.9 2.9 0 00-.89-2.12 3.29 3.29 0 00-2.43-.89 4.25 4.25 0 00-2.94.94 4.43 4.43 0 00-1.39 2.26 1.34 1.34 0 01-.76.91 1.78 1.78 0 01-1.09.1 1.64 1.64 0 01-.92-.59A1.23 1.23 0 01254 993a7.91 7.91 0 012.39-3.73 7 7 0 014.88-1.61 6.16 6.16 0 014.55 1.74 5.65 5.65 0 011.74 4.14 10.19 10.19 0 01-.21 2.08 8.34 8.34 0 01-.74 2.11 16.25 16.25 0 01-1.45 2.33 53.2 53.2 0 01-2.28 2.86l-4.42 5.09h8.31a1.43 1.43 0 011.14.46 1.48 1.48 0 010 2 1.4 1.4 0 01-1.14.46zm19.17-20.21a6.53 6.53 0 0111.05 0q2.08 3 2.08 8.74t-2.1 8.77a6.57 6.57 0 01-11 0q-2.09-3-2.09-8.77t2.06-8.74zm1.38 13.22a8.18 8.18 0 001.13 2.72 3.64 3.64 0 003 1.68 3.87 3.87 0 001.5-.35 3.76 3.76 0 001.5-1.33 8.39 8.39 0 001.14-2.72 18.87 18.87 0 00.44-4.48 18.51 18.51 0 00-.44-4.44 8.58 8.58 0 00-1.14-2.72 4 4 0 00-1.5-1.38 3.61 3.61 0 00-1.5-.38 3.54 3.54 0 00-1.5.38 3.84 3.84 0 00-1.49 1.38 9.07 9.07 0 00-1.14 2.72 17.88 17.88 0 00-.46 4.44 18.3 18.3 0 00.46 4.48zM298 991.65l-4.55 2.72a1.32 1.32 0 01-1.18.17 1.61 1.61 0 01-.85-.66 1.47 1.47 0 01-.24-1 1.17 1.17 0 01.69-.91l6.83-4.08a1.54 1.54 0 011.61-.19 1.43 1.43 0 01.7 1.39v20.16a1.24 1.24 0 01-.48 1.08 1.7 1.7 0 01-1 .35 1.73 1.73 0 01-1-.35 1.24 1.24 0 01-.48-1.08zm6 16.34a1.4 1.4 0 011.14.46 1.45 1.45 0 010 2 1.37 1.37 0 01-1.14.46h-11a1.39 1.39 0 01-1.14-.46 1.45 1.45 0 010-2 1.42 1.42 0 011.14-.45zm6.22 2.88a1.56 1.56 0 01-1.56-.74 1.41 1.41 0 01.39-1.6l6.45-7.46a32.24 32.24 0 002.15-2.67 13.75 13.75 0 001.2-2 6.07 6.07 0 00.55-1.53 6.32 6.32 0 00.15-1.37 2.9 2.9 0 00-.89-2.12 3.29 3.29 0 00-2.43-.89 4.25 4.25 0 00-2.94.94 4.43 4.43 0 00-1.39 2.26 1.34 1.34 0 01-.76.91 1.78 1.78 0 01-1.09.1 1.64 1.64 0 01-.92-.59A1.23 1.23 0 01309 993a7.91 7.91 0 012.39-3.73 7 7 0 014.88-1.61 6.16 6.16 0 014.55 1.74 5.65 5.65 0 011.74 4.14 10.19 10.19 0 01-.21 2.08 8.34 8.34 0 01-.74 2.11 16.25 16.25 0 01-1.45 2.33 53.2 53.2 0 01-2.28 2.86l-4.42 5.09h8.31a1.43 1.43 0 011.14.46 1.45 1.45 0 010 2 1.4 1.4 0 01-1.14.46zm-241.76 0a1.56 1.56 0 01-1.56-.74 1.39 1.39 0 01.39-1.6l6.45-7.46c.9-1 1.62-1.92 2.15-2.67a15.85 15.85 0 001.2-2 6.49 6.49 0 00.55-1.53 6.31 6.31 0 00.14-1.37 2.89 2.89 0 00-.88-2.12 3.29 3.29 0 00-2.43-.89 4.25 4.25 0 00-2.94.94 4.43 4.43 0 00-1.39 2.26 1.34 1.34 0 01-.76.91 1.78 1.78 0 01-1.09.1 1.61 1.61 0 01-.92-.59 1.23 1.23 0 01-.17-1.11 7.89 7.89 0 012.38-3.73 7 7 0 014.89-1.61 6.16 6.16 0 014.53 1.72 5.64 5.64 0 011.73 4.14 10.19 10.19 0 01-.2 2.08 9.2 9.2 0 01-.74 2.11 16.39 16.39 0 01-1.46 2.33c-.61.84-1.37 1.79-2.27 2.86l-4.41 5.1H80a1.4 1.4 0 011.14.46 1.45 1.45 0 010 2 1.37 1.37 0 01-1.14.46zm19.17-20.21a6.52 6.52 0 0111 0q2.08 3 2.09 8.74t-2.1 8.77a6.58 6.58 0 01-11 0q-2.08-3-2.08-8.77t2.09-8.74zm1.37 13.22a8.39 8.39 0 001.14 2.72 3.69 3.69 0 001.5 1.33 3.87 3.87 0 001.5.35 3.64 3.64 0 003-1.68 8.18 8.18 0 001.13-2.72 18.3 18.3 0 00.45-4.48 17.94 17.94 0 00-.45-4.44 8.37 8.37 0 00-1.13-2.72 4 4 0 00-1.51-1.38 3.54 3.54 0 00-1.5-.38 3.61 3.61 0 00-1.5.38 3.82 3.82 0 00-1.48 1.38A8.58 8.58 0 0089 995a17.42 17.42 0 00-.46 4.44 18.87 18.87 0 00.46 4.44zm22.25-12.23l-4.55 2.72a1.32 1.32 0 01-1.18.17 1.64 1.64 0 01-.86-.66 1.47 1.47 0 01-.23-1 1.17 1.17 0 01.69-.91l6.83-4.08a1.54 1.54 0 011.61-.19 1.45 1.45 0 01.69 1.39v20.16a1.23 1.23 0 01-.47 1.08 1.73 1.73 0 01-1 .35 1.68 1.68 0 01-1-.35 1.24 1.24 0 01-.48-1.08zm6 16.34a1.4 1.4 0 011.13.46 1.45 1.45 0 010 2 1.37 1.37 0 01-1.13.46h-11a1.37 1.37 0 01-1.14-.46 1.45 1.45 0 010-2 1.4 1.4 0 011.14-.46zm12.33-16.34l-4.58 2.72a1.32 1.32 0 01-1.18.17 1.64 1.64 0 01-.86-.66 1.47 1.47 0 01-.23-1 1.17 1.17 0 01.69-.91l6.83-4.08a1.54 1.54 0 011.61-.19 1.45 1.45 0 01.69 1.39v20.16a1.23 1.23 0 01-.47 1.08 1.73 1.73 0 01-1 .35 1.68 1.68 0 01-1-.35 1.24 1.24 0 01-.48-1.08zm6 16.34a1.4 1.4 0 011.13.46 1.45 1.45 0 010 2 1.37 1.37 0 01-1.13.46h-11a1.37 1.37 0 01-1.14-.46 1.45 1.45 0 010-2 1.4 1.4 0 011.14-.46zm1441.22 2.68a1.55 1.55 0 01-1.56-.75 1.38 1.38 0 01.39-1.59l6.45-7.46c.9-1 1.62-1.92 2.15-2.67a14.73 14.73 0 001.2-2 6.82 6.82 0 00.55-1.53 6.31 6.31 0 00.14-1.37 2.88 2.88 0 00-.88-2.12 3.29 3.29 0 00-2.43-.89 4.21 4.21 0 00-2.94.94 4.45 4.45 0 00-1.39 2.25 1.36 1.36 0 01-.76.92 1.78 1.78 0 01-1.09.1 1.61 1.61 0 01-.92-.59 1.23 1.23 0 01-.17-1.15 7.84 7.84 0 012.38-3.73 7 7 0 014.89-1.61 6.19 6.19 0 014.55 1.73 5.65 5.65 0 011.73 4.15 10.19 10.19 0 01-.2 2.08 9 9 0 01-.74 2.1 15.91 15.91 0 01-1.46 2.34c-.61.83-1.37 1.79-2.27 2.86l-4.43 5.09h8.31a1.37 1.37 0 011.14.46 1.46 1.46 0 01.38 1 1.48 1.48 0 01-.38 1 1.4 1.4 0 01-1.14.46zm19.2-20.21a6.52 6.52 0 0111 0c1.4 2 2.09 4.94 2.09 8.73s-.7 6.78-2.1 8.77a6.57 6.57 0 01-11 0q-2.09-3-2.08-8.77t2.09-8.73zm1.37 13.22a8.39 8.39 0 001.14 2.72 3.76 3.76 0 001.5 1.33 3.84 3.84 0 001.5.34 3.6 3.6 0 003-1.67 8.18 8.18 0 001.13-2.72 18.39 18.39 0 00.45-4.49 18.06 18.06 0 00-.45-4.44 8.4 8.4 0 00-1.13-2.71 3.94 3.94 0 00-1.51-1.38 3.54 3.54 0 00-1.5-.38 3.61 3.61 0 00-1.5.38 3.82 3.82 0 00-1.48 1.38 8.62 8.62 0 00-1.14 2.71 17.52 17.52 0 00-.46 4.44 19 19 0 00.42 4.49zm22.22-12.23l-4.55 2.72a1.32 1.32 0 01-1.18.17 1.69 1.69 0 01-.86-.66 1.48 1.48 0 01-.23-1 1.17 1.17 0 01.69-.91l6.83-4.08a1.54 1.54 0 011.61-.19 1.44 1.44 0 01.69 1.39V1009a1.23 1.23 0 01-.47 1.08 1.72 1.72 0 01-1 .34 1.67 1.67 0 01-1-.34 1.24 1.24 0 01-.48-1.08zm6 16.34a1.4 1.4 0 011.14.46 1.5 1.5 0 01.37 1 1.52 1.52 0 01-.37 1 1.43 1.43 0 01-1.14.46h-11a1.4 1.4 0 01-1.14-.46 1.53 1.53 0 01-.38-1 1.51 1.51 0 01.38-1 1.37 1.37 0 011.14-.46zm16.8-6.94a5.84 5.84 0 01-4.25 1.6 8.2 8.2 0 01-2.64-.43 6.37 6.37 0 01-2.27-1.31 6.45 6.45 0 01-1.6-2.27 8.29 8.29 0 01-.6-3.29 7.89 7.89 0 012-5.55 6.94 6.94 0 015.37-2.19 7.94 7.94 0 015.39 2.07q2.36 2.07 2.35 6.36a18 18 0 01-2.34 9.26 13 13 0 01-6.73 5.72 1.37 1.37 0 01-1.2 0 1.58 1.58 0 01-.76-.77 1.49 1.49 0 01-.05-1.06 1.32 1.32 0 01.91-.81 10.42 10.42 0 003.3-2.13 12.24 12.24 0 002.24-3 13.21 13.21 0 001.25-3.56 19.34 19.34 0 00.38-3.76c0-2.07-.53-3.49-1.52-4.28a5.06 5.06 0 00-3.22-1.19 4.29 4.29 0 00-3.15 1.25 4.91 4.91 0 00-1.24 3.62c0 1.66.42 2.82 1.28 3.46a4.72 4.72 0 002.92 1 5.35 5.35 0 003.06-1 4.57 4.57 0 001.87-2.86c0-.11.1-.25.3-.43a1.56 1.56 0 01.63-.36.52.52 0 01.54.12c.14.15.15.51 0 1.08a8.79 8.79 0 01-2.22 4.71z"/><path class="c" d="M456.91 854.74l-8.82 5.19a3.23 3.23 0 01-2.76.43 3.64 3.64 0 01-2-1.48 3.3 3.3 0 01-.5-2.37 3.09 3.09 0 011.65-2.17l14-8.36a3.73 3.73 0 013.72-.33 3.26 3.26 0 011.61 3.16v41.6a2.9 2.9 0 01-1.09 2.47 3.82 3.82 0 01-4.73 0 2.9 2.9 0 01-1.09-2.47zm12.7 32.57a3.26 3.26 0 012.6 1 3.35 3.35 0 010 4.55 3.26 3.26 0 01-2.6 1h-22.77a3.16 3.16 0 01-2.53-1 3.35 3.35 0 010-4.55 3.16 3.16 0 012.53-1zm13.16 6.59c-1.8 0-3-.56-3.55-1.68s-.29-2.36.86-3.72l13.36-15.34q2.69-3.15 4.31-5.39a31.7 31.7 0 002.5-4 11.47 11.47 0 001.12-3.13 17.16 17.16 0 00.23-2.77 5.69 5.69 0 00-1.71-4.11 6.37 6.37 0 00-4.74-1.74 8.48 8.48 0 00-5.83 1.84 9.09 9.09 0 00-2.79 4.48 3 3 0 01-1.68 2.13 3.69 3.69 0 01-2.54.23 3.77 3.77 0 01-2.07-1.38 2.77 2.77 0 01-.36-2.63 15.89 15.89 0 015-7.8q3.78-3.39 10.3-3.39a13.19 13.19 0 019.64 3.65 11.82 11.82 0 013.72 8.72 20.78 20.78 0 01-.46 4.35 19.9 19.9 0 01-1.58 4.38 35.68 35.68 0 01-3 4.87q-1.87 2.6-4.77 5.89l-8.55 9.93h16.38a3.17 3.17 0 012.57 1 3.44 3.44 0 010 4.55 3.17 3.17 0 01-2.57 1zm153.32-15.34c-1.8 0-3-.56-3.55-1.68s-.29-2.35.85-3.71l13.36-15.34c1.8-2.11 3.24-3.9 4.31-5.4a29.92 29.92 0 002.5-4 10.68 10.68 0 001.12-3.12 16.26 16.26 0 00.23-2.77 5.67 5.67 0 00-1.71-4.11 6.35 6.35 0 00-4.74-1.75 8.45 8.45 0 00-5.82 1.85 9.12 9.12 0 00-2.8 4.47 2.91 2.91 0 01-1.68 2.14 3.78 3.78 0 01-4.6-1.15 2.8 2.8 0 01-.37-2.63 16 16 0 015-7.8q3.8-3.39 10.3-3.39a13.17 13.17 0 019.64 3.65 11.8 11.8 0 013.72 8.72 20.2 20.2 0 01-.46 4.35 18.7 18.7 0 01-1.58 4.37 33.47 33.47 0 01-3 4.87q-1.87 2.61-4.77 5.89l-8.58 9.98h16.39a3.18 3.18 0 012.57 1 3.46 3.46 0 010 4.54 3.18 3.18 0 01-2.57 1zm39.52-30.7a10.3 10.3 0 01-1.15-5 12.09 12.09 0 013.72-9.35 12.88 12.88 0 019.05-3.42 3.27 3.27 0 012.6 1 3.34 3.34 0 010 4.54 3.24 3.24 0 01-2.6 1 6 6 0 00-4.15 1.52 5.93 5.93 0 00-1.71 4.67 5.79 5.79 0 006 5.86 3.49 3.49 0 012.6 1 3.26 3.26 0 010 4.48 3.52 3.52 0 01-2.6 1.05 9.45 9.45 0 00-6.45 2.37 7.63 7.63 0 00-2.7 6 8.26 8.26 0 002.67 6.51 10 10 0 006.87 2.37 8.89 8.89 0 006.19-2.33 8.42 8.42 0 002.57-6.55 7.62 7.62 0 00-2.67-6 9.49 9.49 0 00-6.48-2.34 3.52 3.52 0 01-2.6-1.05 3.26 3.26 0 010-4.48 3.49 3.49 0 012.6-1 5.73 5.73 0 004.28-1.75 5.67 5.67 0 001.71-4.11 5.84 5.84 0 00-1.75-4.67 6.06 6.06 0 00-4.11-1.52 3.23 3.23 0 01-2.6-1 3.34 3.34 0 010-4.54 3.26 3.26 0 012.6-1 12.92 12.92 0 019 3.42 12 12 0 013.75 9.35 10.35 10.35 0 01-1.12 4.94 10.88 10.88 0 01-3.16 3.62 15.15 15.15 0 015.5 5.2 13.19 13.19 0 011.94 7 14.54 14.54 0 01-4.61 11.22 15.76 15.76 0 01-11.06 4.25A17.19 17.19 0 01676.1 875a14.21 14.21 0 01-4.8-11.29 13.12 13.12 0 011.91-6.91 15.19 15.19 0 015.53-5.27 11.28 11.28 0 01-3.13-3.67zm139.89-60.41h-17.9a3.19 3.19 0 01-2.54-1 3.26 3.26 0 010-4.48 3.19 3.19 0 012.54-1h23a3.5 3.5 0 013.06 1.32 3.12 3.12 0 01.17 3.22L806 826.67a3.13 3.13 0 01-2 1.91 3.7 3.7 0 01-4.37-1.74 2.85 2.85 0 010-2.67zm35.93 3.29h-.06l-11.52 19h21.32a3.18 3.18 0 012.63 1 3.35 3.35 0 010 4.48 3.18 3.18 0 01-2.63 1h-26.79c-1.66 0-2.77-.5-3.32-1.51a3.48 3.48 0 01.36-3.55L849 782.9a4.92 4.92 0 012-2 5.57 5.57 0 012.5-.56h.79a4.1 4.1 0 012.93 1 3.74 3.74 0 011.09 2.86V826a2.92 2.92 0 01-1.09 2.47 3.73 3.73 0 01-4.67 0 2.89 2.89 0 01-1.09-2.47zm104.99-97.56l-8.82 5.2a3.32 3.32 0 01-2.77.43 3.7 3.7 0 01-2-1.48 3.3 3.3 0 01-.5-2.37 3.07 3.07 0 011.65-2.17l14-8.36a3.73 3.73 0 013.72-.33 3.25 3.25 0 011.61 3.16v41.59a2.89 2.89 0 01-1.09 2.47 3.81 3.81 0 01-2.37.82 3.85 3.85 0 01-2.37-.82 2.91 2.91 0 01-1.08-2.47zm12.7 32.58a3.26 3.26 0 012.6 1 3.34 3.34 0 010 4.54 3.26 3.26 0 01-2.6 1h-22.77a3.16 3.16 0 01-2.53-1 3.34 3.34 0 010-4.54 3.16 3.16 0 012.53-1zm19.74-1.05a8.52 8.52 0 005.14 1.64q4.8 0 7.21-2.8a10.46 10.46 0 002.4-7.07c0-3-.78-5.29-2.34-6.91s-4.18-2.44-7.86-2.44a22.75 22.75 0 00-2.44.14c-.83.08-1.71.22-2.63.39a3.69 3.69 0 01-3.19-.59 3.12 3.12 0 01-1-3l1.77-16.59a3.1 3.1 0 011.19-2.07 3.43 3.43 0 012.24-.89h15.46a3.23 3.23 0 012.63 1 3.42 3.42 0 01.86 2.24 3.38 3.38 0 01-.86 2.23 3.2 3.2 0 01-2.63 1h-12.39l-1 9.54a7.48 7.48 0 011-.07h1q8.55 0 12.8 4.45a15.93 15.93 0 014.24 11.48 18.43 18.43 0 01-1 6 15.45 15.45 0 01-3.06 5.27 15.09 15.09 0 01-5.13 3.72 17.35 17.35 0 01-7.24 1.41 15.33 15.33 0 01-9.25-2.89 14.72 14.72 0 01-5.43-7 2.74 2.74 0 01.17-2.66 3.7 3.7 0 012-1.48 4 4 0 012.54 0 2.87 2.87 0 011.81 1.94 8.25 8.25 0 002.99 4.01zm48.58-30.34h-.07l-11.52 19h21.33a3.2 3.2 0 012.63 1 3.38 3.38 0 010 4.48 3.2 3.2 0 01-2.63 1h-26.79c-1.67 0-2.78-.5-3.32-1.51a3.5 3.5 0 01.36-3.56l17.57-28.3a5 5 0 012-2 5.45 5.45 0 012.51-.56h.79a4.09 4.09 0 012.92 1 3.71 3.71 0 011.09 2.86v41.79a2.89 2.89 0 01-1.09 2.47 3.73 3.73 0 01-4.67 0 2.91 2.91 0 01-1.08-2.47zm80.68-84.6c-1.8 0-3-.56-3.55-1.68s-.29-2.35.85-3.71l13.36-15.38q2.7-3.15 4.31-5.4a29.92 29.92 0 002.5-4 10.68 10.68 0 001.12-3.12 16.18 16.18 0 00.23-2.77 5.67 5.67 0 00-1.71-4.11 6.34 6.34 0 00-4.74-1.74 8.45 8.45 0 00-5.82 1.84 9.12 9.12 0 00-2.8 4.47 2.91 2.91 0 01-1.68 2.14 3.72 3.72 0 01-2.53.23 3.79 3.79 0 01-2.07-1.38 2.77 2.77 0 01-.36-2.63 15.87 15.87 0 015-7.8q3.8-3.39 10.3-3.39a13.21 13.21 0 019.65 3.65 11.83 11.83 0 013.71 8.72 20.2 20.2 0 01-.46 4.35 18.7 18.7 0 01-1.58 4.37 33.47 33.47 0 01-3 4.87q-1.87 2.61-4.77 5.89l-8.56 9.94h16.39a3.17 3.17 0 012.57 1 3.46 3.46 0 010 4.54 3.17 3.17 0 01-2.57 1zm44.52-27.61a13.29 13.29 0 019-3.32 16.72 16.72 0 015.24.86 12.71 12.71 0 014.67 2.76 14.8 14.8 0 013.39 4.77 18.33 18.33 0 01-2.93 18.53q-4.24 4.61-11.35 4.61a16.71 16.71 0 01-11.36-4.38q-5-4.38-5-13.33a37.34 37.34 0 014.87-19.18 27.17 27.17 0 0114.09-11.88 3 3 0 012.76 0 3.77 3.77 0 011.68 1.77 3.27 3.27 0 01.1 2.37 3.15 3.15 0 01-2 1.91 19.65 19.65 0 00-6.75 4.25 23.63 23.63 0 00-4.54 6.12 27.88 27.88 0 00-2.53 7.24 38.05 38.05 0 00-.79 7.73q.13 6.12 3.09 8.46a10.1 10.1 0 006.39 2.33 8.51 8.51 0 006.22-2.43c1.64-1.62 2.46-4 2.46-7.17 0-3.34-.83-5.64-2.5-6.92a9.3 9.3 0 00-5.79-1.9 10.58 10.58 0 00-6.12 1.94 9.24 9.24 0 00-3.75 5.69c0 .13-.24.4-.73.79a4.08 4.08 0 01-1.51.82 1.37 1.37 0 01-1.35-.23c-.37-.3-.4-1.09-.1-2.37q1.36-6.51 5.14-9.84zm33.17-3.09a10.39 10.39 0 01-1.15-5q0-5.93 3.72-9.34a12.9 12.9 0 019-3.43 3.26 3.26 0 012.6 1 3.35 3.35 0 010 4.55 3.26 3.26 0 01-2.6 1 6 6 0 00-4.15 1.51 5.93 5.93 0 00-1.71 4.67 5.7 5.7 0 001.68 4.15 5.79 5.79 0 004.31 1.71 3.49 3.49 0 012.6 1 3.26 3.26 0 010 4.48 3.49 3.49 0 01-2.6 1 9.45 9.45 0 00-6.45 2.37 7.63 7.63 0 00-2.7 6 8.29 8.29 0 002.67 6.52 10 10 0 006.88 2.36 8.84 8.84 0 006.18-2.33 8.42 8.42 0 002.57-6.55 7.63 7.63 0 00-2.67-6 9.45 9.45 0 00-6.48-2.34 3.49 3.49 0 01-2.6-1 3.26 3.26 0 010-4.48 3.49 3.49 0 012.6-1 5.73 5.73 0 004.28-1.75 5.67 5.67 0 001.71-4.11 5.87 5.87 0 00-1.74-4.67 6.1 6.1 0 00-4.12-1.51 3.27 3.27 0 01-2.6-1 3.38 3.38 0 010-4.55 3.27 3.27 0 012.6-1 12.93 12.93 0 019 3.43 12 12 0 013.75 9.34 10.35 10.35 0 01-1.12 4.94 10.77 10.77 0 01-3.16 3.62 15.15 15.15 0 015.5 5.2 13.19 13.19 0 011.94 7 14.54 14.54 0 01-4.61 11.22 15.73 15.73 0 01-11 4.25 17.15 17.15 0 01-11.65-4.18 14.19 14.19 0 01-4.81-11.29 13.12 13.12 0 011.91-6.91 15.27 15.27 0 015.53-5.27 11.28 11.28 0 01-3.11-3.61zm113.52-222.95h-.06l-11.52 18.95h21.32a3.22 3.22 0 012.64 1.06 3.36 3.36 0 010 4.47 3.22 3.22 0 01-2.64 1.06h-26.78c-1.67 0-2.78-.51-3.33-1.52a3.48 3.48 0 01.36-3.55l17.58-28.3a4.89 4.89 0 012-2 5.57 5.57 0 012.5-.56h.79a4.1 4.1 0 012.93 1 3.76 3.76 0 011.09 2.86v41.8a2.9 2.9 0 01-1.09 2.46 3.7 3.7 0 01-4.67 0 2.87 2.87 0 01-1.09-2.46zm38.17 0h-.06l-11.52 18.95h21.32a3.21 3.21 0 012.64 1.06 3.36 3.36 0 010 4.47 3.21 3.21 0 01-2.64 1.06h-26.78c-1.67 0-2.78-.51-3.33-1.52a3.49 3.49 0 01.37-3.55l17.57-28.3a5 5 0 012-2 5.57 5.57 0 012.5-.56h.79a4.1 4.1 0 012.93 1 3.72 3.72 0 011.09 2.86v41.8a2.87 2.87 0 01-1.09 2.46 3.7 3.7 0 01-4.67 0 2.9 2.9 0 01-1.09-2.46zm22.61-4.05a13.85 13.85 0 0123.36 0q4.32 6.42 4.32 18.13 0 11.93-4.35 18.2a13.93 13.93 0 01-23.3 0q-4.34-6.28-4.34-18.2 0-11.71 4.31-18.13zm3.49 27.25a17.63 17.63 0 002.3 5.46 7.15 7.15 0 003 2.63 6.48 6.48 0 005.86 0 7.09 7.09 0 003-2.63 17.86 17.86 0 002.31-5.46 43.92 43.92 0 000-18.17 18.53 18.53 0 00-2.31-5.49 7.12 7.12 0 00-5.89-3.42 7 7 0 00-2.89.72 7.65 7.65 0 00-3 2.7 17.75 17.75 0 00-2.33 5.49 43.47 43.47 0 000 18.17zM114.88 887.27l-8.82 5.2a3.32 3.32 0 01-2.77.43 3.7 3.7 0 01-2-1.48 3.3 3.3 0 01-.5-2.37 3 3 0 011.65-2.17l14-8.36a3.73 3.73 0 013.72-.33 3.25 3.25 0 011.61 3.16v41.59a2.89 2.89 0 01-1.09 2.47 3.81 3.81 0 01-2.37.82 3.85 3.85 0 01-2.37-.82 2.91 2.91 0 01-1.08-2.47zm12.7 32.58a3.26 3.26 0 012.6 1 3.34 3.34 0 010 4.54 3.26 3.26 0 01-2.6 1h-22.77a3.2 3.2 0 01-2.54-1 3.37 3.37 0 010-4.54 3.2 3.2 0 012.54-1zm142.76-43.18a10.33 10.33 0 01-1.15-5 12.11 12.11 0 013.71-9.35 12.89 12.89 0 019.05-3.42 3.26 3.26 0 012.6 1 3.34 3.34 0 010 4.54 3.26 3.26 0 01-2.6 1 6 6 0 00-4.14 1.51 5.94 5.94 0 00-1.71 4.68 5.72 5.72 0 001.67 4.14 5.79 5.79 0 004.32 1.71 3.55 3.55 0 012.6 1.06 3.28 3.28 0 010 4.47 3.55 3.55 0 01-2.6 1.06 9.41 9.41 0 00-6.45 2.36 7.63 7.63 0 00-2.7 6 8.29 8.29 0 002.66 6.57 10 10 0 006.88 2.37 8.87 8.87 0 006.19-2.34 8.4 8.4 0 002.56-6.55 7.64 7.64 0 00-2.66-6 9.53 9.53 0 00-6.48-2.33 3.51 3.51 0 01-2.6-1.06 3.25 3.25 0 010-4.47 3.51 3.51 0 012.6-1.06 5.74 5.74 0 004.27-1.74 5.68 5.68 0 001.72-4.11 5.89 5.89 0 00-1.75-4.68 6.05 6.05 0 00-4.11-1.51 3.26 3.26 0 01-2.6-1 3.34 3.34 0 010-4.54 3.26 3.26 0 012.6-1 12.9 12.9 0 019 3.42 12 12 0 013.78 9.3 10.43 10.43 0 01-1.12 4.93 10.78 10.78 0 01-3.16 3.62 15.12 15.12 0 015.49 5.2 13.15 13.15 0 011.94 7 14.54 14.54 0 01-4.6 11.23 15.75 15.75 0 01-11.07 4.32 17.12 17.12 0 01-11.65-4.18q-4.8-4.17-4.8-11.29a13.06 13.06 0 011.91-6.91 15.21 15.21 0 015.52-5.26 11.36 11.36 0 01-3.12-3.69zm1216.88-733.73a8.46 8.46 0 005.14 1.65q4.8 0 7.21-2.8a10.46 10.46 0 002.4-7.07q0-4.49-2.34-6.91t-7.86-2.44a22.69 22.69 0 00-2.44.13c-.83.09-1.71.22-2.63.4a3.69 3.69 0 01-3.19-.6 3.1 3.1 0 01-1-3l1.77-16.58a3.18 3.18 0 011.19-2.08 3.42 3.42 0 012.24-.88h15.46a3.27 3.27 0 012.64 1 3.36 3.36 0 010 4.47 3.27 3.27 0 01-2.64 1h-12.37l-1 9.54a7.5 7.5 0 011-.06h1q8.55 0 12.8 4.44a15.94 15.94 0 014.24 11.49 18.43 18.43 0 01-1 6.05 15.45 15.45 0 01-3.06 5.27 15.2 15.2 0 01-5.13 3.71 17.16 17.16 0 01-7.24 1.42 15.27 15.27 0 01-9.25-2.9 14.69 14.69 0 01-5.43-7 2.75 2.75 0 01.17-2.67 3.75 3.75 0 012-1.48 4.09 4.09 0 012.54 0 2.91 2.91 0 011.81 1.95 8.22 8.22 0 002.97 3.95zm50.78-33.63h-17.9a3.16 3.16 0 01-2.53-1 3.25 3.25 0 010-4.47 3.16 3.16 0 012.53-1h23a3.52 3.52 0 013.06 1.31 3.16 3.16 0 01.17 3.23l-17.77 41.2a3.16 3.16 0 01-2 1.91 3.7 3.7 0 01-4.38-1.75 2.83 2.83 0 010-2.66zm25.34 13.69a13.23 13.23 0 019.05-3.33 16.66 16.66 0 015.23.86 12.71 12.71 0 014.67 2.76 15 15 0 013.39 4.78 18.24 18.24 0 01-2.93 18.52q-4.24 4.6-11.35 4.61a16.66 16.66 0 01-11.35-4.38q-5-4.36-5-13.33a37.26 37.26 0 014.87-19.18A27.15 27.15 0 011574 102.4a3.06 3.06 0 012.77 0 3.75 3.75 0 011.68 1.78 3.27 3.27 0 01.09 2.37 3.17 3.17 0 01-2 1.91 19.49 19.49 0 00-6.74 4.24 23.41 23.41 0 00-4.54 6.12 27.9 27.9 0 00-2.54 7.24 38.93 38.93 0 00-.79 7.73c.09 4.09 1.12 6.9 3.1 8.46a10.08 10.08 0 006.38 2.34 8.48 8.48 0 006.22-2.44q2.48-2.43 2.47-7.17c0-3.33-.84-5.64-2.5-6.91a9.31 9.31 0 00-5.79-1.91 10.66 10.66 0 00-6.13 1.94 9.35 9.35 0 00-3.75 5.69c0 .14-.24.4-.72.79a4.35 4.35 0 01-1.51.83 1.41 1.41 0 01-1.35-.23c-.38-.31-.41-1.1-.1-2.37.87-4.35 2.56-7.63 5.09-9.81z"/><path stroke-width="1.13" stroke-linecap="round" stroke-linejoin="round" stroke="#333" fill="none" d="M48.85 960.54h1899.21"/><path class="e" d="M1230.76 661.02l95.09 45.42 161.45-185.65-68.53-81.54-188.01 221.77z"/><path class="e" d="M1229.41 661.02l96.44 45.42-166.33 96.71-117.48-24.74 187.37-117.39zm-69.89 142.13l-186.47 82.62-123.98-13.27 192.97-94.09 117.48 24.74z"/><path class="e" d="M973.05 885.77l-182.76 45.61-127.77-6.69 186.55-52.19 123.98 13.27zm-182.76 45.61l-176.35 8.03-144.03-10.29 192.61-4.43 127.77 6.69z"/><path class="b" d="M613.94 939.41l-200.1 9.75-135.18-8.93 191.25-11.11 144.03 10.29z"/><path class="b" d="M86.78 960.54h144.75l182.31-11.38-135.18-8.93-191.88 20.31z"/><path class="f" d="M413.84 949.16l200.1-9.75 176.35-10.02 182.76-44.97 186.47-81.27 166.33-96.71 161.45-185.65M413.84 949.16l-219.07 11.38m218.98 0l.09-11.38m200.1-9.75v21.13m176.35-31.15l-.09 31.15m369.32 0V803.15m166.33-96.71l-.54 254.1m-352.26-76.12l-.09 76.12"/><path class="c" d="M86.42 960.36l-13.82.18 203.26-24.02 189.45-12.91 196.94-16.52 186.82-52.47 192.97-100.05L1216.77 638l202-242.91v44.16l-188.01 221.77-188.72 117.39-192.97 94.09-186.55 52.19-191.71 14.09-191.34 8.49-156.39 13.27"/><path class="g" d="M1229.41 661.02l1.35 299.52m-188.72-182.13v182.13M849.07 872.5v88.04m-186.55-35.85l-.27 35.85m-192.88-21.76v21.76m-189.9-13.27l-.18 13.27"/><path stroke-width=".96" stroke-linecap="round" stroke-linejoin="round" stroke="#333" fill="none" d="M1381.02 960.54H45.87"/><path stroke="url(#a)" stroke-width=".76" stroke-miterlimit="10" fill="none" d="M1042.04 778.41l117.48 24.74"/><path stroke="url(#b)" stroke-width=".76" stroke-miterlimit="10" fill="none" d="M849.07 872.5l123.98 11.92"/><path stroke="url(#c)" stroke-width=".76" stroke-miterlimit="10" fill="none" d="M1230.04 660.48l95.27 45.96"/><path stroke="url(#d)" stroke-width=".76" stroke-miterlimit="10" fill="none" d="M662.52 924.69l127.77 4.7"/><path stroke="url(#e)" stroke-width=".76" stroke-miterlimit="10" fill="none" d="M469.37 938.78l144.57.63"/><path stroke="url(#f)" stroke-width=".76" stroke-miterlimit="10" fill="none" d="M279.47 947.27l134.37 1.89"/><path class="f" d="M1487.3 520.79l-.09 439.75m164.43-644.99l-.04 644.99"/><path class="g" d="M1418.76 439.25l1.27 521.29m189.35-793.56l1.27 793.56"/><path class="c" d="M1418.77 439.25v-44.16l178.75-228.11 12.42 43.19-191.17 229.08"/><path class="f" d="M1487.3 520.79l164.34-205.24"/><path stroke="url(#g)" stroke-width=".76" stroke-miterlimit="10" fill="none" d="M1418.76 439.25l68.54 81.54"/><path class="f" d="M1651.64 315.55L1850.7-12.82"/><path stroke="url(#h)" stroke-width=".76" stroke-miterlimit="10" fill="none" d="M1609.38 210.17l42.26 105.38"/><path class="c" d="M1597.52 166.98l117.11-264.11 57.96-7.8-163.21 315.1-11.86-43.19zM59 71.71a3.09 3.09 0 011-2.34 3.43 3.43 0 012.41-1h7.7q9.6 0 14.25 4A13.67 13.67 0 0189 83.29q0 7.83-4.91 11.95T70 99.35h-6.83a3.12 3.12 0 01-2.57-1 3.53 3.53 0 01-.85-2.35 3.39 3.39 0 01.85-2.24 3.17 3.17 0 012.57-1H70a22.73 22.73 0 005.82-.63 9.39 9.39 0 003.76-1.84 7 7 0 002-3 12.14 12.14 0 00.62-4 10.29 10.29 0 00-.49-3.22 6.07 6.07 0 00-1.81-2.67 9.35 9.35 0 00-3.66-1.81 22.91 22.91 0 00-6.08-.66h-4.29v38.64a2.87 2.87 0 01-1.09 2.43 3.7 3.7 0 01-4.67 0 2.9 2.9 0 01-1.11-2.43zm39.08 12.67Q102.6 79 110.69 79t12.54 5.43a20.38 20.38 0 014.5 13.46 20.4 20.4 0 01-4.5 13.42q-4.52 5.47-12.54 5.47t-12.61-5.47a20.4 20.4 0 01-4.5-13.42 20.38 20.38 0 014.5-13.51zm5.3 22.67a10.14 10.14 0 0014.58 0q2.92-3.09 2.93-9.21T118 88.59a10.21 10.21 0 00-14.58 0q-2.89 3.06-2.89 9.25t2.85 9.21zm53.94 7.64a15.35 15.35 0 01-8.06 2q-8.37 0-12.9-5.47a20.39 20.39 0 01-4.55-13.49 20.37 20.37 0 014.48-13.39Q140.76 79 148.73 79a17.22 17.22 0 018.13 1.91 13.58 13.58 0 015.62 5.33 2.83 2.83 0 01.33 2.66 3.55 3.55 0 01-1.64 1.81 3.92 3.92 0 01-2.47.4 3.06 3.06 0 01-2.21-1.65 7.34 7.34 0 00-3-2.79 9.76 9.76 0 00-4.8-1.09 9.41 9.41 0 00-7.11 3.06q-2.9 3.06-2.9 9.18t2.93 9.28a10 10 0 007.61 3.09 8.7 8.7 0 004.47-1.08 8.27 8.27 0 003-3.26 3.2 3.2 0 012.2-1.68 3.94 3.94 0 012.5.36 3.59 3.59 0 011.68 1.78 2.86 2.86 0 01-.26 2.63 15.91 15.91 0 01-5.49 5.75zm36.16-35.22a3.17 3.17 0 012.57 1 3.41 3.41 0 01.85 2.24 3.53 3.53 0 01-.85 2.27 3.1 3.1 0 01-2.57 1.06h-24.42a3.2 3.2 0 01-2.6-1.06 3.46 3.46 0 01-.88-2.27 3.34 3.34 0 01.88-2.24 3.27 3.27 0 012.6-1zm-8.75 34.1a2.87 2.87 0 01-1.09 2.46 3.82 3.82 0 01-2.37.83 3.87 3.87 0 01-2.37-.83 2.89 2.89 0 01-1.08-2.46V83a2.92 2.92 0 011.08-2.47 3.92 3.92 0 012.37-.82 3.87 3.87 0 012.37.82 2.9 2.9 0 011.09 2.47zm59.92 1.12a15.35 15.35 0 01-8.06 2q-8.35 0-12.9-5.47a20.38 20.38 0 01-4.54-13.49 20.37 20.37 0 014.47-13.39Q228.11 79 236.06 79a17.17 17.17 0 018.13 1.91 13.61 13.61 0 015.63 5.33 2.83 2.83 0 01.33 2.66 3.53 3.53 0 01-1.65 1.81 3.92 3.92 0 01-2.47.4 3 3 0 01-2.2-1.65 7.47 7.47 0 00-3-2.79 9.8 9.8 0 00-4.81-1.09 9.41 9.41 0 00-7.02 3.01q-2.89 3.06-2.89 9.18t2.93 9.28a10 10 0 007.6 3.09 8.68 8.68 0 004.47-1.08 8.27 8.27 0 003-3.26 3.22 3.22 0 012.21-1.68 4 4 0 012.5.36 3.68 3.68 0 011.68 1.78 2.86 2.86 0 01-.27 2.63 15.91 15.91 0 01-5.58 5.8zm35.41.06a17 17 0 01-8.66 2q-7.95 0-12.43-5.53a20.71 20.71 0 01-4.48-13.49A20.32 20.32 0 01259 84.38Q263.44 79 271.4 79c5.23 0 9.16 1.74 11.82 5.23a20.56 20.56 0 014 12.8 3.19 3.19 0 01-1 2.37 3.33 3.33 0 01-2.4 1h-25.45a3.2 3.2 0 01-2.6-1.06 3.45 3.45 0 01-.89-2.27 3.33 3.33 0 01.89-2.23 3.27 3.27 0 012.6-1h21.72c-.44-2.86-1.44-4.94-3-6.26a8.57 8.57 0 00-5.7-2c-3.64 0-6.21 1.29-7.73 3.88a16.33 16.33 0 00-2.27 8.36 19.65 19.65 0 00.53 4.48 11.8 11.8 0 001.71 4 9.16 9.16 0 003.12 2.83 9.42 9.42 0 004.64 1.08 10 10 0 005.14-1.11 8.87 8.87 0 003.09-3.36 3.06 3.06 0 012.21-1.65 3.89 3.89 0 012.46.4 3.71 3.71 0 011.68 1.81 2.76 2.76 0 01-.29 2.66 14.93 14.93 0 01-5.62 5.79zm37.81-35.28a3.18 3.18 0 012.57 1 3.41 3.41 0 01.85 2.24 3.53 3.53 0 01-.85 2.27 3.11 3.11 0 01-2.57 1.06h-24.42a3.19 3.19 0 01-2.6-1.06 3.47 3.47 0 01-.89-2.27 3.36 3.36 0 01.89-2.24 3.26 3.26 0 012.6-1zm-8.75 34.1A2.9 2.9 0 01308 116a3.8 3.8 0 01-4.74 0 2.9 2.9 0 01-1.09-2.46V83a2.93 2.93 0 011.09-2.47 3.83 3.83 0 014.74 0 2.93 2.93 0 011.12 2.47zm41.19-21.46L332 115.41q-1.84 2.37-4 1.68c-1.44-.46-2.17-1.68-2.17-3.66V82.24a2.89 2.89 0 011.09-2.47 3.81 3.81 0 012.37-.82 3.85 3.85 0 012.37.82 2.91 2.91 0 011.08 2.47v21.32L351 80.26c1.28-1.58 2.64-2.13 4.08-1.67s2.18 1.67 2.18 3.65v31.19a2.92 2.92 0 01-1.09 2.47 3.8 3.8 0 01-4.74 0 2.92 2.92 0 01-1.09-2.47zm34.82-9.41a3.05 3.05 0 011-2.24 3.33 3.33 0 012.4-1h10.07a18.08 18.08 0 019.48 2.24 7.57 7.57 0 013.68 7 7.78 7.78 0 01-1.18 4.37 7.7 7.7 0 01-3.36 2.8 8.9 8.9 0 015.4 3.06 9 9 0 011.84 5.76q0 5.67-3.72 8.62t-11.74 3h-10.45a3.38 3.38 0 01-2.4-1 3.08 3.08 0 01-1-2.34zm6.91 27h7a22.92 22.92 0 004.77-.39 6.4 6.4 0 002.6-1.09 2.78 2.78 0 001.05-1.61 9.16 9.16 0 00.2-1.91 6.59 6.59 0 00-.23-1.74 2.87 2.87 0 00-1.12-1.48 7.23 7.23 0 00-2.7-1.06 25.15 25.15 0 00-5-.39h-7.51a3.34 3.34 0 01-2.56-.92 3 3 0 01-.86-2 2.92 2.92 0 01.86-2 3.3 3.3 0 012.56-.93h7.11c2.9-.08 4.73-.61 5.5-1.57a4.8 4.8 0 001.15-3 3.3 3.3 0 00-1.05-2.5c-.71-.66-2.42-1-5.14-1H392zm50.22 6.56c-1.8 0-3-.55-3.56-1.67s-.28-2.36.86-3.72l13.36-15.34c1.8-2.1 3.23-3.9 4.31-5.39a31 31 0 002.5-4 11.3 11.3 0 001.12-3.14 17.16 17.16 0 00.23-2.77 5.67 5.67 0 00-1.71-4.11 6.34 6.34 0 00-4.74-1.74 8.49 8.49 0 00-5.83 1.84 9.1 9.1 0 00-2.8 4.5 3 3 0 01-1.68 2.14 3.79 3.79 0 01-4.61-1.15 2.77 2.77 0 01-.36-2.63 16 16 0 015-7.8q3.78-3.39 10.3-3.39a13.19 13.19 0 019.64 3.65 11.82 11.82 0 013.71 8.72 20.78 20.78 0 01-.46 4.35A19.65 19.65 0 01466 89a33.6 33.6 0 01-3 4.87c-1.25 1.74-2.84 3.7-4.77 5.9l-8.55 9.93H466a3.15 3.15 0 012.56 1 3.43 3.43 0 010 4.54 3.15 3.15 0 01-2.56 1zm39.58-42.02a13.86 13.86 0 0123.37 0q4.31 6.42 4.31 18.13 0 11.92-4.35 18.2a13.92 13.92 0 01-23.29 0q-4.35-6.28-4.35-18.2 0-11.71 4.31-18.13zm3.49 27.25a17.87 17.87 0 002.3 5.46 7.11 7.11 0 003 2.63 6.46 6.46 0 005.85 0 7.11 7.11 0 003-2.63 18.13 18.13 0 002.3-5.46 36.15 36.15 0 00.95-9.12 35.82 35.82 0 00-.95-9.05 18.81 18.81 0 00-2.3-5.49 7.33 7.33 0 00-3-2.7 7.25 7.25 0 00-2.93-.72 7 7 0 00-2.89.72 7.63 7.63 0 00-3 2.7 18 18 0 00-2.34 5.49 35.37 35.37 0 00-.95 9.05 35.69 35.69 0 00.96 9.12zm45.58-24.39l-8.82 5.2a3.25 3.25 0 01-2.77.43 3.62 3.62 0 01-2-1.48 3.25 3.25 0 01-.5-2.37 3 3 0 011.65-2.17l14-8.36a3.71 3.71 0 013.73-.35 3.25 3.25 0 011.62 3.16v41.6a2.87 2.87 0 01-1.09 2.46 3.82 3.82 0 01-2.37.83 3.87 3.87 0 01-2.37-.83 2.89 2.89 0 01-1.08-2.46zm12.7 32.58a3.26 3.26 0 012.6 1 3.34 3.34 0 010 4.54 3.26 3.26 0 01-2.6 1h-22.77a3.2 3.2 0 01-2.54-1 3.34 3.34 0 010-4.54 3.2 3.2 0 012.54-1zm25.47-32.58l-8.82 5.2a3.25 3.25 0 01-2.77.43 3.66 3.66 0 01-2-1.48 3.3 3.3 0 01-.5-2.37 3.07 3.07 0 011.65-2.17l14-8.36a3.73 3.73 0 013.72-.33 3.26 3.26 0 011.64 3.16v41.6a2.87 2.87 0 01-1.09 2.46 3.82 3.82 0 01-2.37.83 3.87 3.87 0 01-2.37-.83 2.89 2.89 0 01-1.08-2.46zm12.7 32.58a3.26 3.26 0 012.6 1 3.34 3.34 0 010 4.54 3.26 3.26 0 01-2.6 1H559a3.2 3.2 0 01-2.54-1 3.37 3.37 0 010-4.54 3.2 3.2 0 012.54-1zM625.15 88a3.13 3.13 0 012.57 1 3.36 3.36 0 010 4.47 3.1 3.1 0 01-2.57 1.06h-27.64a3.1 3.1 0 01-2.51-1.04 3.25 3.25 0 010-4.49 3.13 3.13 0 012.51-1zm14.55 28.26c-1.8 0-3-.55-3.56-1.67s-.28-2.36.86-3.72l13.36-15.34c1.8-2.1 3.23-3.9 4.31-5.39a31 31 0 002.5-4 11.3 11.3 0 001.12-3.14 17.16 17.16 0 00.23-2.77 5.67 5.67 0 00-1.71-4.11 6.34 6.34 0 00-4.74-1.74 8.49 8.49 0 00-5.83 1.84 9.1 9.1 0 00-2.79 4.47 3 3 0 01-1.68 2.14 3.79 3.79 0 01-4.61-1.15 2.77 2.77 0 01-.36-2.63 16 16 0 015-7.8q3.78-3.39 10.3-3.39a13.19 13.19 0 019.64 3.65 11.82 11.82 0 013.72 8.72 20.13 20.13 0 01-.46 4.35 19.16 19.16 0 01-1.61 4.42 34.37 34.37 0 01-3 4.87c-1.26 1.74-2.85 3.7-4.78 5.9l-8.55 9.93h16.39a3.15 3.15 0 012.56 1 3.43 3.43 0 010 4.54 3.15 3.15 0 01-2.56 1zm39.58-42.02a13.86 13.86 0 0123.37 0Q707 80.66 707 92.37q0 11.92-4.35 18.2a13.92 13.92 0 01-23.29 0q-4.36-6.28-4.36-18.2 0-11.71 4.28-18.13zm3.49 27.25a17.87 17.87 0 002.3 5.46 7.11 7.11 0 003 2.63 6.46 6.46 0 005.85 0 7.11 7.11 0 003-2.63 18.13 18.13 0 002.3-5.46 36.15 36.15 0 001-9.12 35.82 35.82 0 00-1-9.05 18.81 18.81 0 00-2.3-5.49 7.33 7.33 0 00-3-2.7 7.25 7.25 0 00-2.92-.72 7.05 7.05 0 00-2.9.72 7.63 7.63 0 00-3 2.7 18 18 0 00-2.34 5.49 35.37 35.37 0 00-.95 9.05 35.69 35.69 0 00.96 9.12zm45.58-24.39l-8.82 5.2a3.25 3.25 0 01-2.77.43 3.66 3.66 0 01-2-1.48 3.3 3.3 0 01-.5-2.37 3 3 0 011.65-2.17l14-8.36a3.73 3.73 0 013.72-.33 3.26 3.26 0 011.61 3.16v41.6a2.87 2.87 0 01-1.09 2.46 3.82 3.82 0 01-2.37.83 3.87 3.87 0 01-2.37-.83 2.89 2.89 0 01-1.08-2.46zm12.7 32.58a3.26 3.26 0 012.6 1 3.34 3.34 0 010 4.54 3.26 3.26 0 01-2.6 1h-22.77a3.2 3.2 0 01-2.54-1 3.37 3.37 0 010-4.54 3.2 3.2 0 012.54-1zM775.93 96a12.23 12.23 0 01-8.88 3.32 17.6 17.6 0 01-5.43-.85 12.75 12.75 0 01-4.74-2.77 13.88 13.88 0 01-3.33-4.8 17.44 17.44 0 01-1.25-6.9 16.39 16.39 0 014.28-11.59 14.63 14.63 0 0111.25-4.6 16.82 16.82 0 0111.42 4.34q5 4.33 5 13.36a37.06 37.06 0 01-4.9 19.18 27.27 27.27 0 01-14.05 11.88 3.06 3.06 0 01-2.77 0 3.62 3.62 0 01-1.67-1.81 3.23 3.23 0 01-.1-2.37 3.16 3.16 0 012-1.87 20.31 20.31 0 006.81-4.28 22.25 22.25 0 004.51-6.12 29.13 29.13 0 002.5-7.24 37.62 37.62 0 00.79-7.7q-.06-6.12-3-8.46a10.21 10.21 0 00-6.45-2.33 8.53 8.53 0 00-6.18 2.43c-1.67 1.62-2.5 4-2.5 7.18q0 5 2.53 6.91a9.43 9.43 0 005.83 1.9 10.57 10.57 0 006.08-1.94 9 9 0 003.72-5.69c0-.22.22-.53.66-.92a3.36 3.36 0 011.38-.79 1.18 1.18 0 011.22.3c.33.32.36 1.13.1 2.4q-1.41 6.53-4.83 9.83zm34.29-13.3a3 3 0 011-2.24 3.46 3.46 0 012.44-1h17.11a3.24 3.24 0 012.63 1 3.42 3.42 0 01.86 2.24 3.54 3.54 0 01-.86 2.27 3.17 3.17 0 01-2.63 1.06h-13.64v27.51A2.87 2.87 0 01816 116a3.82 3.82 0 01-2.37.83 3.87 3.87 0 01-2.37-.83 2.89 2.89 0 01-1.08-2.46zm31.29 1.68Q846 79 854.12 79t12.53 5.43a20.33 20.33 0 014.51 13.46 20.35 20.35 0 01-4.51 13.42q-4.5 5.47-12.53 5.47t-12.61-5.47A20.4 20.4 0 01837 97.84a20.38 20.38 0 014.51-13.46zm5.3 22.67a10.14 10.14 0 0014.58 0q2.93-3.09 2.93-9.21t-2.93-9.25a10.21 10.21 0 00-14.58 0q-2.89 3.06-2.9 9.25t2.9 9.21zm26.92 5.95a3.08 3.08 0 011-2.3 3.46 3.46 0 012.44-1h30.86a3.34 3.34 0 012.41 1 3.12 3.12 0 011 2.3v9.28a3 3 0 01-1.09 2.5 3.6 3.6 0 01-4.67 0 3 3 0 01-1.09-2.5v-6h-24v6a3 3 0 01-1.09 2.5 3.74 3.74 0 01-2.37.86 3.78 3.78 0 01-2.37-.86 3 3 0 01-1.08-2.5zm5-4.24a30.34 30.34 0 001.09-4.81c.35-2.12.66-4.91.92-8.35s.4-7.74.4-12.87a3 3 0 011-2.24 3.33 3.33 0 012.4-1h18.56a3.33 3.33 0 012.4 1 3.05 3.05 0 011 2.24l.07 30.27a2.92 2.92 0 01-1.09 2.47 3.81 3.81 0 01-2.37.82 3.85 3.85 0 01-2.37-.82 2.91 2.91 0 01-1.08-2.47V86.06H888q-.06 6.78-.49 11.58t-1 8.09a36.24 36.24 0 01-1.29 5.27 14.7 14.7 0 01-1.41 3.09 3 3 0 01-2.14 1.68 3.83 3.83 0 01-2.5-.39 3.59 3.59 0 01-1.65-1.81 2.85 2.85 0 01.37-2.64 17.16 17.16 0 00.87-2.2zM939 105.5a18.37 18.37 0 01-2.31 5.86 11.8 11.8 0 01-4.11 4 12.07 12.07 0 01-6.15 1.48q-5.93 0-9-3.23a11.7 11.7 0 01-3-8.36c0-3.07.86-5.41 2.6-7a14.77 14.77 0 016.58-3.45 34.05 34.05 0 018.69-1q4.7 0 8.85.29c-.05.49-.12 1.43-.23 2.84s-.21 2.36-.3 2.89a56.91 56.91 0 00-13.95.2c-3.6.61-5.4 2.37-5.4 5.26a4.89 4.89 0 001.42 3.52q1.41 1.48 4.9 1.49a8.74 8.74 0 007.17-3.36 12.81 12.81 0 002.7-8.29c0-.79.38-1.16 1.12-1.09s1.12.43 1.12 1.09a32.28 32.28 0 01-.7 6.86zm-1.5-11.74q0-4.61-1.71-6.42T930 85.53a8.44 8.44 0 00-4.31 1 8 8 0 00-2.86 2.77 2.9 2.9 0 01-2.14 1.7 4.09 4.09 0 01-2.5-.39 3.44 3.44 0 01-1.65-1.81 2.93 2.93 0 01.36-2.67 13.28 13.28 0 015.56-5.26 16.93 16.93 0 018-1.91q7.57 0 10.73 4.11t3.16 10.7v19.67a2.89 2.89 0 01-1.09 2.47 3.7 3.7 0 01-4.67 0 2.89 2.89 0 01-1.09-2.47zm18.1 21.58a3 3 0 01-2.34 1.39 3.93 3.93 0 01-2.46-.66 3.49 3.49 0 01-1.42-2 2.77 2.77 0 01.69-2.56l23.37-31.2a3.09 3.09 0 012.4-1.41 3.85 3.85 0 012.4.69 3.51 3.51 0 011.42 1.94 3 3 0 01-.63 2.6zm-4.93-31.19a2.86 2.86 0 01-.7-2.6 3.47 3.47 0 011.45-1.94 4.07 4.07 0 012.47-.69 3 3 0 012.37 1.41l23.36 31.2a2.75 2.75 0 01.7 2.56 3.54 3.54 0 01-1.45 2 4 4 0 01-2.44.66 3.27 3.27 0 01-2.4-1.39z"/></svg>