<svg width="14" height="14" fill="none" xmlns="http://www.w3.org/2000/svg"><path d="M13.728 11.132l-1.552-1.034-1.38-.92a.611.611 0 00-.82.133l-.854 1.098a.608.608 0 01-.777.16c-.579-.322-1.264-.625-2.776-2.138C4.058 6.917 3.753 6.234 3.43 5.655a.608.608 0 01.161-.777l1.098-.853a.611.611 0 00.133-.821l-.891-1.337L2.868.272a.611.611 0 00-.823-.185L.819.823c-.331.195-.575.51-.68.88-.336 1.222-.403 3.919 3.918 8.24 4.322 4.321 7.018 4.254 8.24 3.918.37-.105.685-.349.88-.68l.736-1.226a.611.611 0 00-.185-.823zm-5.762-8.96a4.108 4.108 0 014.103 4.104.241.241 0 10.483 0A4.591 4.591 0 007.966 1.69a.241.241 0 000 .482z" fill="#000"/><path d="M7.966 3.62a2.658 2.658 0 012.655 2.656.241.241 0 00.483 0 3.142 3.142 0 00-3.138-3.138.241.241 0 000 .483z" fill="#000"/><path d="M7.966 5.069c.666 0 1.206.54 1.207 1.207a.241.241 0 00.483 0 1.692 1.692 0 00-1.69-1.69.241.241 0 000 .483z" fill="#000"/></svg>